<svg xmlns="http://www.w3.org/2000/svg" viewBox="0 0 150 150"><defs><style>.cls-1{fill:#c7faff;}.cls-2{fill:#ffe0a2;}.cls-3{fill:#be9151;}.cls-4{fill:#dc8449;}.cls-5{fill:#603612;}.cls-6{fill:#c76d36;}.cls-7{fill:#eea36b;}</style></defs><g id="Layer_3" data-name="Layer 3"><circle class="cls-1" cx="75" cy="65.4" r="55.37"/><path class="cls-2" d="M86.4,7A4.27,4.27,0,0,1,86,8.28,5,5,0,0,1,88,8.84c.28.16,1.1-1.22,1.26-1.42a.36.36,0,0,1,.5,0,10.57,10.57,0,0,1,1.58,1.63L92,7.81a.27.27,0,0,1,.1-.3,22.34,22.34,0,0,0-1.61-2.82,4.48,4.48,0,0,1-.68.54.28.28,0,0,1-.34-.05,4,4,0,0,0-.54-.55,2.1,2.1,0,0,0-.49.83.19.19,0,0,1-.13.14.23.23,0,0,1-.32.13,4,4,0,0,1-.77-.55A6.53,6.53,0,0,0,86.4,7Z"/><path class="cls-2" d="M59.34,8.71c.18-.63.95-1.13,1.45-1.5a.32.32,0,0,1,.48.19c.12.54.27,1.06.4,1.59a4,4,0,0,0,.94-.54.31.31,0,0,1,.25,0A20,20,0,0,0,63,5.31a1.1,1.1,0,0,0-.25.45.27.27,0,0,1-.51,0,4,4,0,0,0-.47-1c-.13-.18-.61.08-.92.25a1.91,1.91,0,0,1,.06,1,.24.24,0,0,1-.45,0c-.17-.47-.23-.94-.4-1.4a8,8,0,0,0-1.54,2A4.13,4.13,0,0,1,59.34,8.71Z"/><path class="cls-3" d="M63.32,8.86a7,7,0,0,1,1,2.23c3.5.31,7,.63,10.51.68s7.07-.45,10.5-.14l.12-3a.36.36,0,0,1,.36-.36,2.64,2.64,0,0,1,.1-1.66,8.27,8.27,0,0,1,.38-1.09,33.81,33.81,0,0,1-11.38.9A87.78,87.78,0,0,1,63.51,5.07,10.29,10.29,0,0,1,63.32,8.86Z"/><path class="cls-3" d="M118.3,1.36c-3.86,1.83-8.53,2.64-12.73,3.15a59.91,59.91,0,0,1-14.35.16,6,6,0,0,1,1.29,2.69.24.24,0,0,1,0,.15l.06.07c.62,1.09,1.16,2.22,1.69,3.35,0,0,0,0,.08-.07,4.07-1.21,8.36-1.57,12.46-2.66a30.67,30.67,0,0,0,5.79-2.38c1.76-.87,6.19-1.78,5.73-4.43C118.29,1.38,118.3,1.37,118.3,1.36Z"/><path class="cls-3" d="M58.16,6.32a6.29,6.29,0,0,1,1-1.53h0A115.25,115.25,0,0,1,40.39,3.65c-3-.38-6-.84-9-1.41-1.6-.3-3.2-.63-4.79-1S23.29.44,22,1.86C15.2,9.1,32.81,10.23,36.6,10.56c3.3.29,6.61.5,9.91.59,2.75.06,5.52-.07,8.27.06a26.19,26.19,0,0,1,3.1-4.84A.24.24,0,0,1,58.16,6.32Z"/><path class="cls-4" d="M91.62,9.77a.31.31,0,0,1-.49.06,13.69,13.69,0,0,0-1.59-1.64,9.38,9.38,0,0,0-.86,1.48.36.36,0,0,1-.49.13,6,6,0,0,0-2-.73c-.38,9.53-.59,19.05.52,28.55,0,.21-.32.25-.36.05a77.11,77.11,0,0,1-1.09-9.8.24.24,0,0,1-.33.05,12,12,0,0,0-5.15-2.78,21.47,21.47,0,0,0-5.6-.29,22.7,22.7,0,0,0-11.13,3.62,28.87,28.87,0,0,0-.22,7.88c0,.17-.27.21-.3,0a27,27,0,0,1,0-7.61.15.15,0,0,1-.09-.25l.13-.1c.25-2.06.59-4.12.84-6.21a57.44,57.44,0,0,0,.45-7.06c0-1.55.33-6.33-2.23-5.42a.34.34,0,0,1-.31-.58C61.15,8.78,61,8.4,60.83,8c-.18.15-.37.3-.54.46a2.16,2.16,0,0,1-.67.53c-.16.06-.31-.12-.28-.27,0,.26-.38.38-.44.1-.21-1.09-1.21-1.41-1.84-.43-.38.6-.75,1.2-1.09,1.82-.18.33-.33.67-.5,1h.15a.22.22,0,0,1,0,.44l-.4,0c-.47,1-.91,1.95-1.3,2.95-1.09,2.84-2.08,5.74-2.92,8.66-1.88,6.55-2.68,12.84-1.51,19.6A169.09,169.09,0,0,1,52,61c.21,3.32.34,6.64.43,10a48.72,48.72,0,0,1-.12,8.71,49.77,49.77,0,0,1-2.67,8.9,55,55,0,0,1-3.34,7.73,67.11,67.11,0,0,0-4.1,9.31c-1.15,3.3-2.43,7-.69,10.4,2.82,5.47,8.34,8.52,13.17,12a56.42,56.42,0,0,0,7.43,4.71,49.29,49.29,0,0,0,4.63,2.09c.69.26,1.38.52,2.08.75a1.91,1.91,0,0,0-.6-2.12.2.2,0,0,1-.24-.25c-.09-.22.19-.48.36-.26h0c.82-.35.88-.8.79-1.78a.32.32,0,0,1,.16-.29l1.27-.55c-3.93-3.46-8.36-6.88-11.42-11.14-2.18-3-4.42-7.93-2.79-11.71a15.89,15.89,0,0,1-1.2-3.86c-.93-5.4.43-12.53,5.16-16,.11-.09.27.07.19.18-1.75,2.43-3.48,4.61-4.25,7.58a17.45,17.45,0,0,0-.08,9.21,20.78,20.78,0,0,0,.73,2c.13,0,.26.06.24.21l0,.24a19,19,0,0,0,9.46,9.47c0-.27,0-.53,0-.8l-.16-.09c-.23-.14,0-.42.17-.37v-.09a.25.25,0,0,1,.49,0l0,.3A18,18,0,0,0,76.93,117a7.34,7.34,0,0,0-1.2-.75c-.26-.14-.07-.49.19-.45a3.18,3.18,0,0,1,.33.09c6.76-1.5,13.65-5.77,15-13.09.7-3.77.14-8-2.51-11a25.1,25.1,0,0,0-8.39-6c-.32-.14-.09-.66.23-.55C88.05,87.88,93.93,94.84,92,103a16.23,16.23,0,0,1-4.72,8s0,0,0,0c.26,10.8-4,20.87-6,31.32L82,142a.39.39,0,0,1,.56.23,10.3,10.3,0,0,1,.45,1.69,9,9,0,0,1,2.27-.57.38.38,0,0,1,.37.29,17.38,17.38,0,0,0,.61,2.25c4.78-2.87,8-8.62,10.25-13.52a42,42,0,0,0,4.37-17.86c0-3.15-.5-6.27-.65-9.41a34.35,34.35,0,0,0-1.72-9.27c-1.66-5-3.5-10.08-3.26-15.44a156.78,156.78,0,0,1,2-18.73c1.06-6.35,2.65-12.61,3-19a75.47,75.47,0,0,0,0-9.63,50,50,0,0,0-1.11-9.37c-.8-3.05-2.54-5.74-3.93-8.55-1.09-2.21-2-4.53-3.09-6.71C92,8.82,91.82,9.29,91.62,9.77ZM46.21,115.1c-.07-.32-.13-.65-.18-1a.19.19,0,1,1,.38-.06c0,.33.07.66.1,1C46.52,115.23,46.24,115.27,46.21,115.1Zm4.44-17c-.22.71-.47,1.4-.75,2.09-.11.26-.51.17-.43-.12.2-.72.43-1.41.69-2.11C50.27,97.67,50.76,97.8,50.65,98.12ZM51.8,108c-.12.15-.37,0-.26-.2a1.31,1.31,0,0,0,.2-1c0-.27.36-.39.41-.12A1.41,1.41,0,0,1,51.8,108Zm10.78,19.16a4.45,4.45,0,0,1,.38.58.21.21,0,0,1-.32.25c-.16-.17-.31-.35-.45-.53A.25.25,0,1,1,62.58,127.17ZM54.82,26.07c0,.38,0,.75,0,1.13a.14.14,0,0,1-.28,0c0-.38-.05-.75-.05-1.13A.19.19,0,0,1,54.82,26.07Zm.26,96.4c0,.19-.24.32-.33.13a11.8,11.8,0,0,1-.54-1.27c-.11-.32.38-.44.49-.14A11.71,11.71,0,0,1,55.08,122.47Zm.93-79c0-.26.38-.25.4,0,.06.61.1,1.22.1,1.83,0,.18-.3.24-.33,0C56.1,44.75,56.05,44.13,56,43.5Zm.64,39.23a.19.19,0,0,1-.38,0c0-.43-.05-.85-.06-1.27a.25.25,0,0,1,.5,0C56.7,81.88,56.68,82.3,56.65,82.73Zm1.17-15.5a2.35,2.35,0,0,1-.33-1.86c.08-.33.58-.19.51.14A2.59,2.59,0,0,0,58.15,67,.19.19,0,0,1,57.82,67.23Zm.56-54.81a10.43,10.43,0,0,1-.9,1.8c-.12.18-.44.08-.36-.15A10.24,10.24,0,0,1,58,12.22C58.16,12,58.48,12.19,58.38,12.42Zm1.31,24c-.1.18-.35,0-.27-.15a4.24,4.24,0,0,0,.35-1.89.21.21,0,0,1,.41,0A4,4,0,0,1,59.69,36.41ZM89,104.75c.08-.25.47-.15.39.1a3.24,3.24,0,0,1-.29.75c-.08.13-.32.09-.3-.08A2.91,2.91,0,0,1,89,104.75Zm-.78-10.82c0,.23.08.47.11.71s-.23.27-.29.08L87.89,94C87.83,93.79,88.21,93.69,88.25,93.93ZM77.32,77.75c.22.51.42,1,.61,1.54.12.3-.38.44-.49.13q-.27-.78-.51-1.56C76.85,77.6,77.22,77.52,77.32,77.75ZM75.77,54c.17-.14.35.14.22.29a.84.84,0,0,0-.19.57c0,.24-.4.31-.43.06A.91.91,0,0,1,75.77,54ZM72.61,33c.09-.19.4-.06.34.14a5.34,5.34,0,0,0-.24,1.64c0,.3-.44.29-.46,0A3.54,3.54,0,0,1,72.61,33Zm-.28,10.46a5,5,0,0,1,.19,1.72.18.18,0,0,1-.35,0,7,7,0,0,0-.09-1.65A.13.13,0,0,1,72.33,43.47Zm-1.19,19.8c0-.18.36-.16.34,0a10.39,10.39,0,0,1-.2,1.47c0,.3-.5.17-.45-.13A11.14,11.14,0,0,1,71.14,63.27ZM70.05,79.35a.19.19,0,0,1,.37,0l0,.57c0,.28-.46.28-.44,0ZM61.9,73.76a2.87,2.87,0,0,0,.35-1.44.26.26,0,0,1,.51,0,2.34,2.34,0,0,1-.5,1.65A.21.21,0,1,1,61.9,73.76Zm-.6-54.64c.1-.24.49-.14.4.11A15.74,15.74,0,0,1,61,21.1c-.09.2-.4.06-.34-.14A17.61,17.61,0,0,1,61.3,19.12ZM61.35,50l-.21,1c0,.18-.33.14-.31,0l.06-1A.23.23,0,1,1,61.35,50ZM62,110.45c-.13-.42-.22-.84-.31-1.26,0-.17.22-.24.26-.07.1.42.22.83.29,1.26C62.26,110.54,62,110.6,62,110.45Zm12.9,4.23a.17.17,0,0,1-.33,0,3,3,0,0,1,0-.6.21.21,0,0,1,.41,0A3,3,0,0,1,74.9,114.68Zm8.72-22.13c2.44,1.82,4.6,4.71,4.17,7.94-.94,7.08-8.33,9.62-14.5,7.65-5.61,2.54-14.24.52-15.11-6.57-1-7.67,6.72-12.37,13.55-12.24C75.69,89.4,80.36,90.11,83.62,92.55ZM80.69,31.84a.19.19,0,0,1-.38,0c0-.57,0-1.13,0-1.69a.21.21,0,1,1,.42,0C80.72,30.71,80.72,31.27,80.69,31.84Zm4.16,37.25a6.77,6.77,0,0,0-.07-1.49.23.23,0,0,1,.45-.12,3.82,3.82,0,0,1,.19,1.61C85.39,69.45,84.82,69.46,84.85,69.09Zm.23-18.22a4.86,4.86,0,0,1-.34-1c0-.23.31-.43.42-.18a4.77,4.77,0,0,1,.27,1.05A.18.18,0,0,1,85.08,50.87Zm3.36,31.56c-.15-.35-.29-.69-.41-1.05a.21.21,0,0,1,.38-.16,10.59,10.59,0,0,1,.46,1C89,82.47,88.56,82.73,88.44,82.43ZM88.81,18c0,.21-.35.12-.32-.09.08-.47.16-.94.26-1.41,0-.25.42-.14.37.1C89,17,88.93,17.5,88.81,18ZM91,13.6l-.17-.7c-.05-.22.31-.31.34-.09l.12.71C91.36,13.7,91.09,13.79,91,13.6ZM84.8,137.48c-.07.31-.52.17-.47-.13A3.13,3.13,0,0,1,84.8,136c.14-.2.53-.07.42.18A8.21,8.21,0,0,0,84.8,137.48ZM90.42,125c-.09.28-.54.15-.44-.12l.32-.83c.08-.23.44-.14.37.1S90.5,124.68,90.42,125Zm1.73-11c0,.37-.62.37-.57,0a12.16,12.16,0,0,1,.23-1.32.22.22,0,0,1,.43.06A7.55,7.55,0,0,1,92.15,113.93Zm5.29-8.62a8.85,8.85,0,0,1,.17,1c0,.24-.38.29-.42.06a7.36,7.36,0,0,1-.12-1A.19.19,0,0,1,97.44,105.31Zm-.28,12.5a10.24,10.24,0,0,1,.24,1.47c0,.37-.55.37-.59,0a9.53,9.53,0,0,1-.08-1.41A.22.22,0,0,1,97.16,117.81Zm-4.9-83.73c0,.33,0,.66-.05,1a.18.18,0,0,1-.36,0q0-.49-.06-1A.24.24,0,0,1,92.26,34.08Zm3.43-7.3A1.34,1.34,0,0,0,96,25.71c-.05-.29.39-.42.45-.12a1.45,1.45,0,0,1-.5,1.47A.19.19,0,0,1,95.69,26.78ZM95,46.25c.07-.36.59-.2.53.14-.09.55,0,1.13-.19,1.67a.2.2,0,0,1-.38,0A3.58,3.58,0,0,1,95,46.25Zm-.13,86a7,7,0,0,1-.28,1,.23.23,0,0,1-.45-.12,5.65,5.65,0,0,1,.33-1A.21.21,0,0,1,94.89,132.26ZM93.69,60A3.24,3.24,0,0,0,94,58.27c0-.34.49-.34.52,0A3,3,0,0,1,94,60.19.19.19,0,0,1,93.69,60Zm.2,32.89a1.64,1.64,0,0,1,.34,1.22c0,.3-.5.31-.47,0a1.74,1.74,0,0,0-.22-1C93.4,92.86,93.73,92.68,93.89,92.89ZM92,75.9a8.29,8.29,0,0,1-.25-.85c0-.21.26-.36.35-.15a9.4,9.4,0,0,1,.34.88C92.49,76.06,92,76.18,92,75.9Z"/><path class="cls-2" d="M69.86,132.77a.31.31,0,0,1-.23.3l-1,.24a6,6,0,0,1,.73,1.36,10.64,10.64,0,0,0,2.52-.09c.63-.13,1.23-.33,1.84-.52a3.61,3.61,0,0,1-1.68-.49.17.17,0,0,1,.17-.29,3.26,3.26,0,0,0,3.14-.18,8.44,8.44,0,0,0-1,0c-.35,0-.38-.47-.08-.58a3.3,3.3,0,0,0,.78-.43,6.32,6.32,0,0,1-4.44-1C70,131.35,69.79,131.71,69.86,132.77Z"/><path class="cls-2" d="M85.06,144.54a1.94,1.94,0,0,0-2.12.23c-.2.09-.52,0-.56-.23a12.05,12.05,0,0,0-.31-1.38c0,.17-.12.33-.09.27a10.72,10.72,0,0,0-.42,1.47,14.05,14.05,0,0,0-.2,2.5,2.36,2.36,0,0,1,.76-.84c.22-.13.4.16.26.33a2.9,2.9,0,0,0-.67,2.63,12.45,12.45,0,0,1,.89-.89,6.34,6.34,0,0,1,.78-.68.2.2,0,0,1,.21,0,.2.2,0,0,1,.33.13l0,.23a3.29,3.29,0,0,0,.87-.79,11.11,11.11,0,0,0,.63-1.12.17.17,0,0,1,.16-.09A14.21,14.21,0,0,1,85.06,144.54Z"/><path class="cls-4" d="M86.57,97.42C84.64,99.28,82.28,99,79.65,99a4.91,4.91,0,0,0-1.43.11c-1.41,1.14-1.52,2.25-.31,3.34a6.18,6.18,0,0,0,1.76,1.18A12.45,12.45,0,0,0,85,104.78l.13,0A7.26,7.26,0,0,0,87,99.31,8,8,0,0,0,86.57,97.42Zm-5.29,4.49a.22.22,0,0,1-.42,0,1.35,1.35,0,0,0-.83-1.1,1.22,1.22,0,0,0-1.25.53c-.14.17-.45,0-.37-.21A1.5,1.5,0,0,1,81.28,101.91Z"/><path class="cls-4" d="M68.09,104c2.16-1.46,1.79-4.47-1.14-4.07a10.07,10.07,0,0,1-2,.16c-1.35-.07-4.57-.5-5.83-1.82A8,8,0,0,0,59,101a8.39,8.39,0,0,0,1.9,4.3A9.44,9.44,0,0,0,68.09,104Zm0-1.64a.24.24,0,0,1-.4.23,1.73,1.73,0,0,0-1.37-.79A1.56,1.56,0,0,0,65,102.89a.17.17,0,0,1-.32-.09A1.84,1.84,0,0,1,68.13,102.32Z"/><path class="cls-2" d="M59.22,97.65c.67.41,2.54,1.29,2.53,1.28a10,10,0,0,0,2.49.51c1.28,0,2.53-.34,3.78-.3,1.77,0,2.33,1.13,2.18,2.81-.16,1.88-2,2.79-3.5,3.39a9.15,9.15,0,0,1-5,.81A8.31,8.31,0,0,0,64.83,108a13.42,13.42,0,0,0,8-.17.33.33,0,0,1,.42-.39c3.05.93,6.69,1.18,9.53-.57a9.94,9.94,0,0,0,1.86-1.47c-2.66.11-8.6-1.35-8.33-4.74a2.41,2.41,0,0,1,2.35-2.4c2.8-.27,5.38.5,7.77-1.31-2.27-5.09-9.51-6.87-14.66-6.79C66.91,90.21,60.69,92.74,59.22,97.65Zm15.54-.44h0a1.22,1.22,0,0,1-.84,1.12,2.52,2.52,0,0,1-1.89,0,1.17,1.17,0,0,1-.61-.55,1.45,1.45,0,0,1-.24-.38c-.22-.57.46-1.09.92-1.29a2.36,2.36,0,0,1,2.12,0,1.1,1.1,0,0,1,.16.15,1.38,1.38,0,0,1,.45.45A.39.39,0,0,1,74.76,97.21Zm-.15-3.35c.09.21-.22.36-.36.22a2.39,2.39,0,0,0-3-.67c-.21.09-.46-.17-.26-.34A2.41,2.41,0,0,1,74.61,93.86Z"/><path class="cls-5" d="M58.18,101.57c.87,7.09,9.5,9.11,15.11,6.57,6.17,2,13.56-.57,14.5-7.65.43-3.23-1.73-6.12-4.17-7.94-3.26-2.44-7.93-3.15-11.89-3.22C64.9,89.2,57.23,93.9,58.18,101.57Zm.89-3.34c1.26,1.32,4.48,1.75,5.83,1.82a10.07,10.07,0,0,0,2-.16c2.93-.4,3.3,2.61,1.14,4.07a9.44,9.44,0,0,1-7.23,1.31A8.39,8.39,0,0,1,59,101,8,8,0,0,1,59.07,98.23Zm26.05,6.57-.13,0a12.45,12.45,0,0,1-5.32-1.16,6.18,6.18,0,0,1-1.76-1.18c-1.21-1.09-1.1-2.2.31-3.34A4.91,4.91,0,0,1,79.65,99c2.63,0,5,.29,6.92-1.57A8,8,0,0,1,87,99.31,7.26,7.26,0,0,1,85.12,104.8Zm1.27-7.89c-2.39,1.81-5,1-7.77,1.31a2.41,2.41,0,0,0-2.35,2.4c-.27,3.39,5.67,4.85,8.33,4.74a9.94,9.94,0,0,1-1.86,1.47c-2.84,1.75-6.48,1.5-9.53.57a.33.33,0,0,0-.42.39,13.42,13.42,0,0,1-8,.17,8.31,8.31,0,0,1-3.14-1.81,9.15,9.15,0,0,0,5-.81c1.54-.6,3.34-1.51,3.5-3.39.15-1.68-.41-2.76-2.18-2.81-1.25,0-2.5.35-3.78.3a10,10,0,0,1-2.49-.51s-1.86-.87-2.53-1.28c1.47-4.91,7.69-7.44,12.51-7.53C76.88,90,84.12,91.82,86.39,96.91Z"/><path class="cls-5" d="M65,102.89a1.56,1.56,0,0,1,1.38-1.13,1.73,1.73,0,0,1,1.37.79.24.24,0,0,0,.4-.23,1.84,1.84,0,0,0-3.47.48A.17.17,0,0,0,65,102.89Z"/><path class="cls-5" d="M78.41,101.13c-.08.2.23.38.37.21a1.22,1.22,0,0,1,1.25-.53,1.35,1.35,0,0,1,.83,1.1.22.22,0,0,0,.42,0A1.5,1.5,0,0,0,78.41,101.13Z"/><path class="cls-5" d="M74.37,96.29a1.1,1.1,0,0,0-.16-.15,2.36,2.36,0,0,0-2.12,0c-.46.2-1.14.72-.92,1.29a1.45,1.45,0,0,0,.24.38,1.17,1.17,0,0,0,.61.55,2.52,2.52,0,0,0,1.89,0,1.22,1.22,0,0,0,.84-1.12h0a.39.39,0,0,0,.06-.47A1.38,1.38,0,0,0,74.37,96.29Z"/><path class="cls-5" d="M71.3,93.41a2.39,2.39,0,0,1,3,.67c.14.14.45,0,.36-.22A2.41,2.41,0,0,0,71,93.07C70.84,93.24,71.09,93.5,71.3,93.41Z"/><path class="cls-5" d="M118.5,1.08a.33.33,0,0,0-.4-.31c-4.24,1-8.28,2.42-12.62,3.09a67.61,67.61,0,0,1-14.43.44.15.15,0,0,0-.09,0L90.72,4a.3.3,0,0,0-.41,0,4.7,4.7,0,0,1-.62.57A3.79,3.79,0,0,0,89,4.06a.25.25,0,0,0-.31,0,2.13,2.13,0,0,0-.64,1,3,3,0,0,0-.81-.69.35.35,0,0,0-.45.12c-.07.12-.12.24-.19.36a77.57,77.57,0,0,1-11.7.83c-3.86-.12-7.66-.72-11.5-1a.26.26,0,0,0-.35-.09,1.5,1.5,0,0,0-.6.47,3.86,3.86,0,0,0-.48-.8.25.25,0,0,0-.28-.12,5.15,5.15,0,0,0-1,.52A4.29,4.29,0,0,0,60.38,4,.29.29,0,0,0,59.94,4l-.57.56a.24.24,0,0,0-.24-.24c-7.87-.54-15.66-1-23.47-2.17C31.89,1.53,28.14.78,24.4,0c-1.83-.36-3.79,2-4.29,3.57-1.81,5.72,8.09,6.5,11.56,7,3.83.49,7.68.82,11.54,1a83.06,83.06,0,0,0,11.27.19,72.21,72.21,0,0,0-3.65,9.84c-1.91,6-3.11,12.13-2.42,18.46s2.26,12.75,2.77,19.25c.27,3.32.39,6.64.5,10a59.76,59.76,0,0,1-.16,11c-.46,3-1.81,6-2.81,8.85a90.07,90.07,0,0,1-4.45,9.68c-2.28,4.72-5.41,10.94-3.89,16.27,1.38,4.87,6.47,8.4,10.41,11.09,4.87,3.33,9.55,6.75,15.07,8.93,1.14.46,2.31.84,3.49,1.2.21.06.35-.14.32-.33a6.6,6.6,0,0,0-.17-.82,7.17,7.17,0,0,0,4.8-.74.23.23,0,0,0,.06-.35,3.06,3.06,0,0,0,1.81-.87.24.24,0,0,0,.2-.23c0-.06.1-.11.14-.17s-.17-.42-.35-.26l-.17.14a3.69,3.69,0,0,0-.72-.15,1.66,1.66,0,0,0,.51-.55.15.15,0,0,0,0-.16.19.19,0,0,0-.17-.29,9.06,9.06,0,0,1-4.63-.67l.28-.12a.35.35,0,0,0,.15-.58c-3.46-3.23-7.15-6.28-10.33-9.79A18.21,18.21,0,0,1,57.23,114a11.47,11.47,0,0,1-.35-5.4,20.25,20.25,0,0,0,9.81,8.73c.2.09.48,0,.46-.26s0-.64-.05-1a16.62,16.62,0,0,0,10.72,1.56A.37.37,0,0,0,78,117a4.06,4.06,0,0,0-1.2-.91,20,20,0,0,0,10-4.62c0,10.87-4.51,21-6.41,31.58a.39.39,0,0,0,.56.43l.32-.19a8.16,8.16,0,0,0-.39,1.38,7.12,7.12,0,0,0,0,3.61.24.24,0,0,0,.23.18,2.34,2.34,0,0,0,.35,1.42.2.2,0,0,0,.36-.06.14.14,0,0,0,.12,0,9.73,9.73,0,0,0,.91-.77,7.22,7.22,0,0,0,.75-.71v.37a.21.21,0,0,0,.32.19,3.54,3.54,0,0,0,1.93-2.18.36.36,0,0,0,.46.07c4.61-2.58,7.5-7.61,9.91-12.14a47.41,47.41,0,0,0,5.13-16.06,37.53,37.53,0,0,0-.15-9.76c-.38-3-.27-6-.83-9-1.13-6.11-4.27-11.58-4.4-17.93-.28-13.58,4.46-26.62,5.31-40.06a66.17,66.17,0,0,0-1.14-18.42c-.6-2.65-2.12-5-3.4-7.39-.84-1.53-1.55-3.12-2.28-4.7,2.73-.27,5.45-.93,8.15-1.45a35.19,35.19,0,0,0,7.83-2.14c2.35-1.06,4.72-2.13,7-3.22a2.43,2.43,0,0,0,1.33-3.29A.21.21,0,0,0,118.5,1.08ZM88,5.73a.23.23,0,0,0,.32-.13.19.19,0,0,0,.13-.14,2.1,2.1,0,0,1,.49-.83,4,4,0,0,1,.54.55.28.28,0,0,0,.34.05,4.48,4.48,0,0,0,.68-.54,22.34,22.34,0,0,1,1.61,2.82.27.27,0,0,0-.1.3l-.68,1.24a10.57,10.57,0,0,0-1.58-1.63.36.36,0,0,0-.5,0c-.16.2-1,1.58-1.26,1.42A5,5,0,0,0,86,8.28,4.27,4.27,0,0,0,86.4,7a6.53,6.53,0,0,1,.81-1.81A4,4,0,0,0,88,5.73Zm-1.66-.21a8.27,8.27,0,0,0-.38,1.09,2.64,2.64,0,0,0-.1,1.66.36.36,0,0,0-.36.36l-.12,3c-3.43-.31-7,.2-10.5.14s-7-.37-10.51-.68a7,7,0,0,0-1-2.23,10.29,10.29,0,0,0,.19-3.79A87.78,87.78,0,0,0,74.94,6.42,33.81,33.81,0,0,0,86.32,5.52ZM85.25,27.43c-1.94-3.27-7-3.5-10.39-3.35-4.09.18-8.47,1.24-11.71,3.87.36-2.43.84-4.85,1.13-7.29.31-2.63.86-6.18.19-9.11a92.56,92.56,0,0,0,10.39.9c3.36.12,7.17.42,10.48-.32C85.14,17.23,85,22.34,85.25,27.43ZM60,4.63c.17.46.23.93.4,1.4a.24.24,0,0,0,.45,0,1.91,1.91,0,0,0-.06-1c.31-.17.79-.43.92-.25a4,4,0,0,1,.47,1,.27.27,0,0,0,.51,0A1.1,1.1,0,0,1,63,5.31a20,20,0,0,1-.12,3.1.31.31,0,0,0-.25,0,4,4,0,0,1-.94.54c-.13-.53-.28-1-.4-1.59a.32.32,0,0,0-.48-.19c-.5.37-1.27.87-1.45,1.5a4.13,4.13,0,0,0-.84-2.06A8,8,0,0,1,60,4.63ZM46.51,11.15c-3.3-.09-6.61-.3-9.91-.59C32.81,10.23,15.2,9.1,22,1.86c1.32-1.42,2.92-1,4.64-.62s3.19.7,4.79,1c3,.57,6,1,9,1.41A115.25,115.25,0,0,0,59.13,4.79h0a6.29,6.29,0,0,0-1,1.53.24.24,0,0,0-.28,0,26.19,26.19,0,0,0-3.1,4.84C52,11.08,49.26,11.21,46.51,11.15ZM75,132.05a3.3,3.3,0,0,1-.78.43c-.3.11-.27.6.08.58a8.44,8.44,0,0,1,1,0,3.26,3.26,0,0,1-3.14.18.17.17,0,0,0-.17.29,3.61,3.61,0,0,0,1.68.49c-.61.19-1.21.39-1.84.52a10.64,10.64,0,0,1-2.52.09,6,6,0,0,0-.73-1.36l1-.24a.31.31,0,0,0,.23-.3c-.07-1.06.09-1.42.71-1.76A6.32,6.32,0,0,0,75,132.05Zm10.44,14.37a11.11,11.11,0,0,1-.63,1.12,3.29,3.29,0,0,1-.87.79l0-.23a.2.2,0,0,0-.33-.13.2.2,0,0,0-.21,0,6.34,6.34,0,0,0-.78.68,12.45,12.45,0,0,0-.89.89,2.9,2.9,0,0,1,.67-2.63c.14-.17,0-.46-.26-.33a2.36,2.36,0,0,0-.76.84,14.05,14.05,0,0,1,.2-2.5,10.72,10.72,0,0,1,.42-1.47c0,.06,0-.1.09-.27a12.05,12.05,0,0,1,.31,1.38c0,.27.36.32.56.23a1.94,1.94,0,0,1,2.12-.23,14.21,14.21,0,0,0,.55,1.79A.17.17,0,0,0,85.45,146.42ZM99.26,23.61A50,50,0,0,1,100.37,33a75.47,75.47,0,0,1,0,9.63c-.39,6.44-2,12.7-3,19a156.78,156.78,0,0,0-2,18.73c-.24,5.36,1.6,10.41,3.26,15.44a34.35,34.35,0,0,1,1.72,9.27c.15,3.14.64,6.26.65,9.41a42,42,0,0,1-4.37,17.86c-2.29,4.9-5.47,10.65-10.25,13.52a17.38,17.38,0,0,1-.61-2.25.38.38,0,0,0-.37-.29,9,9,0,0,0-2.27.57,10.3,10.3,0,0,0-.45-1.69A.39.39,0,0,0,82,142l-.78.44c2-10.45,6.28-20.52,6-31.32,0,0,0,0,0,0A16.23,16.23,0,0,0,92,103c2-8.19-3.91-15.15-11.36-17.7-.32-.11-.55.41-.23.55a25.1,25.1,0,0,1,8.39,6c2.65,3,3.21,7.2,2.51,11-1.37,7.32-8.26,11.59-15,13.09a3.18,3.18,0,0,0-.33-.09c-.26,0-.45.31-.19.45a7.34,7.34,0,0,1,1.2.75A18,18,0,0,1,67,115.5l0-.3a.25.25,0,0,0-.49,0v.09c-.22-.05-.4.23-.17.37l.16.09c0,.27,0,.53,0,.8a19,19,0,0,1-9.46-9.47l0-.24c0-.15-.11-.22-.24-.21a20.78,20.78,0,0,1-.73-2,17.45,17.45,0,0,1,.08-9.21c.77-3,2.5-5.15,4.25-7.58.08-.11-.08-.27-.19-.18-4.73,3.42-6.09,10.55-5.16,16a15.89,15.89,0,0,0,1.2,3.86c-1.63,3.78.61,8.67,2.79,11.71,3.06,4.26,7.49,7.68,11.42,11.14l-1.27.55a.32.32,0,0,0-.16.29c.09,1,0,1.43-.79,1.78h0c-.17-.22-.45,0-.36.26a.2.2,0,0,0,.24.25,1.91,1.91,0,0,1,.6,2.12c-.7-.23-1.39-.49-2.08-.75a49.29,49.29,0,0,1-4.63-2.09A56.42,56.42,0,0,1,54.64,128c-4.83-3.44-10.35-6.49-13.17-12-1.74-3.36-.46-7.1.69-10.4a67.11,67.11,0,0,1,4.1-9.31,55,55,0,0,0,3.34-7.73,49.77,49.77,0,0,0,2.67-8.9A48.72,48.72,0,0,0,52.39,71c-.09-3.32-.22-6.64-.43-10a169.09,169.09,0,0,0-2.47-18.07c-1.17-6.76-.37-13,1.51-19.6.84-2.92,1.83-5.82,2.92-8.66.39-1,.83-2,1.3-2.95l.4,0a.22.22,0,0,0,0-.44h-.15c.17-.34.32-.68.5-1,.34-.62.71-1.22,1.09-1.82.63-1,1.63-.66,1.84.43.06.28.45.16.44-.1,0,.15.12.33.28.27a2.16,2.16,0,0,0,.67-.53c.17-.16.36-.31.54-.46.16.38.32.76.49,1.14a.34.34,0,0,0,.31.58c2.56-.91,2.23,3.87,2.23,5.42a57.44,57.44,0,0,1-.45,7.06c-.25,2.09-.59,4.15-.84,6.21l-.13.1a.15.15,0,0,0,.09.25,27,27,0,0,0,0,7.61c0,.17.32.13.3,0a28.87,28.87,0,0,1,.22-7.88A22.7,22.7,0,0,1,74.2,24.85a21.47,21.47,0,0,1,5.6.29A12,12,0,0,1,85,27.92a.24.24,0,0,0,.33-.05,77.11,77.11,0,0,0,1.09,9.8c0,.2.39.16.36-.05-1.11-9.5-.9-19-.52-28.55a6,6,0,0,1,2,.73.36.36,0,0,0,.49-.13,9.38,9.38,0,0,1,.86-1.48,13.69,13.69,0,0,1,1.59,1.64.31.31,0,0,0,.49-.06c.2-.48.41-.95.62-1.42,1.14,2.18,2,4.5,3.09,6.71C96.72,17.87,98.46,20.56,99.26,23.61Zm13.3-17.79a30.67,30.67,0,0,1-5.79,2.38c-4.1,1.09-8.39,1.45-12.46,2.66,0,0,0,.05-.08.07-.53-1.13-1.07-2.26-1.69-3.35l-.06-.07a.24.24,0,0,0,0-.15,6,6,0,0,0-1.29-2.69,59.91,59.91,0,0,0,14.35-.16c4.2-.51,8.87-1.32,12.73-3.15,0,0,0,0,0,0C118.75,4,114.32,5,112.56,5.82Z"/><path class="cls-5" d="M58,12.22a10.24,10.24,0,0,0-.91,1.85c-.08.23.24.33.36.15a10.43,10.43,0,0,0,.9-1.8C58.48,12.19,58.16,12,58,12.22Z"/><path class="cls-5" d="M61,21.1a15.74,15.74,0,0,0,.73-1.87c.09-.25-.3-.35-.4-.11A17.61,17.61,0,0,0,60.63,21C60.57,21.16,60.88,21.3,61,21.1Z"/><path class="cls-5" d="M54.77,27.2c0-.38,0-.75,0-1.13a.19.19,0,0,0-.38,0c0,.38,0,.75.05,1.13A.14.14,0,0,0,54.77,27.2Z"/><path class="cls-5" d="M59.77,34.37a4.24,4.24,0,0,1-.35,1.89c-.08.17.17.33.27.15a4,4,0,0,0,.49-2A.21.21,0,0,0,59.77,34.37Z"/><path class="cls-5" d="M56.51,45.33c0-.61,0-1.22-.1-1.83,0-.25-.41-.26-.4,0,0,.63.09,1.25.17,1.87C56.21,45.57,56.52,45.51,56.51,45.33Z"/><path class="cls-5" d="M60.89,50l-.06,1c0,.18.28.22.31,0l.21-1A.23.23,0,1,0,60.89,50Z"/><path class="cls-5" d="M58,65.51c.07-.33-.43-.47-.51-.14a2.35,2.35,0,0,0,.33,1.86.19.19,0,0,0,.33-.19A2.59,2.59,0,0,1,58,65.51Z"/><path class="cls-5" d="M62.26,74a2.34,2.34,0,0,0,.5-1.65.26.26,0,0,0-.51,0,2.87,2.87,0,0,1-.35,1.44A.21.21,0,1,0,62.26,74Z"/><path class="cls-5" d="M56.21,81.46c0,.42,0,.84.06,1.27a.19.19,0,0,0,.38,0c0-.43.05-.85.06-1.27A.25.25,0,0,0,56.21,81.46Z"/><path class="cls-5" d="M50.16,98c-.26.7-.49,1.39-.69,2.11-.08.29.32.38.43.12.28-.69.53-1.38.75-2.09C50.76,97.8,50.27,97.67,50.16,98Z"/><path class="cls-5" d="M51.74,106.83a1.31,1.31,0,0,1-.2,1c-.11.16.14.35.26.2a1.41,1.41,0,0,0,.35-1.3C52.1,106.44,51.7,106.56,51.74,106.83Z"/><path class="cls-5" d="M46,114.13c0,.32.11.65.18,1s.31.13.3,0c0-.33-.06-.66-.1-1A.19.19,0,1,0,46,114.13Z"/><path class="cls-5" d="M54.21,121.33a11.8,11.8,0,0,0,.54,1.27c.09.19.37.06.33-.13a11.71,11.71,0,0,0-.38-1.28C54.59,120.89,54.1,121,54.21,121.33Z"/><path class="cls-5" d="M62.64,128a.21.21,0,0,0,.32-.25,4.45,4.45,0,0,0-.38-.58.25.25,0,1,0-.39.3C62.33,127.65,62.48,127.83,62.64,128Z"/><path class="cls-5" d="M84.8,136a3.13,3.13,0,0,0-.47,1.32c0,.3.4.44.47.13a8.21,8.21,0,0,1,.42-1.27C85.33,136,84.94,135.83,84.8,136Z"/><path class="cls-5" d="M94.16,133.13a.23.23,0,0,0,.45.12,7,7,0,0,0,.28-1,.21.21,0,0,0-.4-.11A5.65,5.65,0,0,0,94.16,133.13Z"/><path class="cls-5" d="M90.3,124l-.32.83c-.1.27.35.4.44.12s.16-.57.25-.85S90.38,123.78,90.3,124Z"/><path class="cls-5" d="M97.4,119.28a10.24,10.24,0,0,0-.24-1.47.22.22,0,0,0-.43.06,9.53,9.53,0,0,0,.08,1.41C96.85,119.65,97.45,119.65,97.4,119.28Z"/><path class="cls-5" d="M91.81,112.61a12.16,12.16,0,0,0-.23,1.32c0,.37.53.37.57,0a7.55,7.55,0,0,0,.09-1.26A.22.22,0,0,0,91.81,112.61Z"/><path class="cls-5" d="M97.61,106.34a8.85,8.85,0,0,0-.17-1,.19.19,0,0,0-.37,0,7.36,7.36,0,0,0,.12,1C97.23,106.63,97.63,106.58,97.61,106.34Z"/><path class="cls-5" d="M93.76,94.11c0,.31.44.3.47,0a1.64,1.64,0,0,0-.34-1.22c-.16-.21-.49,0-.35.2A1.74,1.74,0,0,1,93.76,94.11Z"/><path class="cls-5" d="M88.41,81.22a.21.21,0,0,0-.38.16c.12.36.26.7.41,1.05s.56,0,.43-.25A10.59,10.59,0,0,0,88.41,81.22Z"/><path class="cls-5" d="M91.7,75.05a8.29,8.29,0,0,0,.25.85c.09.28.54.16.44-.12a9.4,9.4,0,0,0-.34-.88C92,74.69,91.65,74.84,91.7,75.05Z"/><path class="cls-5" d="M77.93,79.29c-.19-.52-.39-1-.61-1.54-.1-.23-.47-.15-.39.11q.24.78.51,1.56C77.55,79.73,78.05,79.59,77.93,79.29Z"/><path class="cls-5" d="M70.46,79.92l0-.57a.19.19,0,0,0-.37,0l0,.57C70,80.2,70.48,80.2,70.46,79.92Z"/><path class="cls-5" d="M71.28,64.79a10.39,10.39,0,0,0,.2-1.47c0-.21-.29-.23-.34,0a11.14,11.14,0,0,0-.31,1.39C70.78,65,71.23,65.09,71.28,64.79Z"/><path class="cls-5" d="M84.78,67.6a6.77,6.77,0,0,1,.07,1.49c0,.37.54.36.57,0a3.82,3.82,0,0,0-.19-1.61A.23.23,0,0,0,84.78,67.6Z"/><path class="cls-5" d="M75.8,54.89a.84.84,0,0,1,.19-.57c.13-.15,0-.43-.22-.29a.91.91,0,0,0-.4.92C75.4,55.2,75.79,55.13,75.8,54.89Z"/><path class="cls-5" d="M72.52,45.19a5,5,0,0,0-.19-1.72.13.13,0,0,0-.25.07,7,7,0,0,1,.09,1.65A.18.18,0,0,0,72.52,45.19Z"/><path class="cls-5" d="M72.71,34.79A5.34,5.34,0,0,1,73,33.15c.06-.2-.25-.33-.34-.14a3.54,3.54,0,0,0-.36,1.78C72.27,35.08,72.72,35.09,72.71,34.79Z"/><path class="cls-5" d="M80.29,30.15c0,.56,0,1.12,0,1.69a.19.19,0,0,0,.38,0c0-.57,0-1.13,0-1.69A.21.21,0,1,0,80.29,30.15Z"/><path class="cls-5" d="M84.74,49.9a4.86,4.86,0,0,0,.34,1,.18.18,0,0,0,.35-.1,4.77,4.77,0,0,0-.27-1.05C85.05,49.47,84.7,49.67,84.74,49.9Z"/><path class="cls-5" d="M95.36,48.06c.14-.54.1-1.12.19-1.67.06-.34-.46-.5-.53-.14a3.58,3.58,0,0,0,0,1.81A.2.2,0,0,0,95.36,48.06Z"/><path class="cls-5" d="M92.21,35.07c0-.33,0-.66.05-1a.24.24,0,0,0-.47,0q0,.49.06,1A.18.18,0,0,0,92.21,35.07Z"/><path class="cls-5" d="M96,27.06a1.45,1.45,0,0,0,.5-1.47c-.06-.3-.5-.17-.45.12a1.34,1.34,0,0,1-.32,1.07A.19.19,0,0,0,96,27.06Z"/><path class="cls-5" d="M88.75,16.46c-.1.47-.18.94-.26,1.41,0,.21.27.3.32.09.12-.46.22-.93.31-1.4C89.17,16.32,88.8,16.21,88.75,16.46Z"/><path class="cls-5" d="M90.87,12.9l.17.7c0,.19.32.1.29-.08l-.12-.71C91.18,12.59,90.82,12.68,90.87,12.9Z"/><path class="cls-5" d="M94,60.19a3,3,0,0,0,.52-1.92c0-.34-.55-.34-.52,0A3.24,3.24,0,0,1,93.69,60,.19.19,0,0,0,94,60.19Z"/><path class="cls-5" d="M61.69,109.19c.09.42.18.84.31,1.26,0,.15.26.09.24-.07-.07-.43-.19-.84-.29-1.26C61.91,109,61.66,109,61.69,109.19Z"/><path class="cls-5" d="M74.53,114.08a3,3,0,0,0,0,.6.17.17,0,0,0,.33,0,3,3,0,0,0,0-.6A.21.21,0,0,0,74.53,114.08Z"/><path class="cls-5" d="M89.13,105.6a3.24,3.24,0,0,0,.29-.75c.08-.25-.31-.35-.39-.1a2.91,2.91,0,0,0-.2.77C88.81,105.69,89.05,105.73,89.13,105.6Z"/><path class="cls-5" d="M88.36,94.64c0-.24-.07-.48-.11-.71s-.42-.14-.36.1l.18.69C88.13,94.91,88.38,94.82,88.36,94.64Z"/><path class="cls-6" d="M61,8.31c-2.5,2.24-2.64,8.34-3.64,11.34.41-.21,1.17-.13,1.64-.37a84.86,84.86,0,0,1-.25,11.5,5.8,5.8,0,0,1,2.15-1.62,14.32,14.32,0,0,0,1.49,7.08c0-.54,0-1.11,0-1.7a30.78,30.78,0,0,1,.2-5.76.15.15,0,0,1-.09-.25l.13-.1c.25-2.06.59-4.12.84-6.21a57.44,57.44,0,0,0,.45-7.06c0-1.55.33-6.33-2.23-5.42a.34.34,0,0,1-.31-.58C61.19,8.88,61.07,8.59,61,8.31Zm.35,10.81c.1-.24.49-.14.4.11A15.74,15.74,0,0,1,61,21.1c-.09.2-.4.06-.34-.14A17.61,17.61,0,0,1,61.3,19.12Z"/><path class="cls-6" d="M88.19,9.8a6,6,0,0,0-2-.73c-.38,9.53-.59,19.05.52,28.55a.15.15,0,0,1-.12.16c0,.14,0,.29,0,.42,1.41-2.12.77-5.05,1.69-7.37a3.58,3.58,0,0,1,1.84,1c0-4-1.77-8.06-1.42-12.12.47.46,1.15.6,1.62,1a46,46,0,0,0-.2-7.6c-.15-1.52-.61-3-.87-4.48a8.42,8.42,0,0,0-.59,1.07A.36.36,0,0,1,88.19,9.8Zm.56,6.66c0-.25.42-.14.37.1-.09.47-.19.94-.31,1.4,0,.21-.35.12-.32-.09C88.57,17.4,88.65,16.93,88.75,16.46Z"/><path class="cls-6" d="M60.31,112c-1-1.61-2.2-3.37-3.22-5.2,0,0,0,0,0,0l0,.24A19,19,0,0,0,60.31,112Z"/><path class="cls-6" d="M57,106.67c-.2-.36-.38-.72-.56-1.08.13.35.26.7.4,1A.22.22,0,0,1,57,106.67Z"/><path class="cls-6" d="M59.1,119.13c-2.18-3-4.42-7.93-2.79-11.71a15.89,15.89,0,0,1-1.2-3.86c-.93-5.4.43-12.53,5.16-16a.13.13,0,0,1,.2.14c.43-.69.84-1.38,1.21-2.09-8,.69-10.51,12.67-10.33,19.37-.27-.16-.72-.17-1-.34a26.21,26.21,0,0,0,3.09,14,8.78,8.78,0,0,0-2.55-.35c2,3.22,4.65,5.06,7.66,7.51a46,46,0,0,0,10.56,6.07,3.79,3.79,0,0,0,0-.82.32.32,0,0,1,.16-.29l1.27-.55C66.59,126.81,62.16,123.39,59.1,119.13ZM51.8,108c-.12.15-.37,0-.26-.2a1.31,1.31,0,0,0,.2-1c0-.27.36-.39.41-.12A1.41,1.41,0,0,1,51.8,108Zm3,14.59a11.8,11.8,0,0,1-.54-1.27c-.11-.32.38-.44.49-.14a11.71,11.71,0,0,1,.38,1.28C55.12,122.66,54.84,122.79,54.75,122.6Zm7.89,5.4c-.16-.17-.31-.35-.45-.53a.25.25,0,1,1,.39-.3,4.45,4.45,0,0,1,.38.58A.21.21,0,0,1,62.64,128Z"/><path class="cls-6" d="M60.33,88a26.31,26.31,0,0,0-3.7,6.09C57.67,92,59.07,90,60.33,88Z"/><path class="cls-6" d="M94.21,93.65a1.41,1.41,0,0,1,0,.46c0,.3-.5.31-.47,0a1.74,1.74,0,0,0-.22-1,.19.19,0,0,1,.19-.29,15,15,0,0,0-10.26-7.14c1.17,1.77,4,2.57,5.38,4.49A17.32,17.32,0,0,1,91.4,95a13.08,13.08,0,0,1,.56,8,16.23,16.23,0,0,1-4.72,8s0,0,0,0c.26,10.8-4,20.87-6,31.32L82,142a.39.39,0,0,1,.56.23,10.3,10.3,0,0,1,.45,1.69,8.94,8.94,0,0,1,2.18-.55,61.61,61.61,0,0,0,4.7-9.2c.63-1.46,5.49-9.33,1.16-7.2,1.1-2.49,1.25-5.18,2.2-7.72.89-2.37,3.28-5.53,3-8.1a5.27,5.27,0,0,0-1.82.57A20.19,20.19,0,0,0,94.21,93.65ZM84.8,137.48c-.07.31-.52.17-.47-.13A3.13,3.13,0,0,1,84.8,136c.14-.2.53-.07.42.18A8.21,8.21,0,0,0,84.8,137.48ZM90.42,125c-.09.28-.54.15-.44-.12l.32-.83c.08-.23.44-.14.37.1S90.5,124.68,90.42,125Zm1.73-11c0,.37-.62.37-.57,0a12.16,12.16,0,0,1,.23-1.32.22.22,0,0,1,.43.06A7.55,7.55,0,0,1,92.15,113.93Z"/><path class="cls-6" d="M88,109.42a14,14,0,0,0,2-2.82C89.37,107.58,88.67,108.48,88,109.42Z"/><path class="cls-7" d="M72.34,26.38a3.53,3.53,0,0,1-1.19.34c-.27,0-.5-.2-.85-.13a3.54,3.54,0,0,0-1.1.62,5,5,0,0,0-1.19.84c-.22.26.07.7.39.5a10.11,10.11,0,0,1,1.23-.62c.44-.2.66-.44,1.1-.24A1.8,1.8,0,0,0,72.82,27C73,26.72,72.72,26.23,72.34,26.38Z"/><path class="cls-7" d="M76.23,26.39C75.74,25.8,75,26,74.35,26a.34.34,0,0,0,0,.67c.46,0,1.15-.16,1.55.12S76.42,26.62,76.23,26.39Z"/><path class="cls-7" d="M78.8,27.08c-.34-.44-.77-.41-1.29-.35a.28.28,0,0,0,0,.56,2.06,2.06,0,0,1,.92.16C78.65,27.56,79,27.32,78.8,27.08Z"/></g></svg>