<svg xmlns="http://www.w3.org/2000/svg" viewBox="0 0 150 150"><defs><style>.cls-1{fill:#dbffca;}.cls-2{fill:#dc8449;}.cls-3{fill:#be9151;}.cls-4{fill:#ffe0a2;}.cls-5{fill:#8bc764;}.cls-6{fill:#603612;}.cls-7{fill:none;}.cls-8{fill:#c76d36;}.cls-9{fill:#eea36b;}</style></defs><g id="Layer_4" data-name="Layer 4"><circle class="cls-1" cx="63.66" cy="87.71" r="62.29"/><path class="cls-2" d="M54,72.82a60,60,0,0,0,13.7,8.52C70.38,74.2,71.19,67.52,69.51,60c-1.44-6.52-2.53-12.8-1.45-19.48a70.41,70.41,0,0,1-5.68-6.91c-.89,3.47-2.27,6.79-3,10.32a115.61,115.61,0,0,0-1.46,11.73c-.52,4.84-3.36,10.64-9,10.2a11.15,11.15,0,0,0,.3,1.27C50,69.77,51.85,71.17,54,72.82Zm10.3-22.2a3.24,3.24,0,0,1,.26,2.08c0,.27-.52.21-.48-.07a4.77,4.77,0,0,0-.17-1.84C63.8,50.55,64.15,50.4,64.26,50.62Zm-.72,19c.17-.42.33-.83.54-1.23a.23.23,0,0,1,.42.17,10.89,10.89,0,0,1-.45,1.2C63.92,70.08,63.42,70,63.54,69.64ZM62.9,43.5c.11-.23.47-.07.4.17a4.41,4.41,0,0,0-.16,1.84c0,.29-.46.35-.51.07A3.39,3.39,0,0,1,62.9,43.5Zm-.24,17.85c.06-.24.47-.2.45.06a12.29,12.29,0,0,1-.19,1.5c-.07.37-.6.21-.55-.15A13.56,13.56,0,0,1,62.66,61.35Zm-2.11-8.11a.18.18,0,0,1,.33.14,6.24,6.24,0,0,0-.39,1.86c0,.3-.47.3-.46,0A4.38,4.38,0,0,1,60.55,53.24ZM56,68.14A13.4,13.4,0,0,1,57,66.73c.16-.19.46,0,.34.26a16.35,16.35,0,0,1-1,1.44C56.18,68.64,55.82,68.36,56,68.14Z"/><path class="cls-3" d="M130.23,79.33a76.1,76.1,0,0,1-13.56-7.52c-8.93-6.15-16.81-13.61-24.52-21.2-8-7.89-16.33-15.6-23.71-24.1a93.56,93.56,0,0,1-9.16-12.17,62,62,0,0,1-3.77-6.93c-1-2.27-1.68-4.8-3.15-6.82a.47.47,0,0,1,0-.1s0,0,0,.05C51.82,1,49.45,3,50,3.74s1.08,1.67,1.54,2.55a44.83,44.83,0,0,1,2.24,4.82c1.56,4,2.73,8.09,4.2,12.1a40.14,40.14,0,0,0,7,12.62c3.09,3.59,6.41,7,9.64,10.45,6.74,7.23,13.1,14.8,21.67,19.94l1.27.73.1.06c3.65,2.11,7.4,4.06,10.93,6.35a56.64,56.64,0,0,1,4.67,3.34,31.4,31.4,0,0,1,2.66,2,.83.83,0,0,1,.38-.36.3.3,0,0,1,.16,0,5.7,5.7,0,0,1,.68-1.32l.84-1.48a.27.27,0,0,1,.41-.06,2,2,0,0,1,.35.37,3.46,3.46,0,0,1,.8-1c.1-.07.27-.11.36,0a4.57,4.57,0,0,1,.82,1.56,1.55,1.55,0,0,1,.43-.63.26.26,0,0,1,.42.12,9.5,9.5,0,0,1,.2,3.24h0l.06-.06a.18.18,0,0,1,.25.25l0,.06a16.06,16.06,0,0,1,.34,5.08c1.7,1,3.22,2.35,4.94,3.35a58.29,58.29,0,0,0,5.66,2.93c4.15,1.83,8.45,3.19,12.68,4.81a.37.37,0,0,1,.2.19,16.27,16.27,0,0,0,1.28-12.52C141.3,83.79,135.47,81.53,130.23,79.33Z"/><path class="cls-2" d="M120.36,81.18a.28.28,0,0,1-.47-.12,25.12,25.12,0,0,0-.89-2.52l-1.18,1.37a.29.29,0,0,1-.4,0c-.3-.32-.6-.66-.93-1a2.82,2.82,0,0,0-.18.29l0,.06a.22.22,0,0,1-.24.33c0,.13-.1.25-.13.38s-.12.36-.19.54a.22.22,0,0,1,0,.18,18.75,18.75,0,0,1-5.76,9.74c-.23.2-.68.08-.65-.27a2.64,2.64,0,0,0,0-1,17.16,17.16,0,0,1-5.9,5.39h0a44,44,0,0,1-4.29,2.15,11.08,11.08,0,0,1-11.37-1.09,43.18,43.18,0,0,1-5.42-4.81l-.11.08c-.18.12-.41-.17-.24-.31l.06-.05a28.64,28.64,0,0,0-6.73-5.35A79.14,79.14,0,0,0,68,82.06a.33.33,0,0,1-.55-.22,42.48,42.48,0,0,1-6-2.87,49,49,0,0,1-6.14-4.25c-1.74-1.44-4-2.73-5.33-4.56-2.45-3.29-1.91-7.92-2-11.77A15.23,15.23,0,0,0,37.75,44.2a15.6,15.6,0,0,0-15.69,2.73.25.25,0,0,1-.42-.17,5.59,5.59,0,0,1,.61-2.27A55.61,55.61,0,0,0,17,48.72a.24.24,0,0,1-.4-.17c0-.49,0-1,0-1.48-4.93,5.23-8,12-6.7,19.39A22.55,22.55,0,0,0,14,76.35c1.81,2.37,4.16,4.37,5.38,7.13a.14.14,0,0,1-.15.2c.31,1.95-.52,3.79-1.36,5.59-1.2,2.56-2.64,5-3.83,7.57-2.8,6-3.41,12.36-4.1,18.82a2.53,2.53,0,0,0,.13-.22.24.24,0,0,1,.29-.1.23.23,0,0,1,.26.24,52.39,52.39,0,0,0,6.81,25.75,1.52,1.52,0,0,1,.65-.49.29.29,0,0,1,.33,0,11.54,11.54,0,0,0,1.46,1.58,3.27,3.27,0,0,0,1.36-1.24.13.13,0,0,1,.12-.19.43.43,0,0,0,0-.07.18.18,0,0,1,.31.19v0c.45.27.9.6,1.14.52,0,0,0-.09.05-.14a.15.15,0,0,1,.12-.09,1.46,1.46,0,0,0,0-.55c-.07-.49-.12-1-.15-1.51a35.61,35.61,0,0,1,0-5.06,38.43,38.43,0,0,1,1.85-9.31,39.14,39.14,0,0,1,4.65-9.39.19.19,0,0,1,.18-.28,29.41,29.41,0,0,1,4.94-5.56.29.29,0,0,1,.41.42,45.56,45.56,0,0,0-4.79,6A64.47,64.47,0,0,0,40.72,130.3c4.14,4.28,8.75,8.19,14.43,10.25A41.28,41.28,0,0,0,88,138c10.11-5.28,18.34-13.69,24.5-23.21a47.47,47.47,0,0,0,7-17c.59-3.11.9-6.25,1.4-9.37.44-2.76,1-5.59.48-8.37ZM16.55,116.75c-.06.24-.48.2-.45-.06a27.87,27.87,0,0,1,.55-3.14c.08-.34.56-.19.51.14A26.71,26.71,0,0,1,16.55,116.75Zm1.35,16.11c0,.08-.07.32-.09.49a.21.21,0,0,1,0,.35l0,0h0a.5.5,0,0,1-.13,0,.21.21,0,0,1-.19-.11c-.29-.42.06-1.21.23-1.62.11-.25.54-.07.44.19A3,3,0,0,0,17.9,132.86Zm1.19-34.7c-.18.11-.46-.07-.38-.29a8.57,8.57,0,0,1,.59-1,6.2,6.2,0,0,0,.45-1.1.22.22,0,0,1,.43.06A3,3,0,0,1,19.09,98.16Zm1.78,26.9a.2.2,0,0,1-.39-.06,21.89,21.89,0,0,1,.4-2.91.21.21,0,0,1,.4.06A22.15,22.15,0,0,1,20.87,125.06Zm1.51-18.17c-.13.29-.52.06-.48-.2a6.48,6.48,0,0,1,.5-1.73c.14-.31.55-.07.51.21A6.47,6.47,0,0,1,22.38,106.89Zm3.49-24.71a2.62,2.62,0,0,1-.27-2.1.28.28,0,0,1,.54.08A10.33,10.33,0,0,0,26.31,82,.24.24,0,0,1,25.87,82.18Zm2.53,28.45a.21.21,0,0,1-.38-.16,9,9,0,0,1,1-2.2c.11-.23.51-.06.42.18A9.57,9.57,0,0,1,28.4,110.63ZM31.09,91a1.72,1.72,0,0,1-.19-1.6c.07-.2.42-.18.4,0a3.07,3.07,0,0,0,.19,1.38C31.58,91,31.23,91.15,31.09,91Zm9.22-9.86a.22.22,0,0,1-.43,0,8.81,8.81,0,0,0-.5-2.54c-.1-.27.34-.46.46-.2A4.74,4.74,0,0,1,40.31,81.1Zm-5.7-8.83c-3.4,2-7.49,3-11.33,1.7-3.51-1.18-6.57-3.75-7.31-7.55-.06-.34-.12-.71-.18-1.09a.25.25,0,0,1-.1-.32s0-.07.05-.1c-.43-3.59-.09-8.19,2.51-10.65A9.82,9.82,0,0,1,27.13,52c3.15-6.44,12.65-8.4,16.2-1C47.05,58.69,41.47,68.26,34.61,72.27Zm9.67,32.94A3.88,3.88,0,0,1,42.76,103a.2.2,0,0,1,.38-.1A4.59,4.59,0,0,0,44.48,105C44.62,105.07,44.44,105.32,44.28,105.21Zm2.64-31.73a2.14,2.14,0,0,1-1.37-1.32A.25.25,0,0,1,46,72a2.46,2.46,0,0,0,1.08,1.13C47.29,73.2,47.14,73.56,46.92,73.48Zm3.47,18.91a7.66,7.66,0,0,1-1-.93.22.22,0,0,1,.31-.31,9.45,9.45,0,0,1,.93,1A.19.19,0,0,1,50.39,92.39Zm3.33,33.4c-.46-.68-.83-1.4-1.22-2.12a.21.21,0,0,1,.37-.21c.42.7.85,1.39,1.2,2.12A.2.2,0,0,1,53.72,125.79ZM54.6,85a8,8,0,0,0-.93-1.85c-.15-.2.19-.46.34-.26a4.82,4.82,0,0,1,1,2A.21.21,0,0,1,54.6,85Zm4.62,19.09a4.45,4.45,0,0,1-.78-.72.23.23,0,0,1,.32-.32,4.36,4.36,0,0,1,.71.78A.19.19,0,0,1,59.22,104.05ZM68,112.33a10.55,10.55,0,0,1-1.25-1c-.19-.16.07-.5.27-.35a10.51,10.51,0,0,1,1.2,1C68.38,112.19,68.19,112.45,68,112.33Zm2.83-15.7c-.36-.47-.7-.93-1-1.43-.16-.27.24-.5.42-.25.33.48.61,1,.89,1.46C71.22,96.59,71,96.8,70.84,96.63ZM74.14,129a2.15,2.15,0,0,1-2.56,0c-.25-.18,0-.61.24-.42a1.93,1.93,0,0,0,2.14.17A.17.17,0,0,1,74.14,129Zm10.62-13.5a3.32,3.32,0,0,1-2-.17c-.32-.13-.19-.65.15-.52a4.37,4.37,0,0,0,1.83.24A.23.23,0,0,1,84.76,115.48Zm7.29-10a7.36,7.36,0,0,1-1.47-.29c-.2-.07-.18-.41,0-.39a7.21,7.21,0,0,1,1.47.28C92.32,105.19,92.29,105.55,92.05,105.53Zm9.32,8.77a5.32,5.32,0,0,1-1.18.27c-.29.05-.42-.37-.13-.45a6.73,6.73,0,0,1,1.25-.24C101.57,113.86,101.58,114.22,101.37,114.3Zm2-8.28c-.29-.06-.23-.56.07-.52a.88.88,0,0,0,1-.55c.1-.23.47-.06.41.18A1.21,1.21,0,0,1,103.38,106Zm5.69-9.09A10.85,10.85,0,0,1,108,98c-.25.2-.6-.13-.36-.36a12.86,12.86,0,0,1,1.22-1C109,96.47,109.22,96.77,109.07,96.93Zm4.25,2.77c-.13.25-.28.49-.43.74s-.61,0-.43-.25.36-.5.55-.73S113.42,99.51,113.32,99.7Zm1.49-7.79c-.16.29-.57,0-.43-.26a9.37,9.37,0,0,1,.52-.92c.11-.19.45-.06.36.16A10.2,10.2,0,0,1,114.81,91.91Zm3.85-5.19a.27.27,0,0,1-.46-.27,2.3,2.3,0,0,1,.32-.49c.15-.18.44,0,.38.22A3.7,3.7,0,0,1,118.66,86.72Z"/><path class="cls-4" d="M116.66,78.37a3.43,3.43,0,0,1,1,.9l1.26-1.5a.29.29,0,0,1,.46.06,21.05,21.05,0,0,1,1,2.66l.94-.87s0,0,0-.05c-.09-1-.06-2-.14-3a1,1,0,0,0-.11.21.19.19,0,0,1-.21.12,3,3,0,0,1,0,.42.22.22,0,0,1-.43,0,10.59,10.59,0,0,0-.74-1.92,3.26,3.26,0,0,0-.71.77l0,0a.21.21,0,0,1-.35.15,2.89,2.89,0,0,1-.29-.32l-.74,1.15A6.56,6.56,0,0,1,116.66,78.37Z"/><path class="cls-5" d="M67.11,7.75a.25.25,0,0,1,.43.26,43.89,43.89,0,0,0-3.36,8.08c4.65-1.61,7.4-8.21,5.86-12.76a11.87,11.87,0,0,0-6.08,12A23.91,23.91,0,0,1,67.11,7.75Z"/><path class="cls-5" d="M48,14.53c1.64,2.08,3.27,4.16,4.93,6.22.45-.67-.7-3.21-1-3.63a10.67,10.67,0,0,0-1.67-2.22A8.57,8.57,0,0,0,48,13.15c-.9-.42-3.24-1.22-2.7.75s1.2,4,3,5.13a12,12,0,0,0,4.17,1.86c-1.65-2-3.25-4-4.75-6.15C47.56,14.58,47.82,14.38,48,14.53Z"/><path class="cls-2" d="M89.76,80.78c-1.63,3.72-3.59,7.32-6.92,9.74,3.63,3.62,8,7.81,13.29,6.51a24.67,24.67,0,0,0,7-2.92c.22-4.42-.15-8.74-.2-13.15,0-3.1.38-6.32,2.81-8.51l-1.09-.64c-2.38-1.36-4.8-2.66-7.18-4A25.75,25.75,0,0,0,92.8,74C91.68,76.19,90.76,78.5,89.76,80.78Zm1.76,6.6a11,11,0,0,1-.69,1.2c-.17.26-.59,0-.43-.25a10.05,10.05,0,0,1,.74-1.17A.22.22,0,0,1,91.52,87.38ZM100,75c.18-.17.49.06.35.27a1,1,0,0,0-.13.77.28.28,0,0,1-.53.15A1.13,1.13,0,0,1,100,75ZM98.26,88.5a.58.58,0,0,0,.17-.51c0-.3.4-.31.49-.07a.82.82,0,0,1-.26,1C98.38,89.13,98,88.75,98.26,88.5Zm-2-5.68a3.17,3.17,0,0,0-.14,1.53c0,.36-.49.52-.56.15a2.83,2.83,0,0,1,.31-1.85C96,82.44,96.37,82.59,96.28,82.82ZM95.5,76.4c.22-.15.43.17.27.36a1.45,1.45,0,0,0-.36,1c0,.36-.51.35-.55,0A1.43,1.43,0,0,1,95.5,76.4Z"/><path class="cls-4" d="M21.62,141.45c-.31.78-.66,1.82-1.58,1.71-.3,0-1.75-1.69-2.1-1.31,0,0,0,0,0,0,.35.76.67,1.53,1.09,2.25.09.16,1,1.54,1.3,2a2.82,2.82,0,0,1-.07-.31c0-.21.29-.23.35-.05a3.53,3.53,0,0,0,1,1.63,3.79,3.79,0,0,1,.35-1,3.45,3.45,0,0,1-.39-.82c-.08-.26.29-.34.39-.11a3,3,0,0,0,.43.74v0a2.73,2.73,0,0,0,.34.34,9,9,0,0,1,0-4.4Z"/><path class="cls-2" d="M20.7,71.86l0,0c.24-.68-1,.18-.17-1.34.52-.9,1.06-1.81,1.66-2.66,1.08-1.54,2.29-2.9,3.48-4.34a6.6,6.6,0,0,0,1.46-2.35c-.22-2.1-1.17-3.13-2.83-3.09a7.53,7.53,0,0,0-4.15,1.95,18.38,18.38,0,0,0-3.72,4.57,10.11,10.11,0,0,0,1,3.65,9.82,9.82,0,0,0,2.92,3.37A.23.23,0,0,1,20.7,71.86Zm1.64-10.62c.82-.7,2.36-1.12,3.16-.16.21.25,0,.71-.34.59a2.07,2.07,0,0,0-2.35.29,3.24,3.24,0,0,0-.59,2.53.22.22,0,0,1-.41.11A2.84,2.84,0,0,1,22.34,61.24Z"/><path class="cls-5" d="M42.86,26.17c-1.09.42-2.7.66-1.16,1.93a8.05,8.05,0,0,0,7,1.43c1.85-.47,4.36-1.34,4.92-3.38a12.6,12.6,0,0,1-7.77.51c-.39-.09-.22-.65.16-.59a18.86,18.86,0,0,0,6.71-.29,11.51,11.51,0,0,0-6.52-.55A21,21,0,0,0,42.86,26.17Z"/><path class="cls-6" d="M43.33,51c-3.55-7.38-13-5.42-16.2,1a9.82,9.82,0,0,0-8.88,2.29c-2.6,2.46-2.94,7.06-2.51,10.65,0,0,0,.07-.05.1a.25.25,0,0,0,.1.32c.06.38.12.75.18,1.09.74,3.8,3.8,6.37,7.31,7.55,3.84,1.3,7.93.29,11.33-1.7C41.47,68.26,47.05,58.69,43.33,51ZM17.47,68.27a10.11,10.11,0,0,1-1-3.65,18.38,18.38,0,0,1,3.72-4.57,7.53,7.53,0,0,1,4.15-1.95c1.66,0,2.61,1,2.83,3.09a6.6,6.6,0,0,1-1.46,2.35c-1.19,1.44-2.4,2.8-3.48,4.34-.6.85-1.14,1.76-1.66,2.66-.87,1.52.41.66.17,1.34l0,0a.23.23,0,0,0-.31-.22A9.82,9.82,0,0,1,17.47,68.27Zm17.32,2.9c-4.1,2.87-9.88,3.41-13.94.8,1.13-3,3.3-5.53,5.39-7.88,1.2-1.35,2.77-3.89,1.06-5.5-3.89-3.68-8.75,1.31-10.92,5.07a16.54,16.54,0,0,1,1.31-7.17c1.55-3.42,5.76-4.41,9.21-4l0,0c-.17.41.55.71.72.31l.12-.24a.25.25,0,0,0,.2-.4,9.55,9.55,0,0,1,6.63-5.12,7,7,0,0,1,6.92,2.79c-3.9.06-10,1.4-10.16,6.08A2.56,2.56,0,0,0,34,58.38c3.54.08,6.06-2.46,9.46-2.64.44,0,.44-.71,0-.69-2.72.1-9.74,5.25-11.33,1.34-1.12-2.74,3.43-4.73,5.25-5.29a25.42,25.42,0,0,1,4.49-.78,10.07,10.07,0,0,1,1.23,2.19C45.88,59.4,40.2,67.38,34.79,71.17Z"/><path class="cls-6" d="M33.28,60.74a1.19,1.19,0,0,0-.75-.48c-.73-.53-2,.05-2.42.7a1.36,1.36,0,0,0-.22.63,1.2,1.2,0,0,0,1.31,1.85,2.63,2.63,0,0,0,1.16-.7C33.17,62.36,33.89,61.6,33.28,60.74Z"/><path class="cls-6" d="M35,63.63a3,3,0,0,1-2.54,2.29c-.2,0-.3.35,0,.39a2.73,2.73,0,0,0,3.13-2.61A.28.28,0,0,0,35,63.63Z"/><path class="cls-6" d="M22.22,64.49A3.24,3.24,0,0,1,22.81,62a2.07,2.07,0,0,1,2.35-.29c.36.12.55-.34.34-.59-.8-1-2.34-.54-3.16.16a2.84,2.84,0,0,0-.53,3.36A.22.22,0,0,0,22.22,64.49Z"/><path class="cls-6" d="M36,54c-.87.29-2.06,1.61-1,2.43.17.13.48,0,.4-.24-.46-1.37,1.7-1.94,2.52-1.11a.31.31,0,0,0,.52-.3C38.31,53.65,36.84,53.73,36,54Z"/><path class="cls-6" d="M147,82.76c-6,0-11.84-2.23-17.22-4.61a82.37,82.37,0,0,1-13.94-8.08C107,63.89,99.32,56.3,91.72,48.75s-15.43-15-22.48-23a95.45,95.45,0,0,1-9.41-12.61,65.48,65.48,0,0,1-3.71-7c-1-2.07-1.57-4.33-3.13-6a.42.42,0,0,0-.66.14.25.25,0,0,0-.42-.09c-1,1-1.95,1.93-2.92,2.9a.35.35,0,0,0-.05.42c4.71,6.87,6.3,15.11,9.37,22.73A35.82,35.82,0,0,0,62,33.06a.23.23,0,0,0-.11.09c-2.64,4.64-3.68,10.77-4.34,16-.71,5.58-.37,16.68-8.71,16.22a36.16,36.16,0,0,1-.22-6.15,15,15,0,0,0-5-12,17.52,17.52,0,0,0-10.92-4.64,15.92,15.92,0,0,0-6.61,1.15,14.94,14.94,0,0,0-2.67,1.44c-1.16.75-1.64,1.79-1.09-.78l0,0c.2-.15,0-.46-.19-.33a24,24,0,0,0-5.15,4c0-.45,0-.89-.08-1.33l.27-.27c.22-.22-.11-.53-.34-.34-5.34,4.33-8,11.37-7.81,18.13A22.93,22.93,0,0,0,11.86,74c1.78,3.46,4.77,6.06,7,9.18.72,3.15-1.7,6.59-3.14,9.25a67.88,67.88,0,0,0-3.48,7c-2.22,5.48-2.72,11.88-3.11,17.73a.33.33,0,0,0,.61.17c.14-.26.25-.53.38-.79a47.88,47.88,0,0,0,7.14,25.7.3.3,0,0,0,.35.13A16,16,0,0,0,19,145.25c.33.57.79,1.72,1.61,1.6a3.56,3.56,0,0,0,1,1.23c.14.11.34,0,.39-.16.1-.31.26-.68.35-1a4.73,4.73,0,0,0,.71.61c.24.17.53-.1.47-.36a16,16,0,0,1-.25-4.66l0,0c.14.08.38,0,.36-.21a37.65,37.65,0,0,1,6.15-25.72,67.71,67.71,0,0,0,10.43,14.14c4,4.26,8.5,8.12,14,10.3,10.91,4.37,23.12,3.08,33.56-2,10.66-5.14,19.06-14.12,25.54-23.85a47.57,47.57,0,0,0,7.34-18.15c.61-3.31.9-6.67,1.36-10q.15-1.08.24-2.16c2.63,2.9,6.86,4.85,10.29,6.47a89.26,89.26,0,0,0,12.86,4.83.29.29,0,0,0,.33-.1.15.15,0,0,0,.2,0,13.51,13.51,0,0,0,1.54-13.41C147.38,82.4,147,82.53,147,82.76ZM57.89,55.62a115.61,115.61,0,0,1,1.46-11.73c.76-3.53,2.14-6.85,3-10.32a70.41,70.41,0,0,0,5.68,6.91c-1.08,6.68,0,13,1.45,19.48,1.68,7.56.87,14.24-1.85,21.38A60,60,0,0,1,54,72.82c-2.11-1.65-4-3-4.73-5.73a11.15,11.15,0,0,1-.3-1.27C54.53,66.26,57.37,60.46,57.89,55.62Zm46.77,16.19,1.09.64c-2.43,2.19-2.85,5.41-2.81,8.51,0,4.41.42,8.73.2,13.15a24.67,24.67,0,0,1-7,2.92c-5.26,1.3-9.66-2.89-13.29-6.51,3.33-2.42,5.29-6,6.92-9.74,1-2.28,1.92-4.59,3-6.81a25.75,25.75,0,0,1,4.68-6.19C99.86,69.15,102.28,70.45,104.66,71.81Zm10.51,9.09a19.53,19.53,0,0,1-5,8.42,4.14,4.14,0,0,0-.33-1.14.38.38,0,0,0-.66,0,17,17,0,0,1-5.5,5.59,52.48,52.48,0,0,0,.38-9.21c-.2-4.17-.78-8.28,2.09-11.74a.93.93,0,0,0,0-.1c1.39.82,2.76,1.66,4.09,2.56,1.08.73,2.11,1.53,3.13,2.34a21.72,21.72,0,0,1,2.28,1.61C115.51,79.78,115.34,80.34,115.17,80.9ZM90,77.75C88.14,82.3,86.38,87,82.54,90.22c-.56-.55-1.1-1.09-1.62-1.59-3.48-3.33-7.39-5-11.84-6.7l-.82-.34A32.42,32.42,0,0,0,71,63.2c-.53-3.48-1.54-6.88-2.15-10.35a46.11,46.11,0,0,1-.32-11.91c1.61,1.75,3.27,3.48,4.9,5.24C79.54,52.83,85.42,60,93,65.05c1.2.8,2.43,1.54,3.68,2.27C93.3,69.68,91.5,74.09,90,77.75ZM22.75,146.52a2.73,2.73,0,0,1-.34-.34v0a3,3,0,0,1-.43-.74c-.1-.23-.47-.15-.39.11a3.45,3.45,0,0,0,.39.82,3.79,3.79,0,0,0-.35,1,3.53,3.53,0,0,1-1-1.63c-.06-.18-.37-.16-.35.05a2.82,2.82,0,0,0,.07.31c-.3-.44-1.21-1.82-1.3-2-.42-.72-.74-1.49-1.09-2.25,0,0,0,0,0,0,.35-.38,1.8,1.27,2.1,1.31.92.11,1.27-.93,1.58-1.71l1.1.67A9,9,0,0,0,22.75,146.52ZM121,88.35c-.5,3.12-.81,6.26-1.4,9.37a47.47,47.47,0,0,1-7,17C106.37,124.27,98.14,132.68,88,138a41.28,41.28,0,0,1-32.88,2.59c-5.68-2.06-10.29-6-14.43-10.25a64.47,64.47,0,0,1-10.61-14.09,45.56,45.56,0,0,1,4.79-6,.29.29,0,0,0-.41-.42,29.41,29.41,0,0,0-4.94,5.56.19.19,0,0,0-.18.28,39.14,39.14,0,0,0-4.65,9.39,38.43,38.43,0,0,0-1.85,9.31,35.61,35.61,0,0,0,0,5.06c0,.5.08,1,.15,1.51a1.46,1.46,0,0,1,0,.55.15.15,0,0,0-.12.09c0,.05,0,.1-.05.14-.24.08-.69-.25-1.14-.52v0a.18.18,0,0,0-.31-.19.43.43,0,0,1,0,.07.13.13,0,0,0-.12.19,3.27,3.27,0,0,1-1.36,1.24,11.54,11.54,0,0,1-1.46-1.58.29.29,0,0,0-.33,0,1.52,1.52,0,0,0-.65.49,52.39,52.39,0,0,1-6.81-25.75.23.23,0,0,0-.26-.24.24.24,0,0,0-.29.1,2.53,2.53,0,0,1-.13.22c.69-6.46,1.3-12.83,4.1-18.82,1.19-2.56,2.63-5,3.83-7.57.84-1.8,1.67-3.64,1.36-5.59a.14.14,0,0,0,.15-.2c-1.22-2.76-3.57-4.76-5.38-7.13A22.55,22.55,0,0,1,10,66.46c-1.26-7.35,1.77-14.16,6.7-19.39,0,.49,0,1,0,1.48a.24.24,0,0,0,.4.17,55.61,55.61,0,0,1,5.21-4.23,5.59,5.59,0,0,0-.61,2.27.25.25,0,0,0,.42.17A15.6,15.6,0,0,1,37.75,44.2,15.23,15.23,0,0,1,48,58.39c.05,3.85-.49,8.48,2,11.77,1.35,1.83,3.59,3.12,5.33,4.56A49,49,0,0,0,61.47,79a42.48,42.48,0,0,0,6,2.87.33.33,0,0,0,.55.22,79.14,79.14,0,0,1,7.34,3.16,28.64,28.64,0,0,1,6.73,5.35l-.06.05c-.17.14.06.43.24.31l.11-.08a43.18,43.18,0,0,0,5.42,4.81,11.08,11.08,0,0,0,11.37,1.09,44,44,0,0,0,4.29-2.15h0a17.16,17.16,0,0,0,5.9-5.39,2.64,2.64,0,0,1,0,1c0,.35.42.47.65.27a18.75,18.75,0,0,0,5.76-9.74.22.22,0,0,0,0-.18c.07-.18.13-.36.19-.54s.09-.25.13-.38a.22.22,0,0,0,.24-.33l0-.06a2.82,2.82,0,0,1,.18-.29c.33.29.63.63.93,1a.29.29,0,0,0,.4,0L119,78.54a25.12,25.12,0,0,1,.89,2.52.28.28,0,0,0,.47.12l1.1-1.2C122,82.76,121.42,85.59,121,88.35ZM118.2,76.07a2.89,2.89,0,0,0,.29.32.21.21,0,0,0,.35-.15l0,0a3.26,3.26,0,0,1,.71-.77,10.59,10.59,0,0,1,.74,1.92.22.22,0,0,0,.43,0,3,3,0,0,0,0-.42.19.19,0,0,0,.21-.12,1,1,0,0,1,.11-.21c.08,1,.05,2,.14,3,0,0,0,0,0,.05l-.94.87a21.05,21.05,0,0,0-1-2.66.29.29,0,0,0-.46-.06l-1.26,1.5a3.43,3.43,0,0,0-1-.9,6.56,6.56,0,0,0,.8-1.15Zm27.6,19.71a.37.37,0,0,0-.2-.19c-4.23-1.62-8.53-3-12.68-4.81a58.29,58.29,0,0,1-5.66-2.93c-1.72-1-3.24-2.34-4.94-3.35a16.06,16.06,0,0,0-.34-5.08l0-.06a.18.18,0,0,0-.25-.25l-.06.06h0a9.5,9.5,0,0,0-.2-3.24.26.26,0,0,0-.42-.12,1.55,1.55,0,0,0-.43.63,4.57,4.57,0,0,0-.82-1.56c-.09-.11-.26-.07-.36,0a3.46,3.46,0,0,0-.8,1,2,2,0,0,0-.35-.37.27.27,0,0,0-.41.06L117.09,77a5.7,5.7,0,0,0-.68,1.32.3.3,0,0,0-.16,0,.83.83,0,0,0-.38.36,31.4,31.4,0,0,0-2.66-2,56.64,56.64,0,0,0-4.67-3.34C105,71.07,101.26,69.12,97.61,67l-.1-.06-1.27-.73c-8.57-5.14-14.93-12.71-21.67-19.94-3.23-3.46-6.55-6.86-9.64-10.45a40.14,40.14,0,0,1-7-12.62c-1.47-4-2.64-8.13-4.2-12.1a44.83,44.83,0,0,0-2.24-4.82c-.46-.88-1-1.72-1.54-2.55S51.82,1,52.28.54c0,0,0,0,0-.05a.47.47,0,0,0,0,.1c1.47,2,2.12,4.55,3.15,6.82a62,62,0,0,0,3.77,6.93,93.56,93.56,0,0,0,9.16,12.17c7.38,8.5,15.7,16.21,23.71,24.1,7.71,7.59,15.59,15,24.52,21.2a76.1,76.1,0,0,0,13.56,7.52c5.24,2.2,11.07,4.46,16.85,3.93A16.27,16.27,0,0,1,145.8,95.78Z"/><path class="cls-6" d="M64,16.91c5.67-1.2,8.72-9.33,6.58-14.34a.39.39,0,0,0-.53-.14,12.28,12.28,0,0,0-6.39,13.88A.36.36,0,0,0,64,16.91ZM70,3.33c1.54,4.55-1.21,11.15-5.86,12.76A43.89,43.89,0,0,1,67.54,8a.25.25,0,0,0-.43-.26A23.91,23.91,0,0,0,64,15.29,11.87,11.87,0,0,1,70,3.33Z"/><path class="cls-6" d="M40.19,26.5a.37.37,0,0,0-.13.5c1.47,3,4.87,3.66,7.93,3.35,2.52-.26,6-1.71,6.32-4.52,0-.31-.4-.42-.58-.23h0C49.31,23.24,44.52,24.56,40.19,26.5Zm12.49-.72a18.86,18.86,0,0,1-6.71.29c-.38-.06-.55.5-.16.59a12.6,12.6,0,0,0,7.77-.51c-.56,2-3.07,2.91-4.92,3.38a8.05,8.05,0,0,1-7-1.43c-1.54-1.27.07-1.51,1.16-1.93a21,21,0,0,1,3.3-.94A11.51,11.51,0,0,1,52.68,25.78Z"/><path class="cls-6" d="M51.83,15.85c-1.54-2.28-4.15-4.21-7-3.84a.31.31,0,0,0-.3.3c-.26,2,.95,4.61,2.2,6.18a9.17,9.17,0,0,0,6.08,2.87l.18.23c.19.23.49-.09.32-.31a.19.19,0,0,0,0-.18C54.31,20,52.35,16.63,51.83,15.85ZM48.25,19c-1.76-1.15-2.43-3.22-3-5.13s1.8-1.17,2.7-.75a8.57,8.57,0,0,1,2.27,1.75,10.67,10.67,0,0,1,1.67,2.22c.25.42,1.4,3,1,3.63-1.66-2.06-3.29-4.14-4.93-6.22-.13-.15-.39.05-.28.21,1.5,2.12,3.1,4.15,4.75,6.15A12,12,0,0,1,48.25,19Z"/><path class="cls-6" d="M19.75,95.76a6.2,6.2,0,0,1-.45,1.1,8.57,8.57,0,0,0-.59,1c-.08.22.2.4.38.29a3,3,0,0,0,1.09-2.34A.22.22,0,0,0,19.75,95.76Z"/><path class="cls-6" d="M22.4,105a6.48,6.48,0,0,0-.5,1.73c0,.26.35.49.48.2a6.47,6.47,0,0,0,.53-1.72C23,104.89,22.54,104.65,22.4,105Z"/><path class="cls-6" d="M16.65,113.55a27.87,27.87,0,0,0-.55,3.14c0,.26.39.3.45.06a26.71,26.71,0,0,0,.61-3.06C17.21,113.36,16.73,113.21,16.65,113.55Z"/><path class="cls-6" d="M20.88,122.09a21.89,21.89,0,0,0-.4,2.91.2.2,0,0,0,.39.06,22.15,22.15,0,0,0,.41-2.91A.21.21,0,0,0,20.88,122.09Z"/><path class="cls-6" d="M17.65,132c-.17.41-.52,1.2-.23,1.62a.21.21,0,0,0,.19.11.5.5,0,0,0,.13,0h0l0,0a.21.21,0,0,0,0-.35c0-.17.08-.41.09-.49a3,3,0,0,1,.19-.65C18.19,132,17.76,131.77,17.65,132Z"/><path class="cls-6" d="M29,108.27a9,9,0,0,0-1,2.2.21.21,0,0,0,.38.16,9.57,9.57,0,0,0,1-2.18C29.49,108.21,29.09,108,29,108.27Z"/><path class="cls-6" d="M25.6,80.08a2.62,2.62,0,0,0,.27,2.1.24.24,0,0,0,.44-.18,10.33,10.33,0,0,1-.17-1.84A.28.28,0,0,0,25.6,80.08Z"/><path class="cls-6" d="M31.3,89.41c0-.23-.33-.25-.4,0a1.72,1.72,0,0,0,.19,1.6c.14.19.49.08.4-.17A3.07,3.07,0,0,1,31.3,89.41Z"/><path class="cls-6" d="M39.38,78.56a8.81,8.81,0,0,1,.5,2.54.22.22,0,0,0,.43,0,4.74,4.74,0,0,0-.47-2.74C39.72,78.1,39.28,78.29,39.38,78.56Z"/><path class="cls-6" d="M46,72a.25.25,0,0,0-.45.2,2.14,2.14,0,0,0,1.37,1.32c.22.08.37-.28.16-.39A2.46,2.46,0,0,1,46,72Z"/><path class="cls-6" d="M53.67,83.11A8,8,0,0,1,54.6,85a.21.21,0,0,0,.4-.11,4.82,4.82,0,0,0-1-2C53.86,82.65,53.52,82.91,53.67,83.11Z"/><path class="cls-6" d="M49.74,91.15a.22.22,0,0,0-.31.31,7.66,7.66,0,0,0,1,.93.19.19,0,0,0,.28-.27A9.45,9.45,0,0,0,49.74,91.15Z"/><path class="cls-6" d="M43.14,102.88a.2.2,0,0,0-.38.1,3.88,3.88,0,0,0,1.52,2.23c.16.11.34-.14.2-.26A4.59,4.59,0,0,1,43.14,102.88Z"/><path class="cls-6" d="M58.76,103a.23.23,0,0,0-.32.32,4.45,4.45,0,0,0,.78.72.19.19,0,0,0,.25-.26A4.36,4.36,0,0,0,58.76,103Z"/><path class="cls-6" d="M70.24,95c-.18-.25-.58,0-.42.25.32.5.66,1,1,1.43.13.17.38,0,.29-.22C70.85,95.91,70.57,95.43,70.24,95Z"/><path class="cls-6" d="M67,111c-.2-.15-.46.19-.27.35a10.55,10.55,0,0,0,1.25,1c.18.12.37-.14.22-.29A10.51,10.51,0,0,0,67,111Z"/><path class="cls-6" d="M52.87,123.46a.21.21,0,0,0-.37.21c.39.72.76,1.44,1.22,2.12a.2.2,0,0,0,.35-.21C53.72,124.85,53.29,124.16,52.87,123.46Z"/><path class="cls-6" d="M74,128.69a1.93,1.93,0,0,1-2.14-.17c-.25-.19-.49.24-.24.42a2.15,2.15,0,0,0,2.56,0A.17.17,0,0,0,74,128.69Z"/><path class="cls-6" d="M84.7,115a4.37,4.37,0,0,1-1.83-.24c-.34-.13-.47.39-.15.52a3.32,3.32,0,0,0,2,.17A.23.23,0,0,0,84.7,115Z"/><path class="cls-6" d="M92.1,105.13a7.21,7.21,0,0,0-1.47-.28c-.23,0-.25.32,0,.39a7.36,7.36,0,0,0,1.47.29C92.29,105.55,92.32,105.19,92.1,105.13Z"/><path class="cls-6" d="M101.31,113.88a6.73,6.73,0,0,0-1.25.24c-.29.08-.16.5.13.45a5.32,5.32,0,0,0,1.18-.27C101.58,114.22,101.57,113.86,101.31,113.88Z"/><path class="cls-6" d="M104.43,105a.88.88,0,0,1-1,.55c-.3,0-.36.46-.07.52a1.21,1.21,0,0,0,1.46-.89C104.9,104.89,104.53,104.72,104.43,105Z"/><path class="cls-6" d="M108.81,96.61a12.86,12.86,0,0,0-1.22,1c-.24.23.11.56.36.36a10.85,10.85,0,0,0,1.12-1C109.22,96.77,109,96.47,108.81,96.61Z"/><path class="cls-6" d="M113,99.46c-.19.23-.37.48-.55.73s.26.52.43.25.3-.49.43-.74S113.15,99.27,113,99.46Z"/><path class="cls-6" d="M114.9,90.73a9.37,9.37,0,0,0-.52.92c-.14.29.27.55.43.26a10.2,10.2,0,0,0,.45-1C115.35,90.67,115,90.54,114.9,90.73Z"/><path class="cls-6" d="M118.52,86a2.3,2.3,0,0,0-.32.49.27.27,0,0,0,.46.27,3.7,3.7,0,0,0,.24-.54C119,86,118.67,85.78,118.52,86Z"/><path class="cls-6" d="M91.14,87.16a10.05,10.05,0,0,0-.74,1.17c-.16.28.26.51.43.25a11,11,0,0,0,.69-1.2A.22.22,0,0,0,91.14,87.16Z"/><path class="cls-6" d="M98.66,88.9a.82.82,0,0,0,.26-1c-.09-.24-.52-.23-.49.07a.58.58,0,0,1-.17.51C98,88.75,98.38,89.13,98.66,88.9Z"/><path class="cls-6" d="M95.58,84.5c.07.37.61.21.56-.15a3.17,3.17,0,0,1,.14-1.53c.09-.23-.28-.38-.39-.17A2.83,2.83,0,0,0,95.58,84.5Z"/><path class="cls-6" d="M95.41,77.78a1.45,1.45,0,0,1,.36-1c.16-.19,0-.51-.27-.36a1.43,1.43,0,0,0-.64,1.38C94.9,78.13,95.43,78.14,95.41,77.78Z"/><path class="cls-6" d="M100.17,76a1,1,0,0,1,.13-.77c.14-.21-.17-.44-.35-.27a1.13,1.13,0,0,0-.31,1.19A.28.28,0,0,0,100.17,76Z"/><path class="cls-6" d="M56.35,68.43a16.35,16.35,0,0,0,1-1.44c.12-.21-.18-.45-.34-.26A13.4,13.4,0,0,0,56,68.14C55.82,68.36,56.18,68.64,56.35,68.43Z"/><path class="cls-6" d="M64.05,69.78a10.89,10.89,0,0,0,.45-1.2.23.23,0,0,0-.42-.17c-.21.4-.37.81-.54,1.23S63.92,70.08,64.05,69.78Z"/><path class="cls-6" d="M62.92,62.91a12.29,12.29,0,0,0,.19-1.5c0-.26-.39-.3-.45-.06a13.56,13.56,0,0,0-.29,1.41C62.32,63.12,62.85,63.28,62.92,62.91Z"/><path class="cls-6" d="M60.49,55.24a6.24,6.24,0,0,1,.39-1.86.18.18,0,0,0-.33-.14,4.38,4.38,0,0,0-.52,2C60,55.54,60.47,55.54,60.49,55.24Z"/><path class="cls-6" d="M64,52.63c0,.28.43.34.48.07a3.24,3.24,0,0,0-.26-2.08c-.11-.22-.46-.07-.39.17A4.77,4.77,0,0,1,64,52.63Z"/><path class="cls-6" d="M63.14,45.51a4.41,4.41,0,0,1,.16-1.84c.07-.24-.29-.4-.4-.17a3.39,3.39,0,0,0-.27,2.08C62.68,45.86,63.17,45.8,63.14,45.51Z"/><path class="cls-7" d="M36,54c-.87.29-2.06,1.61-1,2.43.17.13.48,0,.4-.24-.46-1.37,1.7-1.94,2.52-1.11a.31.31,0,0,0,.52-.3C38.31,53.65,36.84,53.73,36,54Z"/><path class="cls-7" d="M33.28,60.74a1.19,1.19,0,0,0-.75-.48c-.73-.53-2,.05-2.42.7a1.36,1.36,0,0,0-.22.63,1.2,1.2,0,0,0,1.31,1.85,2.63,2.63,0,0,0,1.16-.7C33.17,62.36,33.89,61.6,33.28,60.74Z"/><path class="cls-7" d="M35,63.63a3,3,0,0,1-2.54,2.29c-.2,0-.3.35,0,.39a2.73,2.73,0,0,0,3.13-2.61A.28.28,0,0,0,35,63.63Z"/><path class="cls-4" d="M43.74,55.37a.35.35,0,0,1-.33.37c-3.4.18-5.92,2.72-9.46,2.64a2.56,2.56,0,0,1-2.64-2.44c.14-4.68,6.26-6,10.16-6.08a7,7,0,0,0-6.92-2.79,9.55,9.55,0,0,0-6.63,5.12.25.25,0,0,1-.2.4l-.12.24c-.17.4-.89.1-.72-.31l0,0c-3.45-.4-7.66.59-9.21,4a16.54,16.54,0,0,0-1.31,7.17c2.17-3.76,7-8.75,10.92-5.07,1.71,1.61.14,4.15-1.06,5.5C24.15,66.44,22,69,20.85,72c4.06,2.61,9.84,2.07,13.94-.8,4.68-3.27,9.54-9.68,9-15.8ZM29.89,61.59a1.36,1.36,0,0,1,.22-.63c.47-.65,1.69-1.23,2.42-.7a1.19,1.19,0,0,1,.75.48c.61.86-.11,1.62-.92,2a2.63,2.63,0,0,1-1.16.7A1.2,1.2,0,0,1,29.89,61.59Zm2.56,4.72c-.25,0-.15-.37,0-.39A3,3,0,0,0,35,63.63a.28.28,0,0,1,.54.07A2.73,2.73,0,0,1,32.45,66.31Z"/><path class="cls-2" d="M43.05,52.51a10.07,10.07,0,0,0-1.23-2.19,25.42,25.42,0,0,0-4.49.78c-1.82.56-6.37,2.55-5.25,5.29,1.59,3.91,8.61-1.24,11.33-1.34a.31.31,0,0,1,.33.32h0A9.79,9.79,0,0,0,43.05,52.51ZM38,55.08c-.82-.83-3-.26-2.52,1.11.08.25-.23.37-.4.24-1.05-.82.14-2.14,1-2.43s2.27-.35,2.43.78A.31.31,0,0,1,38,55.08Z"/><path class="cls-8" d="M112.53,114.75a47.47,47.47,0,0,0,7-17c.59-3.11.9-6.25,1.4-9.37.44-2.76,1-5.59.48-8.37l-1.1,1.2a.28.28,0,0,1-.47-.12c-.21-.72-.46-1.42-.74-2.12-1.37,7-2.31,14.08-6.58,20-3.62,5.06-6.65,10.81-11.24,14.91.23,0,.24.33,0,.41a4.47,4.47,0,0,1-.78.2,20.17,20.17,0,0,1-6.68,3.71c.89.88,2.5,1.09,3,2.09-9.69,3-26.85,8-36.14,1.3a29.8,29.8,0,0,1,0,5c-6.1-2.28-12.25-9-15.91-14.17-1-1.48-3-7.63-4.72-8.19-.82-.27-2.51.7-3.24.83a15.13,15.13,0,0,0-.3-3.68c-8.18,3.36-15,14-15.42,22.49,0-.07-.05-.15-.08-.22-.06.47-.15.93-.24,1.4a.2.2,0,0,1-.39-.06,22.83,22.83,0,0,1,.3-2.33c-.14-.39-.28-.78-.44-1.12-2.22,6.7-1.09,13.91-.5,20.85l.07.06a3.27,3.27,0,0,0,1.36-1.24.13.13,0,0,1,.12-.19.43.43,0,0,0,0-.07.18.18,0,0,1,.31.19v0c.45.27.9.6,1.14.52,0,0,0-.09.05-.14a.15.15,0,0,1,.12-.09,1.46,1.46,0,0,0,0-.55c-.07-.49-.12-1-.15-1.51a35.61,35.61,0,0,1,0-5.06,38.43,38.43,0,0,1,1.85-9.31,39.14,39.14,0,0,1,4.65-9.39.19.19,0,0,1,.18-.28,29.41,29.41,0,0,1,4.94-5.56.29.29,0,0,1,.41.42,45.56,45.56,0,0,0-4.79,6A64.47,64.47,0,0,0,40.72,130.3c4.14,4.28,8.75,8.19,14.43,10.25A41.28,41.28,0,0,0,88,138C98.14,132.68,106.37,124.27,112.53,114.75Zm5.67-28.3a2.3,2.3,0,0,1,.32-.49c.15-.18.44,0,.38.22a3.7,3.7,0,0,1-.24.54A.27.27,0,0,1,118.2,86.45Zm-5.74,13.74c.18-.25.36-.5.55-.73s.41.05.31.24-.28.49-.43.74S112.28,100.45,112.46,100.19ZM28.4,110.63a.21.21,0,0,1-.38-.16,9,9,0,0,1,1-2.2c.11-.23.51-.06.42.18A9.57,9.57,0,0,1,28.4,110.63Zm25.32,15.16c-.46-.68-.83-1.4-1.22-2.12a.21.21,0,0,1,.37-.21c.42.7.85,1.39,1.2,2.12A.2.2,0,0,1,53.72,125.79ZM74.14,129a2.15,2.15,0,0,1-2.56,0c-.25-.18,0-.61.24-.42a1.93,1.93,0,0,0,2.14.17A.17.17,0,0,1,74.14,129Z"/><path class="cls-8" d="M104.66,71.81l-3-1.68a28.56,28.56,0,0,0-6.1,7l0,.06a6,6,0,0,1,3.07-.93c-.8,2.14-1.75,4.22-2.55,6.35.14,0,.28.1.22.26a3.17,3.17,0,0,0-.14,1.53c0,.36-.49.52-.56.15a2.59,2.59,0,0,1,0-.48c-.28.84-.53,1.69-.73,2.56.87-.35,1.73-.8,2.59-1.12-.87,3.39-.61,6.88-1.19,10.29a10.35,10.35,0,0,1-.32,1.33l.24,0a24.67,24.67,0,0,0,7-2.92c.22-4.42-.15-8.74-.2-13.15,0-3.1.38-6.32,2.81-8.51Zm-6,17.09c-.28.23-.67-.15-.4-.4a.58.58,0,0,0,.17-.51c0-.3.4-.31.49-.07A.82.82,0,0,1,98.66,88.9Zm1.64-13.63a1,1,0,0,0-.13.77.28.28,0,0,1-.53.15A1.13,1.13,0,0,1,100,75C100.13,74.83,100.44,75.06,100.3,75.27Z"/><path class="cls-8" d="M68.06,40.48c-.6-.65-1.19-1.32-1.77-2-2.71,2-4,6.52-5.23,9.34.19,0,.9,0,1.2,0,.06,5.06-1.4,10.11-1.13,15.31.31-.29.81-.39,1.1-.62,1.16,3.72-.51,7.45-2.74,10.42a18.24,18.24,0,0,1-2.32,2.35,52.43,52.43,0,0,0,10.49,6.1C70.38,74.2,71.19,67.52,69.51,60,68.07,53.44,67,47.16,68.06,40.48ZM62.92,62.91c-.07.37-.6.21-.55-.15a13.56,13.56,0,0,1,.29-1.41c.06-.24.47-.2.45.06A12.29,12.29,0,0,1,62.92,62.91Zm.22-17.4c0,.29-.46.35-.51.07a3.39,3.39,0,0,1,.27-2.08c.11-.23.47-.07.4.17A4.41,4.41,0,0,0,63.14,45.51Zm.91,24.27c-.13.3-.63.17-.51-.14s.33-.83.54-1.23a.23.23,0,0,1,.42.17A10.89,10.89,0,0,1,64.05,69.78Zm.47-17.08c0,.27-.52.21-.48-.07a4.77,4.77,0,0,0-.17-1.84c-.07-.24.28-.39.39-.17A3.24,3.24,0,0,1,64.52,52.7Z"/><path class="cls-9" d="M74.58,88.21A2.66,2.66,0,0,0,72,86.65a.53.53,0,0,0-.13-.36c-.59-.71-1.53-.56-2.35-.46a4.49,4.49,0,0,0-2.56.64.35.35,0,0,0,.07.56c.09,0,.19.1.29,0a3.13,3.13,0,0,1,.93-.09,9.57,9.57,0,0,1,1.07,0c.4,0,.78,0,1.17,0a3.38,3.38,0,0,0-.47.3c-.35.3.1.85.49.63a2.64,2.64,0,0,1,3.27.69C74.1,89,74.75,88.62,74.58,88.21Z"/><path class="cls-9" d="M77.67,90.59a3.32,3.32,0,0,0-2.34-.65.52.52,0,0,0,0,1,7.39,7.39,0,0,1,2,.35C77.82,91.49,78,90.84,77.67,90.59Z"/><path class="cls-9" d="M81.85,94.05a3.3,3.3,0,0,0-1.28-1.18.51.51,0,0,0-.51.88c.38.25.78.51,1.15.8S82.11,94.48,81.85,94.05Z"/><path class="cls-9" d="M28.22,45.48c-1.28-.35-2.38.6-3,1.61-.23.37.28.72.59.45a4.4,4.4,0,0,1,2.34-1.29A.39.39,0,0,0,28.22,45.48Z"/><path class="cls-9" d="M31.09,45a1.56,1.56,0,0,1-.6.11c-.58-.06-.7.9-.14,1s1.09,0,1.23-.62A.4.4,0,0,0,31.09,45Z"/></g></svg>