<svg xmlns="http://www.w3.org/2000/svg" viewBox="0 0 150 150"><defs><style>.cls-1{fill:#fff4c4;}.cls-2{fill:#8bc764;}.cls-3{fill:#ffe0a2;}.cls-4{fill:#be9151;}.cls-5{fill:#dc8449;}.cls-6{fill:#603612;}.cls-7{fill:none;}.cls-8{fill:#c76d36;}.cls-9{fill:#eea36b;}</style></defs><g id="Layer_2" data-name="Layer 2"><circle class="cls-1" cx="65.03" cy="84.94" r="59.42"/><path class="cls-2" d="M132.06,67.91c-1.05.28-1.68,1.54-2.22,2.4s-1,1.57-1.42,2.36c-.14.25-.49,0-.37-.21a20.12,20.12,0,0,1,2.14-3.53,5,5,0,0,1,.85-1,8.88,8.88,0,0,0-3.93,2.94c-1.26,1.58-1.29,3.93-1.37,5.91,4.12-1.29,5.56-5,6.34-8.92Z"/><path class="cls-2" d="M51.67,31.37a.23.23,0,0,1,.19-.2c-.28-2.19-.44-4.39-.6-6.58,0-.23.32-.22.34,0,.23,2.18.45,4.37.56,6.56a7.61,7.61,0,0,0,1.47-5.08,10.86,10.86,0,0,0-.5-3.15,5.45,5.45,0,0,0-1.25-2.14l-2.11-.67c-.75,4.07-.78,8,1.9,11.31Z"/><path class="cls-2" d="M127,51.27a29.59,29.59,0,0,0-4.33-10.6c-.1-.15.14-.29.24-.14a24.85,24.85,0,0,1,4.43,11.07l.16.15v0c1.25-2.55.62-5.33-.36-7.87a9.74,9.74,0,0,0-2.38-4c-1-.84-3.27-2-3.06.42A17.29,17.29,0,0,0,127,51.27Z"/><path class="cls-3" d="M98,48.67,99.7,48c.21-.09.53,0,.5.29-.16,2.06,1.34,1.27,2.28.45a11,11,0,0,0-.17-1.49l0,0a.13.13,0,0,1,0-.25,1,1,0,0,0-.21-.44s0,.06,0,.1a.26.26,0,0,1-.44,0c-.18-.4-.33-.75-.84-.72a2.48,2.48,0,0,0-1,.27.12.12,0,0,1,0,.09.22.22,0,0,1-.25.07.17.17,0,0,1-.13-.17.39.39,0,0,1,.18-.35l-.32-.21a9.38,9.38,0,0,0-1.44,1.77A8.12,8.12,0,0,1,98,48.67Z"/><path class="cls-3" d="M63,38.25c.46,1.16.85,2.35,1.24,3.53a8.27,8.27,0,0,1,1.34-1.18.22.22,0,0,1,.31.26,11.21,11.21,0,0,1,.77,2c.34-.41.83-1.06,1.3-.93s.45.46.66.68A13.93,13.93,0,0,0,69.35,40c.17-1,.5-3.77-1.45-3.66a.18.18,0,0,1-.26.08,3.38,3.38,0,0,0-1.74-.63,1.63,1.63,0,0,0-1.32.9.27.27,0,0,1-.38.06,2.17,2.17,0,0,0-1.24.67,1.72,1.72,0,0,0-.36.81h0A.21.21,0,0,1,63,38.25Zm4.7-.42a9.33,9.33,0,0,1,.21,1.39.15.15,0,0,1-.29,0,10.92,10.92,0,0,1-.17-1.4C67.43,37.72,67.67,37.69,67.69,37.83ZM65,37.17a2.81,2.81,0,0,1,.82,2.24.15.15,0,0,1-.29,0,4,4,0,0,0-.72-2C64.66,37.22,64.84,37,65,37.17Z"/><path class="cls-2" d="M13.74,17.21c-.11-2-.19-4-.37-6.05,0-.25.35-.24.38,0a46.45,46.45,0,0,1,.49,6.78l.1.19a11.23,11.23,0,0,0,1-5.51c-.18-1.95-.74-4.92-2.72-5.92-1.27-.63-.63,5.62-.56,5.93a19.66,19.66,0,0,0,1.53,4.51A.19.19,0,0,1,13.74,17.21Z"/><path class="cls-3" d="M31.32,32.59a24.7,24.7,0,0,0-.65-3.19l-.58.3h0c0,.11,0,.22,0,.32s-.36.4-.48.13c-.25-.59-.37-1.24-.59-1.85-.38.36-.76.72-1.16,1.08a.21.21,0,0,1-.26.23l-.49.4c-.12.1-.3-.09-.21-.22s.21-.29.32-.44a2.75,2.75,0,0,1-.22-.26c-.49.79-1,1.59-1.52,2.35a.24.24,0,0,1,.16.15l.69,1.64c.2-.24.43-.46.63-.67s.58-.72,1-.59a2.37,2.37,0,0,1,1.25,1.7c.61-.37,1.23-.71,1.87-1A.45.45,0,0,1,31.32,32.59Z"/><path class="cls-4" d="M103.08,48.39a.35.35,0,0,1,.25.33c0,3-.11,6-.31,9h0c6.49,2.63,13.75,3.76,20.59,5.15s13.77,2.31,20.65,3.56l0,0s.05,0,.08,0c1.46-.06,5.12-.17,4.89-2.42a22.06,22.06,0,0,0-1-4.63h0c-5.84-.84-11.69-2.8-17.44-4.15-5.27-1.24-10.55-2.44-15.8-3.76a4.37,4.37,0,0,1-1,2,.24.24,0,0,1-.31,0,2.22,2.22,0,0,1-.8-.61,4.14,4.14,0,0,1-1.72,1.5.28.28,0,0,1-.38-.1c-.09-.19-.17-.38-.26-.56a1,1,0,0,1-1.21-.17,3,3,0,0,1-.33-1.7c-.05-.76-.12-1.53-.13-2.29a.81.81,0,0,1,0-.77A23.17,23.17,0,0,1,103,47.44,3.09,3.09,0,0,1,103.08,48.39Z"/><path class="cls-3" d="M109.39,51.24c0,.43.08.85.13,1.28,0,.27.51,1.21.78.62a6.13,6.13,0,0,1-.25-.72c-.06-.21.25-.35.34-.15a14.06,14.06,0,0,0,.76,1.5,3.27,3.27,0,0,0,.81-.63c.24-.26.41-.6.68-.84a.24.24,0,0,1,.4.23s0,0,0,0a1.45,1.45,0,0,0,.65.44,3.23,3.23,0,0,0,.62-1.69h-.07a.21.21,0,0,1,0-.4,1,1,0,0,0-.29-.54c-.36-.3-.67-.19-1.08-.13-.18,0-.41-.16-.27-.35a.76.76,0,0,1,.2-.2,1.4,1.4,0,0,0-2.28-.38c-.26.22-.72-.08-.49-.38l.05-.06c-.19-.15-.44-.23-.62,0s-.06.5-.08.8a.2.2,0,0,1-.19.19C109.29,50.3,109.34,50.77,109.39,51.24Z"/><path class="cls-4" d="M24.72,32s0-.05,0-.07a38.45,38.45,0,0,1,1.93-3.57.35.35,0,0,1,.59,0c.13.18.26.35.38.53.4-.46.85-.9,1.27-1.32a.33.33,0,0,1,.5.06A6.76,6.76,0,0,1,30,29.23l.71-.49a.28.28,0,0,1,.41.17A9.54,9.54,0,0,1,32,33.55s0,0,0,0a15.32,15.32,0,0,1,.64,2c2.5.75,4.91,2.06,7.33,3s4.66,1.88,7,2.75Q54,44,61.21,46.18c9.85,3,19.83,5.12,29.87,7.33a18.54,18.54,0,0,1,6-6.56.35.35,0,0,1,.43,0,6.77,6.77,0,0,1,.36-.65,163,163,0,0,1-27.61-7,15.73,15.73,0,0,1-1.11,3.84.35.35,0,0,1-.42.24,1.13,1.13,0,0,1-.71-.54c-.2-.29-1,.59-1.35.76a.3.3,0,0,1-.43-.17,15.65,15.65,0,0,0-.61-2.23,8.58,8.58,0,0,1-1.3,1.19.29.29,0,0,1-.47-.12c-.39-1.24-.81-2.48-1.14-3.74a.21.21,0,0,1-.19.06h0a.24.24,0,0,1-.44.05.82.82,0,0,1-.1-.26c-5.12-1.95-10.15-4.11-15.2-6.24s-9.9-4.38-15.14-5.74C27,25.29,21.9,25.72,17.7,23.16a46.8,46.8,0,0,0-7.43-3.79c-.83-.33-7.08-3.18-7.78-1.28,4,2.21,7.72,5,11.48,7.5a98.43,98.43,0,0,1,10,7.06C24.2,32.4,24.47,32.18,24.72,32Z"/><path class="cls-5" d="M42,76.2c1.83-.42,4.15-.38,5.79-1.39,4.91-3-3-5.65-5.37-5.41A11.08,11.08,0,0,0,36.44,72a10.57,10.57,0,0,0,.43,4,15,15,0,0,0,1,2.35A10.12,10.12,0,0,1,42,76.2Zm2.81-3.84a1.69,1.69,0,0,1,2,.53.43.43,0,0,1-.37.64c-.55,0-1-.45-1.58-.15-.35.19-.72.57-1.13.57a.19.19,0,0,1-.19-.2C43.47,73.16,44.25,72.55,44.76,72.36Z"/><path class="cls-5" d="M63.67,71.07a8.48,8.48,0,0,0-4.07-.91c-1.45.15-5.07,1.31-3.24,3.88,1.59,2.23,4.25,2,6.45,3.16a10.6,10.6,0,0,1,3.49,2.89,9.73,9.73,0,0,0,2.37-5.51A23.36,23.36,0,0,0,63.67,71.07Zm-4.15,3.18a1.1,1.1,0,0,0-1.61-.42c-.22.12-.51-.13-.36-.36a1.47,1.47,0,0,1,2.63.5A.36.36,0,0,1,59.52,74.25Z"/><path class="cls-5" d="M71.1,67.79c2.54,6-.91,12.78-4.28,17.64h0a13.49,13.49,0,0,0,8.45,2c.91-1.83.81-4,1-6,.16-1.67.29-3.34.57-5a.2.2,0,0,1,.28-.15.24.24,0,0,1,.28,0,5.72,5.72,0,0,1,.8.59c.39-3.88.56-7.56-.76-11.35-.07-.19.18-.31.32-.2a.17.17,0,0,1,.14,0A3.32,3.32,0,0,1,79,65.8c-.49-2.38-1.05-4.75-1.71-7.09-.74-2.59-1.82-5.16-2.41-7.79-3.89-.94-7.75-2-11.55-3.14a19,19,0,0,1,0,11.35A17.54,17.54,0,0,1,71.1,67.79Zm3.37,11.26a6.34,6.34,0,0,1,0,.76.21.21,0,0,1-.42,0c0-.25,0-.5,0-.76A.25.25,0,0,1,74.47,79.05Zm-1.71-25.4A14.75,14.75,0,0,1,73,55.52c0,.16-.26.2-.29,0a14.32,14.32,0,0,1-.33-1.85C72.38,53.49,72.71,53.45,72.76,53.65Zm-.86,8.66a.21.21,0,0,1,.42,0,4.43,4.43,0,0,1,0,1.26.2.2,0,0,1-.38,0A4.43,4.43,0,0,1,71.9,62.31Zm-3.74-8.53a6.4,6.4,0,0,1,.27,1.13c0,.26-.34.25-.42.05a6.3,6.3,0,0,1-.3-1.05A.23.23,0,0,1,68.16,53.78Z"/><path class="cls-3" d="M65.8,80.6a9.33,9.33,0,0,0-5.25-3.44,10.75,10.75,0,0,1-3.89-1.65A3.22,3.22,0,0,1,56,70.82c1.28-1.68,4.08-1.87,5.94-1.32a15.68,15.68,0,0,1,6.75,4.4A9.72,9.72,0,0,0,62,65.16,15.31,15.31,0,0,0,51.5,66a.38.38,0,0,1-.51-.3c-3.05-2.12-7.28-2.83-10.51-.59a9.25,9.25,0,0,0-3.94,6.17,9.2,9.2,0,0,1,5.83-2.54c2.2-.08,6.11.42,7.32,2.66,1.05,1.95-.33,3.72-2.26,4.42-3.24,1.17-6.38,1.1-9.29,3.2A15.87,15.87,0,0,0,52.43,87.2a18.29,18.29,0,0,0,9.93-3.41,21.64,21.64,0,0,0,3.48-3.16Zm-12.19.62c-1,1.12-3.31.51-4.11-.59-.11-.14.1-.34.24-.24a3.26,3.26,0,0,0,1.91.76,6.84,6.84,0,0,0,1.67-.43A.3.3,0,0,1,53.61,81.22Zm.49-2.36a1.54,1.54,0,0,1-.63.39,1.69,1.69,0,0,1-.43.15,1.3,1.3,0,0,1-.22,0,5,5,0,0,1-1.4.06c-1.05-.16-3.05-1.06-2.2-2.49a1.91,1.91,0,0,1,.38-.47,1.43,1.43,0,0,1,.26-.22,4.5,4.5,0,0,1,3-.53.58.58,0,0,1,.27.1,1.76,1.76,0,0,1,1.5,1.91A1.57,1.57,0,0,1,54.1,78.86Z"/><path class="cls-2" d="M1.87,37.47a11.48,11.48,0,0,0,1.48.46c3.24.58,6.54-1.14,8.82-3.37.63-.6,3.51-3.83,2.84-4.89a14,14,0,0,1-6.35,4.08c-.25.08-.34-.3-.1-.39a20.49,20.49,0,0,0,6.13-3.94,1,1,0,0,0-.26-.07A14.71,14.71,0,0,0,5.05,33,32.05,32.05,0,0,0,2.18,35.7C1.64,36.28.36,37,1.87,37.47Z"/><path class="cls-6" d="M69.7,74.1c.25-4-2.66-7.58-6-9.33-3.88-2-8.7-1.41-12.51.41C45,59.72,35.93,64.6,35.55,72.49c-.4,8.4,7.8,14.91,15.53,15.5S69.17,82.58,69.7,74.1Zm-3.4,6a10.6,10.6,0,0,0-3.49-2.89c-2.2-1.15-4.86-.93-6.45-3.16-1.83-2.57,1.79-3.73,3.24-3.88a8.48,8.48,0,0,1,4.07.91,23.36,23.36,0,0,1,5,3.51A9.73,9.73,0,0,1,66.3,80.09ZM36.44,72a11.08,11.08,0,0,1,5.93-2.61c2.38-.24,10.28,2.37,5.37,5.41-1.64,1-4,1-5.79,1.39a10.12,10.12,0,0,0-4.13,2.19,15,15,0,0,1-1-2.35A10.57,10.57,0,0,1,36.44,72ZM62.36,83.79a18.29,18.29,0,0,1-9.93,3.41A15.87,15.87,0,0,1,38.14,79c2.91-2.1,6-2,9.29-3.2,1.93-.7,3.31-2.47,2.26-4.42-1.21-2.24-5.12-2.74-7.32-2.66a9.2,9.2,0,0,0-5.83,2.54,9.25,9.25,0,0,1,3.94-6.17c3.23-2.24,7.46-1.53,10.51.59a.38.38,0,0,0,.51.3A15.31,15.31,0,0,1,62,65.16a9.72,9.72,0,0,1,6.69,8.74,15.68,15.68,0,0,0-6.75-4.4c-1.86-.55-4.66-.36-5.94,1.32a3.22,3.22,0,0,0,.69,4.69,10.75,10.75,0,0,0,3.89,1.65A9.33,9.33,0,0,1,65.8,80.6l0,0A21.64,21.64,0,0,1,62.36,83.79Z"/><path class="cls-6" d="M53.18,75.88a.58.58,0,0,0-.27-.1,4.5,4.5,0,0,0-3,.53,1.43,1.43,0,0,0-.26.22,1.91,1.91,0,0,0-.38.47c-.85,1.43,1.15,2.33,2.2,2.49a5,5,0,0,0,1.4-.06,1.3,1.3,0,0,0,.22,0,1.69,1.69,0,0,0,.43-.15,1.54,1.54,0,0,0,.63-.39,1.57,1.57,0,0,0,.58-1.07A1.76,1.76,0,0,0,53.18,75.88Z"/><path class="cls-6" d="M53.32,80.72a6.84,6.84,0,0,1-1.67.43,3.26,3.26,0,0,1-1.91-.76c-.14-.1-.35.1-.24.24.8,1.1,3.07,1.71,4.11.59A.3.3,0,0,0,53.32,80.72Z"/><path class="cls-6" d="M117.35,67.54c0-1.41.19-3.75-.51-5.22l5.7,1.17a184.7,184.7,0,0,0,21.65,3.57.28.28,0,0,0,.25-.13,5.91,5.91,0,0,0,5.29-1.53c.44-.52.23-1.48.14-2.06a20.9,20.9,0,0,0-1.22-4.46.24.24,0,0,0-.34-.11c-5.23-1.87-11-2.78-16.4-4.06-5.6-1.32-11.21-2.62-16.86-3.72a1.6,1.6,0,0,0-.17-.63,1.64,1.64,0,0,0-1.53-.91,1.87,1.87,0,0,0-2.9-.91.91.91,0,0,0-1.09-.24.8.8,0,0,0-.23.19.24.24,0,0,0-.14-.14,24.86,24.86,0,0,0-3.32-.73c-1-.2-1.89-.43-2.83-.61a2.77,2.77,0,0,1-.1-.26A1.3,1.3,0,0,0,102,46a1.25,1.25,0,0,0-1-.71,2.16,2.16,0,0,0-1.16.25,3.71,3.71,0,0,0-.63-.55.24.24,0,0,0-.31,0,7.35,7.35,0,0,0-.59.65.35.35,0,0,0-.15-.07c-9.45-1.69-18.64-4.08-27.91-6.54a4.61,4.61,0,0,0-.11-1.44c-.27-1.12-1.11-2.48-2.42-1.84,0,0,0,0-.06.07a2.66,2.66,0,0,0-2-.71,1.73,1.73,0,0,0-1.51,1.13A2.13,2.13,0,0,0,62,37.9c-5.48-2.5-11.07-4.78-16.65-7.08-6-2.46-12-5-18.45-6-3.22-.49-6-.49-8.88-2.18a56.55,56.55,0,0,0-7.57-3.83C8.29,18,5.48,16.48,3.16,16.71a1.16,1.16,0,0,0-1,1.24c-.19,0-.36.25-.17.4,6.86,5.38,14.87,9.2,21.72,14.59-2.63,2.84-4.16,6.4-5.51,10.06-2,5.54-3.76,11.19-5.24,16.91a.35.35,0,0,0,.58.34l.76-.64c-1.36,6-1.14,12.39-.89,18.51a55.85,55.85,0,0,0,1.08,8.93,82.37,82.37,0,0,0,3.28,10.16c2.09,6,4,12.44,7.39,17.89A39.8,39.8,0,0,0,36.9,126.54a70.17,70.17,0,0,0,17.46,8c5.84,1.93,12.35,1.74,18.38.89,10.4-1.47,21.55-5.44,28.17-14,6.38-8.27,9.32-19.33,11.84-29.29,1.42-5.61,2.72-11.29,3.8-17A44.38,44.38,0,0,0,117.35,67.54Zm-7.93-17.9c0-.3-.15-.53.08-.8s.43-.14.62,0l-.05.06c-.23.3.23.6.49.38a1.4,1.4,0,0,1,2.28.38.76.76,0,0,0-.2.2c-.14.19.09.37.27.35.41-.06.72-.17,1.08.13a1,1,0,0,1,.29.54.21.21,0,0,0,0,.4h.07a3.23,3.23,0,0,1-.62,1.69,1.45,1.45,0,0,1-.65-.44s0,0,0,0a.24.24,0,0,0-.4-.23c-.27.24-.44.58-.68.84a3.27,3.27,0,0,1-.81.63,14.06,14.06,0,0,1-.76-1.5c-.09-.2-.4-.06-.34.15a6.13,6.13,0,0,0,.25.72c-.27.59-.74-.35-.78-.62,0-.43-.08-.85-.13-1.28s-.1-.94-.16-1.41A.2.2,0,0,0,109.42,49.64Zm-.51-.82a.81.81,0,0,0,0,.77c0,.76.08,1.53.13,2.29a3,3,0,0,0,.33,1.7,1,1,0,0,0,1.21.17c.09.18.17.37.26.56a.28.28,0,0,0,.38.1,4.14,4.14,0,0,0,1.72-1.5,2.22,2.22,0,0,0,.8.61.24.24,0,0,0,.31,0,4.37,4.37,0,0,0,1-2c5.25,1.32,10.53,2.52,15.8,3.76,5.75,1.35,11.6,3.31,17.44,4.15h0a22.06,22.06,0,0,1,1,4.63c.23,2.25-3.43,2.36-4.89,2.42,0,0-.05,0-.08,0l0,0c-6.88-1.25-13.8-2.18-20.65-3.56s-14.1-2.52-20.59-5.15h0c.2-3,.33-6,.31-9a.35.35,0,0,0-.25-.33,3.09,3.09,0,0,0-.11-1A23.17,23.17,0,0,0,108.91,48.82Zm-9.79-3.25.32.21a.39.39,0,0,0-.18.35.17.17,0,0,0,.13.17.22.22,0,0,0,.25-.07.12.12,0,0,0,0-.09,2.48,2.48,0,0,1,1-.27c.51,0,.66.32.84.72a.26.26,0,0,0,.44,0s0-.07,0-.1a1,1,0,0,1,.21.44.13.13,0,0,0,0,.25l0,0a11,11,0,0,1,.17,1.49c-.94.82-2.44,1.61-2.28-.45,0-.28-.29-.38-.5-.29L98,48.67a8.12,8.12,0,0,0-.34-1.33A9.38,9.38,0,0,1,99.12,45.57ZM63,37.38a2.17,2.17,0,0,1,1.24-.67.27.27,0,0,0,.38-.06,1.63,1.63,0,0,1,1.32-.9,3.38,3.38,0,0,1,1.74.63.18.18,0,0,0,.26-.08c1.95-.11,1.62,2.62,1.45,3.66a13.93,13.93,0,0,1-.74,2.67c-.21-.22-.33-.59-.66-.68s-1,.52-1.3.93a11.21,11.21,0,0,0-.77-2,.22.22,0,0,0-.31-.26,8.27,8.27,0,0,0-1.34,1.18c-.39-1.18-.78-2.37-1.24-3.53a.21.21,0,0,0-.36,0h0A1.72,1.72,0,0,1,63,37.38ZM2.49,18.09c.7-1.9,7,.95,7.78,1.28a46.8,46.8,0,0,1,7.43,3.79c4.2,2.56,9.27,2.13,13.92,3.34,5.24,1.36,10.18,3.64,15.14,5.74S56.84,36.53,62,38.48a.82.82,0,0,0,.1.26.24.24,0,0,0,.44-.05h0a.21.21,0,0,0,.19-.06c.33,1.26.75,2.5,1.14,3.74a.29.29,0,0,0,.47.12,8.58,8.58,0,0,0,1.3-1.19,15.65,15.65,0,0,1,.61,2.23.3.3,0,0,0,.43.17c.32-.17,1.15-1,1.35-.76a1.13,1.13,0,0,0,.71.54.35.35,0,0,0,.42-.24,15.73,15.73,0,0,0,1.11-3.84,163,163,0,0,0,27.61,7,6.77,6.77,0,0,0-.36.65.35.35,0,0,0-.43,0,18.54,18.54,0,0,0-6,6.56c-10-2.21-20-4.32-29.87-7.33Q54,44,46.92,41.33c-2.36-.87-4.7-1.8-7-2.75s-4.83-2.3-7.33-3a15.32,15.32,0,0,0-.64-2s0,0,0,0a9.54,9.54,0,0,0-.83-4.64.28.28,0,0,0-.41-.17l-.71.49a6.76,6.76,0,0,0-.61-1.65.33.33,0,0,0-.5-.06c-.42.42-.87.86-1.27,1.32-.12-.18-.25-.35-.38-.53a.35.35,0,0,0-.59,0,38.45,38.45,0,0,0-1.93,3.57s0,.05,0,.07c-.25.23-.52.45-.75.7a98.43,98.43,0,0,0-10-7.06C10.21,23.05,6.46,20.3,2.49,18.09ZM86.82,64.64a.42.42,0,0,0-.77.1A47.17,47.17,0,0,0,83.93,76.4a9.42,9.42,0,0,0-.6-1.19.41.41,0,0,0-.74.09c-1.4,4.35-3.18,8.33-6.24,11.53a12.28,12.28,0,0,0,.46-2.94c.2-2.33.43-4.68.47-7a4.63,4.63,0,0,1,.87,1,.39.39,0,0,0,.72-.2c.48-3.84.87-8-.72-11.65a7.85,7.85,0,0,1,1.19,1c.27.29.68,0,.61-.36-1.06-5.12-2.17-11-4.6-15.71a145.19,145.19,0,0,0,15.5,2.9A39.41,39.41,0,0,0,87.19,65.3C87.07,65.08,87,64.86,86.82,64.64Zm-28-8a22.71,22.71,0,0,0-8.28.82l.37-.66a.43.43,0,0,0-.48-.62,21.77,21.77,0,0,0-18,24A50.7,50.7,0,0,1,31,56.25c.75-4.27,1.51-8.5,1.91-12.81a25.3,25.3,0,0,0-.16-7.12,48.88,48.88,0,0,0,5.38,2.42q3.87,1.63,7.79,3.13,7.43,2.87,15.06,5.2l2,.59a31.26,31.26,0,0,1-.1,10.83.19.19,0,0,0-.14.19v.15A9.93,9.93,0,0,0,58.18,58c.3-.26.59-.53.88-.83A.34.34,0,0,0,58.82,56.62ZM29.15,33.67A2.37,2.37,0,0,0,27.9,32c-.39-.13-.76.37-1,.59s-.43.43-.63.67l-.69-1.64a.24.24,0,0,0-.16-.15c.54-.76,1-1.56,1.52-2.35a2.75,2.75,0,0,0,.22.26c-.11.15-.22.29-.32.44s.09.32.21.22l.49-.4a.21.21,0,0,0,.26-.23c.4-.36.78-.72,1.16-1.08.22.61.34,1.26.59,1.85.12.27.45.09.48-.13s0-.21,0-.32h0l.58-.3a24.7,24.7,0,0,1,.65,3.19.45.45,0,0,0-.3,0C30.38,33,29.76,33.3,29.15,33.67ZM63.34,47.78c3.8,1.13,7.66,2.2,11.55,3.14.59,2.63,1.67,5.2,2.41,7.79C78,61.05,78.52,63.42,79,65.8a3.32,3.32,0,0,0-1.12-.53.17.17,0,0,0-.14,0c-.14-.11-.39,0-.32.2,1.32,3.79,1.15,7.47.76,11.35a5.72,5.72,0,0,0-.8-.59.24.24,0,0,0-.28,0,.2.2,0,0,0-.28.15c-.28,1.66-.41,3.33-.57,5-.19,2-.09,4.21-1,6a13.49,13.49,0,0,1-8.45-2h0c3.37-4.86,6.82-11.67,4.28-17.64a17.54,17.54,0,0,0-7.77-8.66A19,19,0,0,0,63.34,47.78Zm50.53,36A204.66,204.66,0,0,1,108.48,104c-2.11,6.29-4.65,12.78-9,17.93A34.1,34.1,0,0,1,86,131.26a57.35,57.35,0,0,1-19.79,4,35,35,0,0,1-10.16-.9,71.4,71.4,0,0,1-10.38-3.83,51.12,51.12,0,0,1-16-10.9c-4.88-5-7.28-11.41-9.58-17.89-2.47-7-5.17-13.78-5.82-21.21-.62-7.06-.86-14.88.91-21.78a.35.35,0,0,0-.58-.33l-.69.58q2-7.62,4.64-15.05a50.68,50.68,0,0,1,3.12-7.27A20.31,20.31,0,0,1,24,33.3c1.1-1.31,1.39-1,2,.26a1.9,1.9,0,0,0-.2.37c-.09.21.1.49.34.34a9,9,0,0,0,1.37-1.39c.46-.47.91.46,1.18,1.06-.24.22,0,.73.3.58.8-.33,1.89-1.35,2.43,0a13.31,13.31,0,0,1,.77,3.58,30.92,30.92,0,0,1-.17,6.23c-.46,5.11-1.61,10.1-2.3,15.18a44.85,44.85,0,0,0,3.48,24.28c.09.2.43.06.35-.15-.14-.39-.27-.78-.41-1.16a.19.19,0,0,0,0-.15A21.82,21.82,0,0,1,49.77,57.16l-.39.68-.24.09a.18.18,0,0,0,0,.34.41.41,0,0,0-.07.11c-.19.29.24.61.48.36a7,7,0,0,0,.58-.68A27,27,0,0,1,58,57.24a9.56,9.56,0,0,0-.75.8c-.19.23.07.66.35.45l.08-.07c5.95-.47,11.21,5.06,13.05,10.31,2,5.86-1.76,11.51-4.35,16.46l-.11-.07a.15.15,0,0,0-.19.24,11.37,11.37,0,0,0,8.81,2.82c-.33.28-.66.55-1,.82a.14.14,0,0,0,.14.25A14.59,14.59,0,0,0,76,88l.37-.11a.24.24,0,0,0,.14-.31c3.29-2.81,5.36-7,6.59-11.1.15.23.32.45.49.67a.33.33,0,0,0,.34.1.16.16,0,0,0,.28-.06c.79-3.76,1.45-7.51,2.4-11.23.11.17.24.34.36.5l-.06.33a.23.23,0,0,0,.42.16l.09.14c.18.21.58,0,.47-.28s-.21-.45-.32-.68A67.21,67.21,0,0,1,91,55.55a22.83,22.83,0,0,1,2.93-4.7,19.15,19.15,0,0,1,1.44-1.55c1-1,1.8-1.9,2.08,0,0,.24.33.29.52.21.52-.24,1-.48,1.59-.71a8.51,8.51,0,0,0,.16,1.79.33.33,0,0,0,.4.23,7.64,7.64,0,0,0,2.51-1.28c-.28,13.29-3.51,26.68-2.31,40a.38.38,0,0,0,.75,0c0-6.17.32-12.29.85-18.43a.2.2,0,0,0,.19-.07c2.32-3.19,3.58-7.43,4.25-11.27.06-.34-.45-.5-.54-.15a82.12,82.12,0,0,1-3.84,10.74l.06-.75c.35-3.84.73-7.67,1-11.51a56.54,56.54,0,0,0,13,4.11h0c.89,1.11.58,4.06.58,5.41a39.23,39.23,0,0,1-.51,5.73C115.51,76.79,114.64,80.27,113.87,83.75Z"/><path class="cls-6" d="M100.69,91.89c-.68,5.23-1.73,10.29-2.81,15.44a.3.3,0,0,0,.58.16A60.24,60.24,0,0,0,101,91.89C101,91.66,100.71,91.68,100.69,91.89Z"/><path class="cls-6" d="M65.49,39.41a.15.15,0,0,0,.29,0A2.81,2.81,0,0,0,65,37.17c-.12-.14-.3,0-.19.19A4,4,0,0,1,65.49,39.41Z"/><path class="cls-6" d="M67.9,39.22a9.33,9.33,0,0,0-.21-1.39c0-.14-.26-.11-.25,0a10.92,10.92,0,0,0,.17,1.4A.15.15,0,0,0,67.9,39.22Z"/><path class="cls-6" d="M.25,37.55c3.86,1.52,6.61,1.4,10.16-.82A11.25,11.25,0,0,0,15.9,29.2a.33.33,0,0,0-.31-.41,6.19,6.19,0,0,0-1,.06C8.6,28.23,3.75,32.7.1,37A.35.35,0,0,0,.25,37.55ZM2.18,35.7A32.05,32.05,0,0,1,5.05,33a14.71,14.71,0,0,1,9.38-3.63,1,1,0,0,1,.26.07,20.49,20.49,0,0,1-6.13,3.94c-.24.09-.15.47.1.39A14,14,0,0,0,15,29.67c.67,1.06-2.21,4.29-2.84,4.89-2.28,2.23-5.58,3.95-8.82,3.37a11.48,11.48,0,0,1-1.48-.46C.36,37,1.64,36.28,2.18,35.7Z"/><path class="cls-6" d="M13.81,18.38v0c0,.1,0,.2,0,.3a.23.23,0,0,0,.09.15,2.1,2.1,0,0,1,.06.24.33.33,0,0,0,.61.08c1.94-3.91,2.58-11.88-2.78-13.52a.34.34,0,0,0-.42.24A17.41,17.41,0,0,0,13.8,18.38ZM12.62,6.7c2,1,2.54,4,2.72,5.92a11.23,11.23,0,0,1-1,5.51l-.1-.19a46.45,46.45,0,0,0-.49-6.78c0-.24-.4-.25-.38,0,.18,2,.26,4,.37,6.05a.19.19,0,0,0-.15-.07,19.66,19.66,0,0,1-1.53-4.51C12,12.32,11.35,6.07,12.62,6.7Z"/><path class="cls-6" d="M51.66,32a.31.31,0,0,0,.5.12c3.23-3.26,3.05-11-1.65-12.89C48.45,18.39,48.69,23,48.64,24A9.93,9.93,0,0,0,51.66,32ZM49.77,20.11l2.11.67a5.45,5.45,0,0,1,1.25,2.14,10.86,10.86,0,0,1,.5,3.15,7.61,7.61,0,0,1-1.47,5.08c-.11-2.19-.33-4.38-.56-6.56,0-.22-.35-.23-.34,0,.16,2.19.32,4.39.6,6.58a.23.23,0,0,0-.19.2v.05C49,28.1,49,24.18,49.77,20.11Z"/><path class="cls-6" d="M127.2,52.14h0c.22.17.44.34.67.49s.38-.15.23-.3-.12-.11-.19-.17A.28.28,0,0,0,128,52c1.56-2.85.68-6.28-.54-9.11-.78-1.81-3.1-5.78-5.74-5-2,.55-.12,5.95.29,7.13A15.52,15.52,0,0,0,127.2,52.14Zm-2.44-12.27a9.74,9.74,0,0,1,2.38,4c1,2.54,1.61,5.32.36,7.87v0l-.16-.15a24.85,24.85,0,0,0-4.43-11.07c-.1-.15-.34,0-.24.14A29.59,29.59,0,0,1,127,51.27a17.29,17.29,0,0,1-5.29-11C121.49,37.86,123.76,39,124.76,39.87Z"/><path class="cls-6" d="M132.37,67.2s0,0-.06,0c-2.36.14-4.09,1.6-5.63,3.28s-1.49,4.64-1.6,6.78a.32.32,0,0,0,.4.31,10.05,10.05,0,0,0,7.19-10.13A.27.27,0,0,0,132.37,67.2Zm-6.63,9.61c.08-2,.11-4.33,1.37-5.91A8.88,8.88,0,0,1,131,68a5,5,0,0,0-.85,1,20.12,20.12,0,0,0-2.14,3.53c-.12.24.23.46.37.21.46-.79.93-1.58,1.42-2.36s1.17-2.12,2.22-2.4l0,0C131.3,71.84,129.86,75.52,125.74,76.81Z"/><path class="cls-6" d="M22.48,39.88a2.73,2.73,0,0,0-.35,1.31c0,.19.3.28.38.1A2.71,2.71,0,0,0,22.84,40,.2.2,0,0,0,22.48,39.88Z"/><path class="cls-6" d="M29.58,38.56a4.58,4.58,0,0,0,.33-1.09.18.18,0,0,0-.35-.1,4.23,4.23,0,0,0-.33,1.1C29.2,38.66,29.49,38.72,29.58,38.56Z"/><path class="cls-6" d="M26.19,49.43a10.72,10.72,0,0,0-.39,1.37c0,.21.27.38.37.16a10.09,10.09,0,0,0,.46-1.41A.23.23,0,0,0,26.19,49.43Z"/><path class="cls-6" d="M19.8,55.21a12.27,12.27,0,0,0,.05,1.36.21.21,0,0,0,.41,0c0-.45,0-.9,0-1.36A.26.26,0,0,0,19.8,55.21Z"/><path class="cls-6" d="M25.39,63.57a7.58,7.58,0,0,0,0-1.26.25.25,0,0,0-.49,0,7.58,7.58,0,0,0,0,1.26A.21.21,0,0,0,25.39,63.57Z"/><path class="cls-6" d="M18.91,73.47a4.83,4.83,0,0,0,0,1.42.24.24,0,0,0,.45,0,4.51,4.51,0,0,0,0-1.42A.24.24,0,0,0,18.91,73.47Z"/><path class="cls-6" d="M25.54,75.59a7.06,7.06,0,0,1-.12,1.59.23.23,0,0,0,.45.13A3.51,3.51,0,0,0,26,75.52C26,75.25,25.52,75.31,25.54,75.59Z"/><path class="cls-6" d="M24.57,87.15a5.82,5.82,0,0,0,.76,1.41c.13.16.39,0,.33-.19a5.86,5.86,0,0,0-.79-1.4A.18.18,0,0,0,24.57,87.15Z"/><path class="cls-6" d="M32,88.73a5.76,5.76,0,0,1,.78,1.12.18.18,0,0,0,.32-.14,3.76,3.76,0,0,0-.78-1.3C32.08,88.19,31.76,88.51,32,88.73Z"/><path class="cls-6" d="M27,99.62a.21.21,0,0,0-.37.21A3.15,3.15,0,0,0,28,101.1a.19.19,0,0,0,.19-.32A4.37,4.37,0,0,1,27,99.62Z"/><path class="cls-6" d="M40.57,103.51c-.16-.17-.41.08-.26.25a15.74,15.74,0,0,0,1.24,1.34c.13.12.38,0,.26-.21A18,18,0,0,0,40.57,103.51Z"/><path class="cls-6" d="M39.51,115.28c-.17-.19-.45.09-.28.28a3.09,3.09,0,0,0,1.3.93.17.17,0,0,0,.13-.31A5,5,0,0,1,39.51,115.28Z"/><path class="cls-6" d="M43.9,96.4c-.21-.19-.54.13-.32.32l1.24,1c.18.14.44-.1.26-.27C44.7,97.11,44.31,96.75,43.9,96.4Z"/><path class="cls-6" d="M56.49,107.91c-.51-.23-1-.45-1.54-.64-.22-.08-.3.25-.09.34.5.21,1,.38,1.52.55C56.53,108.21,56.63,108,56.49,107.91Z"/><path class="cls-6" d="M57.53,114.31a10.64,10.64,0,0,0-1.26-.19c-.26,0-.32.41-.06.45.42.06.84.13,1.26.15A.21.21,0,0,0,57.53,114.31Z"/><path class="cls-6" d="M69.24,124.86a15.12,15.12,0,0,0-1.51.13c-.25,0-.26.42,0,.4a13.77,13.77,0,0,0,1.56-.17C69.5,125.18,69.44,124.86,69.24,124.86Z"/><path class="cls-6" d="M73.23,116.86a9.12,9.12,0,0,0-1.27-.22c-.3,0-.37.49-.07.53a9.28,9.28,0,0,0,1.28.14A.23.23,0,0,0,73.23,116.86Z"/><path class="cls-6" d="M78.49,107.24a2,2,0,0,1-1.1.22c-.28,0-.34.45-.06.5a1.52,1.52,0,0,0,1.44-.37C79,107.4,78.72,107.13,78.49,107.24Z"/><path class="cls-6" d="M67.67,102.77a3,3,0,0,1-1.68.31c-.3,0-.43.41-.12.47a2.48,2.48,0,0,0,2.06-.44C68.13,102.94,67.87,102.68,67.67,102.77Z"/><path class="cls-6" d="M56.53,97.27c-.25-.13-.47.24-.22.38a10.74,10.74,0,0,0,1.42.76c.22.09.31-.24.15-.37A12.74,12.74,0,0,0,56.53,97.27Z"/><path class="cls-6" d="M46.91,89.88a1.88,1.88,0,0,1-1.22-.71c-.16-.2-.51.07-.35.28a1.93,1.93,0,0,0,1.57.79A.18.18,0,0,0,46.91,89.88Z"/><path class="cls-6" d="M66.54,92a1.49,1.49,0,0,0-1.07-.41c-.28,0-.37.47-.07.52a3.1,3.1,0,0,1,.85.26C66.49,92.51,66.76,92.21,66.54,92Z"/><path class="cls-6" d="M78.64,95a7.44,7.44,0,0,1-1.3.46c-.22,0-.18.43,0,.4a3.33,3.33,0,0,0,1.47-.49A.22.22,0,0,0,78.64,95Z"/><path class="cls-6" d="M86.45,88.26a13.83,13.83,0,0,0-1.24,1.18.25.25,0,0,0,.35.35,11.43,11.43,0,0,0,1.18-1.23A.21.21,0,0,0,86.45,88.26Z"/><path class="cls-6" d="M92.24,98.43a4.21,4.21,0,0,1,.61-1.59c.19-.28-.25-.52-.44-.26a2.67,2.67,0,0,0-.61,1.79C91.82,98.61,92.18,98.69,92.24,98.43Z"/><path class="cls-6" d="M95.88,82.68a3.14,3.14,0,0,1-.34,1.44c-.08.16.12.34.25.2a2,2,0,0,0,.49-1.64C96.26,82.42,95.87,82.42,95.88,82.68Z"/><path class="cls-6" d="M91.51,77.49a14.81,14.81,0,0,0-.4,1.87c0,.22.3.23.37,0a13.71,13.71,0,0,0,.46-1.81A.22.22,0,0,0,91.51,77.49Z"/><path class="cls-6" d="M91.76,69.75a2,2,0,0,0,0-.65.21.21,0,0,0-.41,0,2,2,0,0,0,0,.65A.19.19,0,0,0,91.76,69.75Z"/><path class="cls-6" d="M96.67,66.32a4.31,4.31,0,0,0-.15,1.12c0,.18.29.3.38.1a4.05,4.05,0,0,0,.23-1.15C97.16,66.13,96.72,66.07,96.67,66.32Z"/><path class="cls-6" d="M94.68,59.89A2.54,2.54,0,0,1,94.44,61a.18.18,0,0,0,.3.18,2.08,2.08,0,0,0,.37-1.3C95.1,59.61,94.67,59.61,94.68,59.89Z"/><path class="cls-6" d="M97.84,54c-.15.7-.29,1.41-.4,2.12,0,.22.28.32.34.1.19-.7.36-1.4.5-2.1A.23.23,0,0,0,97.84,54Z"/><path class="cls-6" d="M68.43,54.91a6.4,6.4,0,0,0-.27-1.13.23.23,0,0,0-.45.13A6.3,6.3,0,0,0,68,55C68.09,55.16,68.47,55.17,68.43,54.91Z"/><path class="cls-6" d="M72.3,63.57a4.43,4.43,0,0,0,0-1.26.21.21,0,1,0-.42,0,4.43,4.43,0,0,0,0,1.26A.2.2,0,0,0,72.3,63.57Z"/><path class="cls-6" d="M73,55.52a14.75,14.75,0,0,0-.26-1.87c-.05-.2-.38-.16-.36.05a14.32,14.32,0,0,0,.33,1.85C72.76,55.72,73,55.68,73,55.52Z"/><path class="cls-6" d="M74.43,79.81a6.34,6.34,0,0,0,0-.76.25.25,0,0,0-.49,0c0,.26,0,.51,0,.76A.21.21,0,0,0,74.43,79.81Z"/><path class="cls-6" d="M51,60.81c.56-.19,1.11-.4,1.66-.63.17-.07.11-.35-.09-.29-.56.18-1.11.37-1.66.58C50.73,60.55,50.81,60.89,51,60.81Z"/><path class="cls-6" d="M63,62.68a3.33,3.33,0,0,1,1.17.63.18.18,0,0,0,.25-.25,2.28,2.28,0,0,0-1.31-.78A.21.21,0,0,0,63,62.68Z"/><path class="cls-6" d="M108.4,63.82a3.2,3.2,0,0,1-.8,1.84.17.17,0,0,0,.24.24,2.73,2.73,0,0,0,1-2.08C108.88,63.52,108.42,63.52,108.4,63.82Z"/><path class="cls-6" d="M112.45,75.05a2.14,2.14,0,0,1-.38,1.49c-.15.22.17.45.35.27a1.94,1.94,0,0,0,.5-1.89C112.85,74.61,112.4,74.75,112.45,75.05Z"/><path class="cls-6" d="M105.79,80.56a6.85,6.85,0,0,0,0,.91.22.22,0,0,0,.44,0,6.85,6.85,0,0,0,0-.91A.27.27,0,0,0,105.79,80.56Z"/><path class="cls-6" d="M107.78,95.74a5.59,5.59,0,0,0-.12.82c0,.27.37.3.45.06a5.74,5.74,0,0,0,.2-.74C108.37,95.54,107.86,95.39,107.78,95.74Z"/><path class="cls-6" d="M92.59,110.17c-.13.19.12.42.3.31a.92.92,0,0,0,.46-.79.26.26,0,0,0-.51-.07A1.38,1.38,0,0,1,92.59,110.17Z"/><path class="cls-6" d="M93.66,120.37c-.5.45-1,.91-1.48,1.39-.2.19.09.47.3.3L94,120.73C94.26,120.51,93.9,120.15,93.66,120.37Z"/><path class="cls-6" d="M84.11,125.1a2.93,2.93,0,0,1-1.78,1.17c-.24,0-.13.38.09.35a3,3,0,0,0,2.11-1.28C84.71,125.09,84.29,124.85,84.11,125.1Z"/><path class="cls-6" d="M52.49,125.63a2.66,2.66,0,0,1-1-.16c-.23-.09-.39.31-.16.41a1.83,1.83,0,0,0,1.22.13A.2.2,0,0,0,52.49,125.63Z"/><path class="cls-6" d="M43.69,74c.41,0,.78-.38,1.13-.57.57-.3,1,.14,1.58.15a.43.43,0,0,0,.37-.64,1.69,1.69,0,0,0-2-.53c-.51.19-1.29.8-1.26,1.39A.19.19,0,0,0,43.69,74Z"/><path class="cls-6" d="M57.55,73.47c-.15.23.14.48.36.36a1.1,1.1,0,0,1,1.61.42.36.36,0,0,0,.66-.28A1.47,1.47,0,0,0,57.55,73.47Z"/><path class="cls-7" d="M43.9,96.4c-.21-.19-.54.13-.32.32l1.24,1c.18.14.44-.1.26-.27C44.7,97.11,44.31,96.75,43.9,96.4Z"/><path class="cls-7" d="M63,62.68a3.33,3.33,0,0,1,1.17.63.18.18,0,0,0,.25-.25,2.28,2.28,0,0,0-1.31-.78A.21.21,0,0,0,63,62.68Z"/><path class="cls-7" d="M39.51,115.28c-.17-.19-.45.09-.28.28a3.09,3.09,0,0,0,1.3.93.17.17,0,0,0,.13-.31A5,5,0,0,1,39.51,115.28Z"/><path class="cls-7" d="M40.57,103.51c-.16-.17-.41.08-.26.25a15.74,15.74,0,0,0,1.24,1.34c.13.12.38,0,.26-.21A18,18,0,0,0,40.57,103.51Z"/><path class="cls-7" d="M51,60.81c.56-.19,1.11-.4,1.66-.63.17-.07.11-.35-.09-.29-.56.18-1.11.37-1.66.58C50.73,60.55,50.81,60.89,51,60.81Z"/><path class="cls-7" d="M46.91,89.88a1.88,1.88,0,0,1-1.22-.71c-.16-.2-.51.07-.35.28a1.93,1.93,0,0,0,1.57.79A.18.18,0,0,0,46.91,89.88Z"/><path class="cls-7" d="M56.53,97.27c-.25-.13-.47.24-.22.38a10.74,10.74,0,0,0,1.42.76c.22.09.31-.24.15-.37A12.74,12.74,0,0,0,56.53,97.27Z"/><path class="cls-7" d="M52.49,125.63a2.66,2.66,0,0,1-1-.16c-.23-.09-.39.31-.16.41a1.83,1.83,0,0,0,1.22.13A.2.2,0,0,0,52.49,125.63Z"/><path class="cls-7" d="M69.7,74.1c.25-4-2.66-7.58-6-9.33-3.88-2-8.7-1.41-12.51.41C45,59.72,35.93,64.6,35.55,72.49c-.4,8.4,7.8,14.91,15.53,15.5S69.17,82.58,69.7,74.1Z"/><path class="cls-7" d="M56.49,107.91c-.51-.23-1-.45-1.54-.64-.22-.08-.3.25-.09.34.5.21,1,.38,1.52.55C56.53,108.21,56.63,108,56.49,107.91Z"/><path class="cls-7" d="M57.53,114.31a10.64,10.64,0,0,0-1.26-.19c-.26,0-.32.41-.06.45.42.06.84.13,1.26.15A.21.21,0,0,0,57.53,114.31Z"/><path class="cls-7" d="M22.48,39.88a2.73,2.73,0,0,0-.35,1.31c0,.19.3.28.38.1A2.71,2.71,0,0,0,22.84,40,.2.2,0,0,0,22.48,39.88Z"/><path class="cls-7" d="M66.54,92a1.49,1.49,0,0,0-1.07-.41c-.28,0-.37.47-.07.52a3.1,3.1,0,0,1,.85.26C66.49,92.51,66.76,92.21,66.54,92Z"/><path class="cls-7" d="M25.39,63.57a7.58,7.58,0,0,0,0-1.26.25.25,0,0,0-.49,0,7.58,7.58,0,0,0,0,1.26A.21.21,0,0,0,25.39,63.57Z"/><path class="cls-7" d="M18.91,73.47a4.83,4.83,0,0,0,0,1.42.24.24,0,0,0,.45,0,4.51,4.51,0,0,0,0-1.42A.24.24,0,0,0,18.91,73.47Z"/><path class="cls-7" d="M24.57,87.15a5.82,5.82,0,0,0,.76,1.41c.13.16.39,0,.33-.19a5.86,5.86,0,0,0-.79-1.4A.18.18,0,0,0,24.57,87.15Z"/><path class="cls-7" d="M19.8,55.21a12.27,12.27,0,0,0,.05,1.36.21.21,0,0,0,.41,0c0-.45,0-.9,0-1.36A.26.26,0,0,0,19.8,55.21Z"/><path class="cls-7" d="M32,88.73a5.76,5.76,0,0,1,.78,1.12.18.18,0,0,0,.32-.14,3.76,3.76,0,0,0-.78-1.3C32.08,88.19,31.76,88.51,32,88.73Z"/><path class="cls-7" d="M29.58,38.56a4.58,4.58,0,0,0,.33-1.09.18.18,0,0,0-.35-.1,4.23,4.23,0,0,0-.33,1.1C29.2,38.66,29.49,38.72,29.58,38.56Z"/><path class="cls-7" d="M25.54,75.59a7.06,7.06,0,0,1-.12,1.59.23.23,0,0,0,.45.13A3.51,3.51,0,0,0,26,75.52C26,75.25,25.52,75.31,25.54,75.59Z"/><path class="cls-7" d="M27,99.62a.21.21,0,0,0-.37.21A3.15,3.15,0,0,0,28,101.1a.19.19,0,0,0,.19-.32A4.37,4.37,0,0,1,27,99.62Z"/><path class="cls-7" d="M26.19,49.43a10.72,10.72,0,0,0-.39,1.37c0,.21.27.38.37.16a10.09,10.09,0,0,0,.46-1.41A.23.23,0,0,0,26.19,49.43Z"/><path class="cls-7" d="M108.4,63.82a3.2,3.2,0,0,1-.8,1.84.17.17,0,0,0,.24.24,2.73,2.73,0,0,0,1-2.08C108.88,63.52,108.42,63.52,108.4,63.82Z"/><path class="cls-7" d="M97.84,54c-.15.7-.29,1.41-.4,2.12,0,.22.28.32.34.1.19-.7.36-1.4.5-2.1A.23.23,0,0,0,97.84,54Z"/><path class="cls-7" d="M96.67,66.32a4.31,4.31,0,0,0-.15,1.12c0,.18.29.3.38.1a4.05,4.05,0,0,0,.23-1.15C97.16,66.13,96.72,66.07,96.67,66.32Z"/><path class="cls-7" d="M95.88,82.68a3.14,3.14,0,0,1-.34,1.44c-.08.16.12.34.25.2a2,2,0,0,0,.49-1.64C96.26,82.42,95.87,82.42,95.88,82.68Z"/><path class="cls-7" d="M94.68,59.89A2.54,2.54,0,0,1,94.44,61a.18.18,0,0,0,.3.18,2.08,2.08,0,0,0,.37-1.3C95.1,59.61,94.67,59.61,94.68,59.89Z"/><path class="cls-7" d="M100.69,91.89c-.68,5.23-1.73,10.29-2.81,15.44a.3.3,0,0,0,.58.16A60.24,60.24,0,0,0,101,91.89C101,91.66,100.71,91.68,100.69,91.89Z"/><path class="cls-7" d="M112.45,75.05a2.14,2.14,0,0,1-.38,1.49c-.15.22.17.45.35.27a1.94,1.94,0,0,0,.5-1.89C112.85,74.61,112.4,74.75,112.45,75.05Z"/><path class="cls-7" d="M93.66,120.37c-.5.45-1,.91-1.48,1.39-.2.19.09.47.3.3L94,120.73C94.26,120.51,93.9,120.15,93.66,120.37Z"/><path class="cls-7" d="M107.78,95.74a5.59,5.59,0,0,0-.12.82c0,.27.37.3.45.06a5.74,5.74,0,0,0,.2-.74C108.37,95.54,107.86,95.39,107.78,95.74Z"/><path class="cls-7" d="M105.79,80.56a6.85,6.85,0,0,0,0,.91.22.22,0,0,0,.44,0,6.85,6.85,0,0,0,0-.91A.27.27,0,0,0,105.79,80.56Z"/><path class="cls-7" d="M92.24,98.43a4.21,4.21,0,0,1,.61-1.59c.19-.28-.25-.52-.44-.26a2.67,2.67,0,0,0-.61,1.79C91.82,98.61,92.18,98.69,92.24,98.43Z"/><path class="cls-7" d="M67.67,102.77a3,3,0,0,1-1.68.31c-.3,0-.43.41-.12.47a2.48,2.48,0,0,0,2.06-.44C68.13,102.94,67.87,102.68,67.67,102.77Z"/><path class="cls-7" d="M84.11,125.1a2.93,2.93,0,0,1-1.78,1.17c-.24,0-.13.38.09.35a3,3,0,0,0,2.11-1.28C84.71,125.09,84.29,124.85,84.11,125.1Z"/><path class="cls-7" d="M78.64,95a7.44,7.44,0,0,1-1.3.46c-.22,0-.18.43,0,.4a3.33,3.33,0,0,0,1.47-.49A.22.22,0,0,0,78.64,95Z"/><path class="cls-7" d="M73.23,116.86a9.12,9.12,0,0,0-1.27-.22c-.3,0-.37.49-.07.53a9.28,9.28,0,0,0,1.28.14A.23.23,0,0,0,73.23,116.86Z"/><path class="cls-7" d="M69.24,124.86a15.12,15.12,0,0,0-1.51.13c-.25,0-.26.42,0,.4a13.77,13.77,0,0,0,1.56-.17C69.5,125.18,69.44,124.86,69.24,124.86Z"/><path class="cls-7" d="M78.49,107.24a2,2,0,0,1-1.1.22c-.28,0-.34.45-.06.5a1.52,1.52,0,0,0,1.44-.37C79,107.4,78.72,107.13,78.49,107.24Z"/><path class="cls-7" d="M86.45,88.26a13.83,13.83,0,0,0-1.24,1.18.25.25,0,0,0,.35.35,11.43,11.43,0,0,0,1.18-1.23A.21.21,0,0,0,86.45,88.26Z"/><path class="cls-7" d="M91.51,77.49a14.81,14.81,0,0,0-.4,1.87c0,.22.3.23.37,0a13.71,13.71,0,0,0,.46-1.81A.22.22,0,0,0,91.51,77.49Z"/><path class="cls-7" d="M91.76,69.75a2,2,0,0,0,0-.65.21.21,0,0,0-.41,0,2,2,0,0,0,0,.65A.19.19,0,0,0,91.76,69.75Z"/><path class="cls-7" d="M92.59,110.17c-.13.19.12.42.3.31a.92.92,0,0,0,.46-.79.26.26,0,0,0-.51-.07A1.38,1.38,0,0,1,92.59,110.17Z"/><path class="cls-5" d="M106.08,59.36l.06,0h0Z"/><polygon class="cls-5" points="106.14 59.38 106.15 59.38 106.14 59.38 106.14 59.38"/><path class="cls-5" d="M116,62.13h0a67.26,67.26,0,0,1-9.82-2.75.29.29,0,0,1,.17.31c-.67,3.84-1.93,8.08-4.25,11.27a.2.2,0,0,1-.19.07c-.53,6.14-.82,12.26-.85,18.43a.38.38,0,0,1-.75,0c-1.2-13.28,2-26.67,2.31-40a7.64,7.64,0,0,1-2.51,1.28.33.33,0,0,1-.4-.23,8.51,8.51,0,0,1-.16-1.79c-.54.23-1.07.47-1.59.71-.19.08-.48,0-.52-.21-.28-1.86-1.1-.92-2.08,0a19.15,19.15,0,0,0-1.44,1.55A22.83,22.83,0,0,0,91,55.55a67.21,67.21,0,0,0-3.37,10.53c.11.23.22.45.32.68s-.29.49-.47.28l-.09-.14a.23.23,0,0,1-.42-.16l.06-.33c-.12-.16-.25-.33-.36-.5-.95,3.72-1.61,7.47-2.4,11.23a.16.16,0,0,1-.28.06.33.33,0,0,1-.34-.1c-.17-.22-.34-.44-.49-.67-1.23,4.12-3.3,8.29-6.59,11.1a.24.24,0,0,1-.14.31L76,88a14.59,14.59,0,0,1-2,1.3.14.14,0,0,1-.14-.25c.35-.27.68-.54,1-.82a11.37,11.37,0,0,1-8.81-2.82.15.15,0,0,1,.19-.24l.11.07c2.59-5,6.4-10.6,4.35-16.46C68.92,63.48,63.66,58,57.71,58.42l-.08.07c-.28.21-.54-.22-.35-.45a9.56,9.56,0,0,1,.75-.8,27,27,0,0,0-7.91.82,7,7,0,0,1-.58.68c-.24.25-.67-.07-.48-.36a.41.41,0,0,1,.07-.11.18.18,0,0,1,0-.34l.24-.09.39-.68A21.82,21.82,0,0,0,33.2,82.29a.19.19,0,0,1,0,.15c.14.38.27.77.41,1.16.08.21-.26.35-.35.15a44.85,44.85,0,0,1-3.48-24.28c.69-5.08,1.84-10.07,2.3-15.18a30.92,30.92,0,0,0,.17-6.23,13.31,13.31,0,0,0-.77-3.58c-.54-1.31-1.63-.29-2.43,0-.35.15-.54-.36-.3-.58-.27-.6-.72-1.53-1.18-1.06a9,9,0,0,1-1.37,1.39c-.24.15-.43-.13-.34-.34a1.9,1.9,0,0,1,.2-.37c-.6-1.24-.89-1.57-2-.26a20.31,20.31,0,0,0-2.37,3.4A50.68,50.68,0,0,0,18.55,44Q15.91,51.4,13.91,59l.69-.58a.35.35,0,0,1,.58.33c-1.77,6.9-1.53,14.72-.91,21.78.65,7.43,3.35,14.23,5.82,21.21,2.3,6.48,4.7,12.87,9.58,17.89a51.12,51.12,0,0,0,16,10.9,71.4,71.4,0,0,0,10.38,3.83,35,35,0,0,0,10.16.9,57.35,57.35,0,0,0,19.79-4,34.1,34.1,0,0,0,13.52-9.33c4.3-5.15,6.84-11.64,9-17.93a204.66,204.66,0,0,0,5.39-20.25c.77-3.48,1.64-7,2.17-10.48a39.23,39.23,0,0,0,.51-5.73C116.55,66.19,116.86,63.24,116,62.13ZM19.37,74.89a.24.24,0,0,1-.45,0,4.83,4.83,0,0,1,0-1.42.24.24,0,0,1,.48,0A4.51,4.51,0,0,1,19.37,74.89Zm.89-18.32a.21.21,0,0,1-.41,0,12.27,12.27,0,0,1-.05-1.36.26.26,0,0,1,.51,0C20.31,55.67,20.3,56.12,20.26,56.57Zm2.25-15.28c-.08.18-.39.09-.38-.1a2.73,2.73,0,0,1,.35-1.31.2.2,0,0,1,.36.1A2.71,2.71,0,0,1,22.51,41.29Zm2.43,21a.25.25,0,0,1,.49,0,7.58,7.58,0,0,1,0,1.26.21.21,0,0,1-.41,0A7.58,7.58,0,0,1,24.94,62.31Zm.39,26.25a5.82,5.82,0,0,1-.76-1.41.18.18,0,0,1,.3-.18,5.86,5.86,0,0,1,.79,1.4C25.72,88.55,25.46,88.72,25.33,88.56Zm.54-11.25a.23.23,0,0,1-.45-.13,7.06,7.06,0,0,0,.12-1.59c0-.28.44-.34.48-.07A3.51,3.51,0,0,1,25.87,77.31ZM26.17,51c-.1.22-.4,0-.37-.16a10.72,10.72,0,0,1,.39-1.37.23.23,0,0,1,.44.12A10.09,10.09,0,0,1,26.17,51ZM28,101.1a3.15,3.15,0,0,1-1.29-1.27.21.21,0,0,1,.37-.21,4.37,4.37,0,0,0,1.11,1.16A.19.19,0,0,1,28,101.1Zm1.28-62.63a4.23,4.23,0,0,1,.33-1.1.18.18,0,0,1,.35.1,4.58,4.58,0,0,1-.33,1.09C29.49,38.72,29.2,38.66,29.23,38.47Zm3.51,51.38A5.76,5.76,0,0,0,32,88.73c-.2-.22.12-.54.32-.32a3.76,3.76,0,0,1,.78,1.3A.18.18,0,0,1,32.74,89.85ZM63.11,62.28a2.28,2.28,0,0,1,1.31.78.18.18,0,0,1-.25.25A3.33,3.33,0,0,0,63,62.68.21.21,0,0,1,63.11,62.28ZM50.94,60.47c.55-.21,1.1-.4,1.66-.58.2-.06.26.22.09.29-.55.23-1.1.44-1.66.63C50.81,60.89,50.73,60.55,50.94,60.47Zm-10.41,56a3.09,3.09,0,0,1-1.3-.93c-.17-.19.11-.47.28-.28a5,5,0,0,0,1.15.9A.17.17,0,0,1,40.53,116.49Zm1-11.39a15.74,15.74,0,0,1-1.24-1.34c-.15-.17.1-.42.26-.25a18,18,0,0,1,1.24,1.38C41.93,105.05,41.68,105.22,41.55,105.1Zm3.27-7.35-1.24-1c-.22-.19.11-.51.32-.32.41.35.8.71,1.18,1.08C45.26,97.65,45,97.89,44.82,97.75Zm2.09-7.51a1.93,1.93,0,0,1-1.57-.79c-.16-.21.19-.48.35-.28a1.88,1.88,0,0,0,1.22.71A.18.18,0,0,1,46.91,90.24ZM52.55,126a1.83,1.83,0,0,1-1.22-.13c-.23-.1-.07-.5.16-.41a2.66,2.66,0,0,0,1,.16A.2.2,0,0,1,52.55,126ZM55,107.27c.53.19,1,.41,1.54.64.14.06,0,.3-.11.25-.51-.17-1-.34-1.52-.55C54.65,107.52,54.73,107.19,55,107.27Zm2.52,7.45c-.42,0-.84-.09-1.26-.15-.26,0-.2-.48.06-.45a10.64,10.64,0,0,1,1.26.19A.21.21,0,0,1,57.47,114.72Zm.26-16.31a10.74,10.74,0,0,1-1.42-.76c-.25-.14,0-.51.22-.38a12.74,12.74,0,0,1,1.35.77C58,98.17,58,98.5,57.73,98.41ZM51.08,88c-7.73-.59-15.93-7.1-15.53-15.5.38-7.89,9.48-12.77,15.66-7.31,3.81-1.82,8.63-2.45,12.51-.41,3.32,1.75,6.23,5.37,6,9.33C69.17,82.58,58.91,88.59,51.08,88Zm14.39,3.62a1.49,1.49,0,0,1,1.07.41c.22.19-.05.49-.29.37a3.1,3.1,0,0,0-.85-.26C65.1,92.08,65.19,91.62,65.47,91.61Zm.4,11.94c-.31-.06-.18-.51.12-.47a3,3,0,0,0,1.68-.31c.2-.09.46.17.26.34A2.48,2.48,0,0,1,65.87,103.55Zm3.42,21.67a13.77,13.77,0,0,1-1.56.17c-.26,0-.25-.37,0-.4a15.12,15.12,0,0,1,1.51-.13C69.44,124.86,69.5,125.18,69.29,125.22Zm3.88-7.91a9.28,9.28,0,0,1-1.28-.14c-.3,0-.23-.57.07-.53a9.12,9.12,0,0,1,1.27.22A.23.23,0,0,1,73.17,117.31Zm5.6-9.72a1.52,1.52,0,0,1-1.44.37c-.28,0-.22-.53.06-.5a2,2,0,0,0,1.1-.22C78.72,107.13,79,107.4,78.77,107.59Zm.09-12.21a3.33,3.33,0,0,1-1.47.49c-.23,0-.27-.35,0-.4a7.44,7.44,0,0,0,1.3-.46A.22.22,0,0,1,78.86,95.38Zm5.67,30a3,3,0,0,1-2.11,1.28c-.22,0-.33-.3-.09-.35a2.93,2.93,0,0,0,1.78-1.17C84.29,124.85,84.71,125.09,84.53,125.34Zm2.21-36.78a11.43,11.43,0,0,1-1.18,1.23.25.25,0,0,1-.35-.35,13.83,13.83,0,0,1,1.24-1.18A.21.21,0,0,1,86.74,88.56Zm6.61,21.13a.92.92,0,0,1-.46.79c-.18.11-.43-.12-.3-.31a1.38,1.38,0,0,0,.25-.55A.26.26,0,0,1,93.35,109.69Zm-2-40.59a.21.21,0,0,1,.41,0,2,2,0,0,1,0,.65.19.19,0,0,1-.37,0A2,2,0,0,1,91.37,69.1Zm-.26,10.26a14.81,14.81,0,0,1,.4-1.87.22.22,0,0,1,.43.11,13.71,13.71,0,0,1-.46,1.81C91.41,79.59,91.09,79.58,91.11,79.36Zm.69,19a2.67,2.67,0,0,1,.61-1.79c.19-.26.63,0,.44.26a4.21,4.21,0,0,0-.61,1.59C92.18,98.69,91.82,98.61,91.8,98.37ZM94,120.73l-1.54,1.33c-.21.17-.5-.11-.3-.3.48-.48,1-.94,1.48-1.39C93.9,120.15,94.26,120.51,94,120.73Zm.72-59.54a.18.18,0,0,1-.3-.18,2.54,2.54,0,0,0,.24-1.12c0-.28.42-.28.43,0A2.08,2.08,0,0,1,94.74,61.19Zm1.05,23.13c-.13.14-.33,0-.25-.2a3.14,3.14,0,0,0,.34-1.44c0-.26.38-.26.4,0A2,2,0,0,1,95.79,84.32ZM96.9,67.54c-.09.2-.36.08-.38-.1a4.31,4.31,0,0,1,.15-1.12c0-.25.49-.19.46.07A4.05,4.05,0,0,1,96.9,67.54Zm.54-11.47c.11-.71.25-1.42.4-2.12a.23.23,0,0,1,.44.12c-.14.7-.31,1.4-.5,2.1C97.72,56.39,97.41,56.29,97.44,56.07Zm1,51.42a.3.3,0,0,1-.58-.16c1.08-5.15,2.13-10.21,2.81-15.44,0-.21.34-.23.34,0A60.24,60.24,0,0,1,98.46,107.49Zm7.82-26a.22.22,0,0,1-.44,0,6.85,6.85,0,0,1,0-.91.27.27,0,0,1,.54,0A6.85,6.85,0,0,1,106.28,81.47Zm1.83,15.15c-.08.24-.48.21-.45-.06a5.59,5.59,0,0,1,.12-.82c.08-.35.59-.2.53.14A5.74,5.74,0,0,1,108.11,96.62Zm-.27-30.72a.17.17,0,0,1-.24-.24,3.2,3.2,0,0,0,.8-1.84c0-.3.48-.3.46,0A2.73,2.73,0,0,1,107.84,65.9Zm4.58,10.91c-.18.18-.5,0-.35-.27a2.14,2.14,0,0,0,.38-1.49c0-.3.4-.44.47-.13A1.94,1.94,0,0,1,112.42,76.81Z"/><path class="cls-8" d="M116,62.13q-1.73-.37-3.45-.81a38.28,38.28,0,0,0,.06,4.38c.26,3.73-.85,8.55-3.31,11.52-.62-.52-1.22-1.15-1.82-1.7-1.37,1.17-2.59,2.56-3.93,3.78a32,32,0,0,1-1.8-6.17c-.42,5.44-.66,10.86-.69,16.33a.38.38,0,0,1-.75,0c-1.2-13.28,2-26.67,2.31-40a7.64,7.64,0,0,1-2.51,1.28.33.33,0,0,1-.4-.23,6,6,0,0,1-.1-.69A31.17,31.17,0,0,0,98.27,54a.07.07,0,0,1,0,.06c-.08.41-.19.81-.29,1.21-.18.93-.33,1.84-.43,2.72q-.53,4.39-1,8.8c0-.16.07-.32.1-.48s.49-.19.46.07a4.05,4.05,0,0,1-.23,1.15c-.09.2-.36.08-.38-.1v-.12c-.23,2.21-.45,4.41-.64,6.62C95,84.44,91,95.85,86.66,105.29a13.51,13.51,0,0,1,3.3.27A27.12,27.12,0,0,1,78.73,113a91.88,91.88,0,0,1-11.16,3.12c-3.38.69-7.56-.57-10.65.47a45.06,45.06,0,0,1,.06,4.79c-13.57-4.6-19.82-17.6-28.45-27.63A9.59,9.59,0,0,0,26,97.62C23.43,91.1,21.91,83.84,20.58,77c-1.2-6.22.12-12.5-.29-18.75-.49.46-1.13.63-1.54,1.3-.39-4.05,1.54-8.45,2.62-12.28.73-2.6,1.87-11.5,4.56-13.88-.53-1.07-.85-1.31-1.89-.07a20.31,20.31,0,0,0-2.37,3.4A50.68,50.68,0,0,0,18.55,44Q15.91,51.4,13.91,59l.69-.58a.35.35,0,0,1,.58.33c-1.77,6.9-1.53,14.72-.91,21.78.65,7.43,3.35,14.23,5.82,21.21,2.3,6.48,4.7,12.87,9.58,17.89a51.12,51.12,0,0,0,16,10.9,71.4,71.4,0,0,0,10.38,3.83,35,35,0,0,0,10.16.9,57.35,57.35,0,0,0,19.79-4,34.1,34.1,0,0,0,13.52-9.33c4.3-5.15,6.84-11.64,9-17.93a204.66,204.66,0,0,0,5.39-20.25c.77-3.48,1.64-7,2.17-10.48a39.23,39.23,0,0,0,.51-5.73c0-1.35.31-4.3-.58-5.41ZM22.48,39.88a.2.2,0,0,1,.36.1,2.71,2.71,0,0,1-.33,1.31c-.08.18-.39.09-.38-.1A2.73,2.73,0,0,1,22.48,39.88Zm-3.11,35a.24.24,0,0,1-.45,0,4.83,4.83,0,0,1,0-1.42.24.24,0,0,1,.48,0A4.51,4.51,0,0,1,19.37,74.89ZM28,101.1a3.15,3.15,0,0,1-1.29-1.27.21.21,0,0,1,.37-.21,4.37,4.37,0,0,0,1.11,1.16A.19.19,0,0,1,28,101.1Zm12.58,15.39a3.09,3.09,0,0,1-1.3-.93c-.17-.19.11-.47.28-.28a5,5,0,0,0,1.15.9A.17.17,0,0,1,40.53,116.49Zm12,9.52a1.83,1.83,0,0,1-1.22-.13c-.23-.1-.07-.5.16-.41a2.66,2.66,0,0,0,1,.16A.2.2,0,0,1,52.55,126Zm16.74-.79a13.77,13.77,0,0,1-1.56.17c-.26,0-.25-.37,0-.4a15.12,15.12,0,0,1,1.51-.13C69.44,124.86,69.5,125.18,69.29,125.22Zm3.88-7.91a9.28,9.28,0,0,1-1.28-.14c-.3,0-.23-.57.07-.53a9.12,9.12,0,0,1,1.27.22A.23.23,0,0,1,73.17,117.31Zm11.36,8a3,3,0,0,1-2.11,1.28c-.22,0-.33-.3-.09-.35a2.93,2.93,0,0,0,1.78-1.17C84.29,124.85,84.71,125.09,84.53,125.34Zm8.82-15.65a.92.92,0,0,1-.46.79c-.18.11-.43-.12-.3-.31a1.38,1.38,0,0,0,.25-.55A.26.26,0,0,1,93.35,109.69ZM91.8,98.37a2.67,2.67,0,0,1,.61-1.79c.19-.26.63,0,.44.26a4.21,4.21,0,0,0-.61,1.59C92.18,98.69,91.82,98.61,91.8,98.37ZM94,120.73l-1.54,1.33c-.21.17-.5-.11-.3-.3.48-.48,1-.94,1.48-1.39C93.9,120.15,94.26,120.51,94,120.73Zm1.77-36.41c-.13.14-.33,0-.25-.2a3.14,3.14,0,0,0,.34-1.44c0-.26.38-.26.4,0A2,2,0,0,1,95.79,84.32Zm2.67,23.17a.3.3,0,0,1-.58-.16c1.08-5.15,2.13-10.21,2.81-15.44,0-.21.34-.23.34,0A60.24,60.24,0,0,1,98.46,107.49Zm7.82-26a.22.22,0,0,1-.44,0,6.85,6.85,0,0,1,0-.91.27.27,0,0,1,.54,0A6.85,6.85,0,0,1,106.28,81.47Zm1.83,15.15c-.08.24-.48.21-.45-.06a5.59,5.59,0,0,1,.12-.82c.08-.35.59-.2.53.14A5.74,5.74,0,0,1,108.11,96.62Zm4.31-19.81c-.18.18-.5,0-.35-.27a2.14,2.14,0,0,0,.38-1.49c0-.3.4-.44.47-.13A1.94,1.94,0,0,1,112.42,76.81Z"/><path class="cls-8" d="M75.26,87.46c.91-1.83.81-4,1-6,.16-1.67.29-3.34.57-5a.2.2,0,0,1,.28-.15.24.24,0,0,1,.28,0,5.72,5.72,0,0,1,.8.59c.39-3.88.56-7.56-.76-11.35-.07-.19.18-.31.32-.2a.17.17,0,0,1,.14,0A3.32,3.32,0,0,1,79,65.8c-.49-2.38-1.05-4.75-1.71-7.09-.74-2.59-1.82-5.16-2.41-7.79-1.51-.37-3-.76-4.51-1.16,1.27,3.94.45,8.51.67,12.57a14.3,14.3,0,0,0,1.07-1.18c0,.32,0,.64,0,1a.19.19,0,0,1,.16.19,4.43,4.43,0,0,1,0,1.26.14.14,0,0,1-.1.11,38.31,38.31,0,0,1-.5,6.06c1.18,5.46-1.87,11.35-4.88,15.69h0A13.49,13.49,0,0,0,75.26,87.46ZM72.73,55.55a14.32,14.32,0,0,1-.33-1.85c0-.21.31-.25.36-.05A14.75,14.75,0,0,1,73,55.52C73,55.68,72.76,55.72,72.73,55.55ZM74,79.81c0-.25,0-.5,0-.76a.25.25,0,0,1,.49,0,6.34,6.34,0,0,1,0,.76A.21.21,0,0,1,74,79.81Z"/><path class="cls-9" d="M30.81,41a.32.32,0,0,0-.6,0c-.2.53-.3,1.11-.49,1.66a3,3,0,0,0-.31,1.71.44.44,0,0,0,.79.1,4.56,4.56,0,0,0,.56-1.75A3.24,3.24,0,0,0,30.81,41Z"/><path class="cls-9" d="M30.12,46.49a.52.52,0,0,0-1,0c0,.34.12.84-.07,1.15s.22.72.58.57C30.31,47.88,30.15,47.13,30.12,46.49Z"/><path class="cls-9" d="M66,51.43c-.27-.18-.56.16-.42.42a2.54,2.54,0,0,1,0,1.8.31.31,0,0,0,.56.23C66.48,53.13,66.82,52,66,51.43Z"/><path class="cls-9" d="M66.49,55c-.08-.52-.95-.39-.92.13s-.16,1.2-.15,1.81a.4.4,0,0,0,.78.1A5.24,5.24,0,0,0,66.49,55Z"/><path class="cls-9" d="M91.74,60.08a1.63,1.63,0,0,0-.43,0c.24-.27.49-.54.72-.83s1.08-1.28.35-1.46a.71.71,0,0,0-.71.28c-.24.24-.52.45-.77.69a3.07,3.07,0,0,0-1.11,1.68.54.54,0,0,0,.11.39,1.76,1.76,0,0,0-.32,1.45.47.47,0,0,0,.9,0c.1-.52.54-1.24,1.14-1.25A.46.46,0,0,0,91.74,60.08Z"/><path class="cls-9" d="M87.53,72.4a.45.45,0,0,0-.89.12,7.11,7.11,0,0,1-.39,1.7c-.15.38.41.66.67.39A2.33,2.33,0,0,0,87.53,72.4Z"/><path class="cls-9" d="M87.17,74.4a3.52,3.52,0,0,0-1,1.84c-.09.41.47.83.77.45s.58-1.06,1-1.54S87.68,73.93,87.17,74.4Z"/><path class="cls-9" d="M104.47,68.66c-.59.37-.73,1.09-1.3,1.46-.38.25-.14.91.33.76a2.92,2.92,0,0,0,1.71-1.49A.54.54,0,0,0,104.47,68.66Z"/><path class="cls-9" d="M73,89.73a7.94,7.94,0,0,0-1.74-.31.49.49,0,0,0-.18-.55c-1.22-.77-2.75-.83-4.06-1.4-.58-.25-1.08.55-.5.87a11.12,11.12,0,0,0,3.9,1.32.53.53,0,0,0,.42.81,20,20,0,0,0,2,.16A.46.46,0,0,0,73,89.73Z"/></g></svg>