<svg xmlns="http://www.w3.org/2000/svg" viewBox="0 0 204.78 60"><defs><style>.cls-1{fill:#fff;}.cls-2{fill:#dd8549;}.cls-3{fill:#fffad1;}.cls-4{fill:#332833;}.cls-5{fill:#f79b42;}.cls-6{fill:#c76c36;}</style></defs><g id="Layer_2" data-name="Layer 2"><path class="cls-1" d="M27.51,23c.08-.77.11-1.15.19-1.92,0-1.89-.58-3.12-1.71-3.61a5.74,5.74,0,0,0-2-.54h-.05a5,5,0,0,0-2.48.6A3.83,3.83,0,0,0,19.89,19a8.57,8.57,0,0,0-1.14,3.82,5.58,5.58,0,0,0,1.62,4.1,14.85,14.85,0,0,0,3.93,2.9q2.29,1.2,4.61,2.56a11.47,11.47,0,0,1,3.93,4,12.06,12.06,0,0,1,1.62,6.45q0,7.49-3.69,11.59a12.54,12.54,0,0,1-8.38,4.53,10.08,10.08,0,0,1-7.76-2.27,9.38,9.38,0,0,1-3.07-7.47v-.06A14,14,0,0,1,12.1,45a7.11,7.11,0,0,1,1.31-2.6,5.13,5.13,0,0,1,2.86-1.9l.57-.08a3.89,3.89,0,0,1,2.43.77,2.71,2.71,0,0,1,1.1,2.31,1.65,1.65,0,0,1-.62,1.28,4.16,4.16,0,0,0-1.07,1.55,5.12,5.12,0,0,0-.5,1.72l-.1.69c0,2.56.89,4.21,2.67,4.93a3.62,3.62,0,0,0,1.52.33,5.57,5.57,0,0,0,4.22-2.37,8.75,8.75,0,0,0,1.59-5.31,7.56,7.56,0,0,0-2.47-5.95,18.82,18.82,0,0,0-4-2.73c-1.44-.74-2.42-1.28-2.93-1.6s-1-.71-1.62-1.16A14,14,0,0,1,15.13,33a10.69,10.69,0,0,1-2.29-7.2,14.39,14.39,0,0,1,1.86-7.6,10.84,10.84,0,0,1,10-5.46,10.14,10.14,0,0,1,5.95,1.7,5.44,5.44,0,0,1,2.43,4.73,6.66,6.66,0,0,1-1,3.7,3.06,3.06,0,0,1-2.5,1.57,2.85,2.85,0,0,1-1.41-.32A1.15,1.15,0,0,1,27.51,23Z"/><path class="cls-1" d="M43.08,21.14c-.11,8.78-.17,13.18-.28,22q0,10.29.52,12.26a1.64,1.64,0,0,1,.14.69c0,.48-.46.79-1.38.91A6.1,6.1,0,0,1,39,56.51c-1.13-.44-1.69-1.12-1.69-2a216.36,216.36,0,0,0,1-22.7c-.07-3.69-.11-5.53-.19-9.23a9.26,9.26,0,0,0-.55-2.87,3.73,3.73,0,0,0-.88-1.53l-.38-.28a.66.66,0,0,1-.33-.54c0-.56.69-1.29,2.07-2.17a8.13,8.13,0,0,1,4-1.42c.51,0,.8.18.86.61C43,15.35,43.08,17.63,43.08,21.14Z"/><path class="cls-1" d="M51,32c-.81.11-1.43.23-1.79.28s-.55,0-.55-.26a1.24,1.24,0,0,1,.29-.74c2-2.53,5.46-4,10.28-4.58a11.7,11.7,0,0,1,3.91.06l.48.11c.38.14.57.33.57.56a.61.61,0,0,1-.34.5,9.44,9.44,0,0,0-2.47,1.77c-.8.78-1.19,1.3-1.19,1.57l.28.36a5.53,5.53,0,0,1,2.36,3,12.88,12.88,0,0,1,.93,3.82l.09,1.76A17.8,17.8,0,0,1,61.22,50a10.14,10.14,0,0,1-7.14,4.9,6.8,6.8,0,0,1-3.95-.37,5.52,5.52,0,0,1-2.45-1.91,9.61,9.61,0,0,1-1.27-2.7,16.59,16.59,0,0,1-.57-4.47,18.78,18.78,0,0,1,.65-4.8A12.1,12.1,0,0,1,48,36.94a9.25,9.25,0,0,1,1.88-2A4.89,4.89,0,0,1,52,33.77c.54-.06.81,0,.81.32s-.18.37-.29.62A11.48,11.48,0,0,0,51,38.88a25.83,25.83,0,0,0-.45,4.45,17.91,17.91,0,0,0,.38,3.74,9.55,9.55,0,0,0,.86,2.67A3.1,3.1,0,0,0,52.89,51a2.67,2.67,0,0,0,1.91.41,3.37,3.37,0,0,0,2-1.27,7,7,0,0,0,1.38-2.74,22.35,22.35,0,0,0,.86-6.1C59,38,58.31,35.6,57,34A6.31,6.31,0,0,0,51,32Z"/><path class="cls-1" d="M65.61,29.47c0-.92.08-1.38.14-2.3q0-.53.66-.6l1.67-.21c-.07-1.81-.11-2.71-.19-4.52v-.23a3.74,3.74,0,0,1,1.67-2.69,6,6,0,0,1,3-1.54q.42-.06.42.39v.06c-.12,1-.25,3.64-.38,7.86a18.64,18.64,0,0,0,2.67-.48l.62-.2c.22,0,.33.18.33.62a4.45,4.45,0,0,1-.52,1.78c-.35.74-.73,1.16-1.14,1.25l-2,.29c0,1.28,0,3.43,0,6.45s0,5.49.07,7.43.1,3.4.17,4.38.13,1.77.21,2.35.14,1,.19,1.26a3,3,0,0,1,.07.49.72.72,0,0,1-.62.73,9.94,9.94,0,0,1-3.69.09c-1.22-.19-1.83-.8-1.83-1.82a201.5,201.5,0,0,0,1-20.67,12.87,12.87,0,0,0-1.95.38h-.05C65.84,30.07,65.67,29.88,65.61,29.47Z"/><path class="cls-1" d="M83.13,18.87l0,5.34c0,.22.07.32.19.3a.66.66,0,0,0,.38-.22,7,7,0,0,1,3.77-1.49q4.32-.63,6,2.43A6.76,6.76,0,0,1,94,28.4q0,2-.21,5.67c-.14,2.42-.21,4.14-.21,5.14,0,3.5.44,5.74,1.33,6.7a.63.63,0,0,1,.24.48c0,.36-.69.68-2.05,1q-5.52,1.15-5.52-4.73a32.57,32.57,0,0,1,1-6.58,33,33,0,0,0,1-6.24,4.31,4.31,0,0,0-.81-2.88,2.32,2.32,0,0,0-2.24-.71,3.91,3.91,0,0,0-2.26,1.07,3.54,3.54,0,0,0-1,1.64l-.15.73q0,1.05,0,6.66a65.15,65.15,0,0,0,.24,7.23c.15,1.09.23,1.71.23,1.85a4.45,4.45,0,0,1-1.85,3.2,8.15,8.15,0,0,1-3.67,2c-.45.09-.67-.16-.67-.76l.1-1.07a186.88,186.88,0,0,0,1-20.41c0-2.81-.1-5.64-.29-8.51l0-1.21a7.59,7.59,0,0,0-.55-2.6,3.69,3.69,0,0,0-.83-1.35l-.43-.23a.52.52,0,0,1-.33-.46c0-.52.74-1.25,2.24-2.18a9.5,9.5,0,0,1,3.45-1.52c.81-.1,1.27.07,1.31.45C83.14,12.47,83.13,15.28,83.13,18.87Z"/><path class="cls-1" d="M126,4.2l6.86-.34q4.58-.47,6.57-1.76a1,1,0,0,1,.5-.23c.15,0,.22.2.22.65a6.26,6.26,0,0,1-.81,2.29,4.29,4.29,0,0,1-3.43,2.72l-2.62.24a.56.56,0,0,0-.48.5c-.22,4.81-.33,10-.33,15.57a83.27,83.27,0,0,0,.67,12.42v.25c0,.81-.76,1.6-2.26,2.38a16.1,16.1,0,0,1-4.27,1.57c-.63.13-1,0-1-.35a4.73,4.73,0,0,1,.14-.73q.52-1.2.93-10.75t.41-14.34l-.1-5.4a.27.27,0,0,0-.28-.31,12.19,12.19,0,0,0-2.29.08,6.22,6.22,0,0,0-3.81,1.58,1.2,1.2,0,0,1-.64.33c-.21,0-.31-.09-.31-.36a4.23,4.23,0,0,1,.59-1.74,12.18,12.18,0,0,1,1.27-2A6.34,6.34,0,0,1,126,4.2Z"/><path class="cls-1" d="M139.56,35.6c.21-4.52.31-6.77.52-11.28,0-2.66-.3-4.42-.9-5.3a1.66,1.66,0,0,0-.67-.63.33.33,0,0,1-.29-.35c0-.58.81-1.25,2.43-2a13.12,13.12,0,0,1,3.55-1.24c.75-.09,1.15.07,1.17.43,0,.6-.09,2.43-.26,5.41s-.27,6.1-.27,9.35.19,5.25.58,6a.85.85,0,0,1,.14.45c0,.41-.61.72-1.81.93a7.56,7.56,0,0,1-3.72-.29C139.72,37,139.56,36.46,139.56,35.6Zm3.81-24.7-1.15.08a2,2,0,0,0-1.66.81.35.35,0,0,1-.24.17c-.41,0-.62-.64-.62-2.07a4.14,4.14,0,0,1,.64-2.78,3.63,3.63,0,0,1,2.24-.8,3,3,0,0,1,2.17.34,2.22,2.22,0,0,1,.57,1.76,3,3,0,0,1-.43,1.83A2.14,2.14,0,0,1,143.37,10.9Z"/><path class="cls-1" d="M159.22,34.11a47.37,47.37,0,0,0,.67-9c0-3.85,0-6.12,0-6.82a2.27,2.27,0,0,0-.66-1.62,2.16,2.16,0,0,0-1.07-.63,6.4,6.4,0,0,0-1.27,0,2.54,2.54,0,0,0-1.57.87,3.1,3.1,0,0,0-.9,1.56c-.08.3-.12.45-.19.76-.1.94-.15,3-.15,6.17a47.69,47.69,0,0,0,.22,6,11.55,11.55,0,0,1,.21,1.61,1.42,1.42,0,0,1-.38.89,7.25,7.25,0,0,1-4.57,2.4c-.7.12-1,0-1-.43a91.22,91.22,0,0,0,.95-14.5,40.58,40.58,0,0,0-.14-4.34c-.07-.59-.11-.89-.19-1.48,0-.34-.15-.75-.19-1.11s.49-.61,1.48-.72c1.46-.15,2.43.28,2.9,1.28,0,.12.1.18.19.17a2.17,2.17,0,0,0,.67-.44,7.22,7.22,0,0,1,4.24-1.6,8,8,0,0,1,3,.28,3.55,3.55,0,0,1,2,1.28.13.13,0,0,0,.14.08.65.65,0,0,0,.28-.21A7.63,7.63,0,0,1,169,12.27c2.83-.18,4.77.66,5.81,2.47a5.64,5.64,0,0,1,.58,2.73c0,1.1-.1,2.68-.29,4.74s-.29,3.62-.29,4.7a10.7,10.7,0,0,0,.36,2.9,6.66,6.66,0,0,0,.72,1.81,2.72,2.72,0,0,1,.35.62c0,.38-.44.61-1.33.7q-3.28.36-4.57-.73a3.83,3.83,0,0,1-1.29-3.11,24.92,24.92,0,0,1,.88-5.56,23.68,23.68,0,0,0,.88-5.23c0-2.33-1-3.44-3-3.29a3.26,3.26,0,0,0-3,2.39l-.09.73c-.13,1.39-.19,3.07-.19,5s0,3.47.09,4.56.13,1.93.19,2.54.1,1,.1,1.09c0,.84-.56,1.55-1.67,2.15A9.74,9.74,0,0,1,160,34.63C159.49,34.71,159.22,34.54,159.22,34.11Z"/><path class="cls-1" d="M192.75,25.54a5.29,5.29,0,0,1-.74,2.79,5.64,5.64,0,0,1-1.67,1.83,9.21,9.21,0,0,1-2.16,1,12.84,12.84,0,0,1-3,.62c-2.67.2-4.64-.52-5.91-2.23a11.17,11.17,0,0,1-1.9-6.81,13.09,13.09,0,0,1,2.35-7.65,8.17,8.17,0,0,1,7.08-3.44c2.85,0,4.79.87,5.81,2.62a3.65,3.65,0,0,1,.61,1.9,8.73,8.73,0,0,1-.09,1.41,5.82,5.82,0,0,1-.67,1.56,7.23,7.23,0,0,1-1.52,1.91,10.78,10.78,0,0,1-3,1.69A21.17,21.17,0,0,1,183.13,24c-.26,0-.38.13-.38.33a3.08,3.08,0,0,0,.31,1.11,5,5,0,0,0,.69,1.22,3.74,3.74,0,0,0,3.09,1,5.67,5.67,0,0,0,3.48-1.35,5.25,5.25,0,0,0,1.24-1.59.58.58,0,0,1,.5-.35c.2,0,.37.14.5.44A2.15,2.15,0,0,1,192.75,25.54Zm-10.38-5.21,0,1.07q0,.26.39.24a7.84,7.84,0,0,0,2.66-.83,5.26,5.26,0,0,0,1.72-1.35,6,6,0,0,0,1.24-2.74l0-.5q0-2.28-2-2.25a3.08,3.08,0,0,0-2.48,1.25A7.86,7.86,0,0,0,182.37,20.33Z"/></g><g id="Layer_1" data-name="Layer 1"><path class="cls-2" d="M110,6.53c-1.73.39.18,1.84.48,2a11.65,11.65,0,0,1,3.22,2.2,3.32,3.32,0,0,0,.74-3.51,12.72,12.72,0,0,0-2.9-.73A5.67,5.67,0,0,0,110,6.53Zm2.08,1.52a.15.15,0,0,1-.27.07c-.32-.47-.69-.67-1.22-.35-.13.08-.24-.09-.15-.2A.94.94,0,0,1,112.12,8.05Z"/><path class="cls-2" d="M93.46,56.82a1.93,1.93,0,0,1,.28-.22,5.8,5.8,0,0,1,3.65-2.28.2.2,0,0,1,.09-.22,27.92,27.92,0,0,1,4.06-1.93c-5.94-.89-12.33-2.88-18.28-1-1.78.57-3.54,1.89-3.4,4,.2,2.94,3.41,2.65,5.49,2.28a35.2,35.2,0,0,1,8-.71A.19.19,0,0,1,93.46,56.82ZM82.77,55.16c-.21,0-.42,0-.64,0a.14.14,0,0,1,0-.28c.22,0,.43,0,.64,0A.11.11,0,0,1,82.77,55.16Zm1.74-2.67c-.19.07-.38.1-.57.15s-.23-.21-.07-.25a4.29,4.29,0,0,1,.6-.13C84.61,52.25,84.62,52.45,84.51,52.49ZM87,55.68a1.23,1.23,0,0,1-.65.13c-.25,0-.25-.41,0-.39a2,2,0,0,0,.54,0C87,55.39,87.12,55.61,87,55.68ZM90,53.33a3,3,0,0,1-.6,0,.14.14,0,0,1,0-.27,3,3,0,0,1,.6,0A.13.13,0,0,1,90,53.33ZM92.43,52a1.38,1.38,0,0,1-.35,0,.15.15,0,1,1,0-.3,2.07,2.07,0,0,1,.35,0A.12.12,0,0,1,92.43,52Zm1,1.88h.19a.08.08,0,0,1,0,.16l-.19,0C93.29,54.08,93.29,53.87,93.41,53.88Z"/><path class="cls-2" d="M123.85,48.4a24.16,24.16,0,0,0-12.48,1.53l-.09.09h0a5.22,5.22,0,0,0-.39.43.12.12,0,0,1,0,.13,4.22,4.22,0,0,0,0,2.63l.11,0c.14.07,0,.26-.08.27a1.34,1.34,0,0,1-.76-.2h0a2.15,2.15,0,0,1-2.25-1.08,3.28,3.28,0,0,1-1.13-1.18,35.09,35.09,0,0,0-5,1.44c-1,.4-2,.82-3,1.31-.69.36-.89.3-.15.46a.11.11,0,0,1,.12.13.15.15,0,0,1-.08.17c-.19.31-.4.6-.6.9a1.88,1.88,0,0,1,.63.15.13.13,0,0,1,.06.18.14.14,0,0,1,0,.15c-.51.88-1.41,1.73.14,1.51a21.91,21.91,0,0,1,2.91-.21,51.79,51.79,0,0,1,6.47.4c4.59.55,9.63,1.78,14.24.78,2.8-.61,6.13-1.86,6.24-5.19C128.91,50.28,126.53,48.81,123.85,48.4Zm-22.62,5.73a5.78,5.78,0,0,1-.69.17c-.16,0-.24-.21-.07-.26a4.46,4.46,0,0,1,.73-.13C101.33,53.9,101.34,54.09,101.23,54.13Zm4.54,2.25a1.88,1.88,0,0,1-.66.16c-.19,0-.28-.24-.08-.29a1.73,1.73,0,0,1,.67-.12A.14.14,0,0,1,105.77,56.38Zm2.51-1.61a1.08,1.08,0,0,1-.3,0,.2.2,0,0,1,0-.4.8.8,0,0,1,.3,0A.17.17,0,0,1,108.28,54.77Zm5.88-2.91a1.78,1.78,0,0,1-.61,0,.13.13,0,0,1,0-.26,1.73,1.73,0,0,1,.6-.07A.15.15,0,0,1,114.16,51.86Zm2.21,2.47a2.94,2.94,0,0,1-.66.05.16.16,0,0,1,0-.31,3.67,3.67,0,0,1,.66,0A.11.11,0,0,1,116.37,54.33Zm2.16-4.51a.82.82,0,0,0-.35,0c-.16,0-.16-.23,0-.24a.6.6,0,0,1,.43.09A.1.1,0,0,1,118.53,49.82Zm1.08,7.32a3.14,3.14,0,0,1-.61,0,.18.18,0,0,1,0-.35,3.13,3.13,0,0,1,.61,0C119.73,56.91,119.73,57.12,119.61,57.14ZM121,52.87a.8.8,0,0,1-.67.15c-.15,0-.11-.27,0-.26a1,1,0,0,0,.51-.1A.12.12,0,0,1,121,52.87ZM123.15,51a3,3,0,0,0-.6,0c-.16,0-.19-.25,0-.27a1.21,1.21,0,0,1,.7.08A.1.1,0,1,1,123.15,51Zm2.27,3.17a.17.17,0,1,1-.13-.32l.11-.1c.08-.14.27,0,.25.11A.34.34,0,0,1,125.42,54.13Z"/><path class="cls-3" d="M97.79,55.82a.18.18,0,0,1-.14-.31c.25-.32.5-.63.76-.94l-.21,0a7.4,7.4,0,0,0-3.56,1.61,5.83,5.83,0,0,1,.77-.2c.17,0,.24.23.07.27a2.75,2.75,0,0,0-2.32,1.83,2.61,2.61,0,0,1,1.29-.74c.2,0,.29.27.08.31a2,2,0,0,0-1.24.86,2.48,2.48,0,0,0-.36,1,5.16,5.16,0,0,1,1.9-1c.93-.29,1.82-.61,2.71-1a12.85,12.85,0,0,1,.92-1.61C98.24,55.9,98,55.85,97.79,55.82Z"/><path class="cls-3" d="M110.49,50.58a6.29,6.29,0,0,1-1.17-2.12,8.68,8.68,0,0,0-1.47,1.17.17.17,0,0,1-.26,0,5.07,5.07,0,0,1-.35-1c-.13.08-.27.16-.39.25s-.15.13-.23.19a3.57,3.57,0,0,0,1.06,2.68,1.87,1.87,0,0,1,0-.78.14.14,0,0,1,.28,0,1.82,1.82,0,0,0,1.68,2l0,0a2.58,2.58,0,0,1-.7-1.15c0-.13.15-.18.2-.06a2.21,2.21,0,0,0,.85,1.12,2.74,2.74,0,0,0,.53.23,3,3,0,0,1,.07-2.47Z"/><path class="cls-2" d="M102,31.77a7.93,7.93,0,0,1,2-.81.15.15,0,0,1,.08.28c-3.56,1.19-6,4.59-7.59,7.8a27.81,27.81,0,0,0-2.2,5.54c-.23.86-.42,1.72-.61,2.59l-.27,1.29a3.91,3.91,0,0,1-.57,1.68h0a.26.26,0,0,1,.21,0,78.45,78.45,0,0,1,8.7,1.8.09.09,0,0,1,.08.1,24.31,24.31,0,0,1,4.75-1.27,3.27,3.27,0,0,1-.29-1.45c-.06.06-.13.1-.18.16a.11.11,0,0,1-.16-.16l.13-.16a.11.11,0,0,1,0-.06c-.07-2.4,2-4.11,3.21-5.94A34.43,34.43,0,0,0,113,34.73a4.06,4.06,0,0,1-.4.16c-.2.07-.31-.16-.25-.31,1.64-3.73,1.57-7.69,1.56-11.68a.13.13,0,0,1,.25,0,42,42,0,0,1-.18,7.35,14.63,14.63,0,0,1-.55,2.63c-.14.44-.27.88-.45,1.3-.21.21-.13.23.22.08h0l0,0c.19,0,.32.23.14.32l0,0a26.26,26.26,0,0,1-3,7.77c-1.32,2.17-3.19,3.88-3.84,6.35a2.15,2.15,0,0,1,.83-.49c.12,0,.23.14.13.23l0,0c.1.26.2.51.31.76a4.3,4.3,0,0,1,1.7-1.2c.16-.06.24.17.11.26l0,0a11.93,11.93,0,0,0,1.07,1.79l.08-.11a.12.12,0,0,1,.06-.16l.1,0a1.48,1.48,0,0,1,.71-.52h.08A88.68,88.68,0,0,0,118.37,41a20.55,20.55,0,0,0,3.36-10.19.18.18,0,0,1,.36,0c.74,7.17-5.35,13.66-10.08,18.49,4-1.65,9.06-2.41,13.18-1.18a6.14,6.14,0,0,1,1,.41c.62-4.79-.35-9.66-1.21-14.38A130.28,130.28,0,0,0,122,21.36a.2.2,0,0,1,.19-.25h.33a45.33,45.33,0,0,1-4.06-8.7c-1.17-3.09-2.17-7.88-5.11-9.77a.11.11,0,0,1,0-.12l0-.13a.2.2,0,0,1,.09-.24l.18-.08a.22.22,0,0,1-.1,0,9.45,9.45,0,0,0-2.34-.93,10.53,10.53,0,0,0-4.64,0l0,0a.15.15,0,0,1-.2,0,.8.8,0,0,0-.15,0A.11.11,0,0,1,106,1l.17,0h0c.71-.81-1.31-.09-1.59,0a15,15,0,0,0-2.76,1A9.07,9.07,0,0,0,98,5.24a7,7,0,0,0-1,5.3c.51,1.66,1.56,3,2.28,4.54a24.93,24.93,0,0,1,2,7.58A61.83,61.83,0,0,1,102,31.77ZM98.29,45.63l-.23.42a.11.11,0,0,1-.2-.09l.15-.45A.15.15,0,1,1,98.29,45.63Zm1.94-7.05c-.07.13-.26,0-.23-.1a3.07,3.07,0,0,1,.23-.64c.07-.17.35-.1.28.08A3.19,3.19,0,0,1,100.23,38.58Zm11.65,5.19a3.46,3.46,0,0,1-.29.45c-.06.08-.19,0-.16-.09a4.37,4.37,0,0,1,.25-.48C111.75,43.52,112,43.64,111.88,43.77Zm.58,2.27a2.17,2.17,0,0,1-.36.32c-.11.08-.26-.07-.19-.18a2.82,2.82,0,0,1,.33-.36C112.38,45.68,112.59,45.89,112.46,46Zm8.46-.33c-.06.16-.31.15-.3,0a4.1,4.1,0,0,1,.11-.61c0-.23.4-.13.34.09A3.29,3.29,0,0,1,120.92,45.71Zm.3-5.32c0,.12-.24.12-.26,0a3.85,3.85,0,0,1,0-.48.15.15,0,0,1,.3,0A3.85,3.85,0,0,1,121.22,40.39ZM124,42.08c0-.2.38-.15.36.05a3.33,3.33,0,0,1-.1.55.16.16,0,0,1-.31,0A3.51,3.51,0,0,1,124,42.08Zm-.09-7c0,.14,0,.28-.05.42a.14.14,0,0,1-.27,0c0-.14,0-.28,0-.42S123.88,34.8,123.87,35ZM103.21,16.11a1.76,1.76,0,0,1-.27-.4c-.08-.12.1-.22.18-.11a2.59,2.59,0,0,1,.25.39C103.41,16.08,103.29,16.2,103.21,16.11Zm-.86,27.25.11-.26c.07-.19.36-.06.26.11l-.15.24C102.5,43.57,102.3,43.49,102.35,43.36Zm1,4.52a5.74,5.74,0,0,1-.65.74c-.11.1-.3,0-.22-.16a5.6,5.6,0,0,1,.62-.83C103.24,47.45,103.48,47.7,103.34,47.88Zm1-14-.47.38c-.1.07-.2-.08-.12-.15l.42-.4C104.34,33.65,104.51,33.82,104.39,33.92Zm.37-8.5c0-.22-.05-.43-.07-.65,0-.06.09-.07.1,0a4.66,4.66,0,0,1,.08.64C104.88,25.47,104.77,25.48,104.76,25.42ZM107.28,39a2.31,2.31,0,0,1-.24.2c-.12.09-.3-.09-.21-.22s.12-.15.19-.24S107.46,38.8,107.28,39Zm.42-15.75a3.53,3.53,0,0,1-.14-.56c0-.14.18-.21.21-.06a4,4,0,0,1,.13.6C107.92,23.31,107.74,23.32,107.7,23.21Zm.3-5a1.11,1.11,0,0,1-.16-.64c0-.18.27-.18.28,0a2.63,2.63,0,0,0,.09.55A.12.12,0,0,1,108,18.25Zm.5,13.52a2,2,0,0,1-.08-.31c0-.16.2-.22.23-.07a2.09,2.09,0,0,1,0,.35C108.7,31.86,108.54,31.87,108.5,31.77ZM111,28.32a.12.12,0,1,1-.24,0c0-.19,0-.38,0-.57s.33-.2.32,0S111,28.13,111,28.32Zm.27-13-.22-.23c-.13-.13.11-.31.2-.15l.16.27C111.47,15.31,111.35,15.41,111.28,15.33ZM114.8,38c-.06.12-.24.08-.21-.06a5.08,5.08,0,0,1,.15-.65.15.15,0,0,1,.28.08C115,37.57,114.88,37.77,114.8,38Zm1.07,3a2.1,2.1,0,0,1-.15.3.09.09,0,0,1-.17-.07c0-.11.06-.22.1-.33A.12.12,0,1,1,115.87,41Zm4.57-15.52a.08.08,0,1,1,.16,0,2,2,0,0,1,0,.6c0,.1-.19.1-.2,0A2,2,0,0,1,120.44,25.47Zm-1-4.52a5.81,5.81,0,0,1,.37.75c.06.16-.18.23-.27.11a4.76,4.76,0,0,1-.4-.69A.17.17,0,0,1,119.4,21ZM118.07,34.4l.17-.33c.09-.17.37,0,.26.15l-.21.31A.13.13,0,0,1,118.07,34.4Zm-1.34-20.82c.07.19.11.39.16.58s-.15.18-.21.06-.15-.37-.21-.56A.14.14,0,0,1,116.73,13.58Zm-.38,13.79a.76.76,0,0,1-.12.53.17.17,0,0,1-.3-.13,1.79,1.79,0,0,0,0-.4C115.92,27.11,116.32,27.12,116.35,27.37Zm-.62-20.23a.55.55,0,0,1,.2.62.11.11,0,0,1-.21,0,.52.52,0,0,0-.17-.42C115.44,7.2,115.61,7,115.73,7.14ZM115.48,19a4.35,4.35,0,0,1,.46.6c.07.11-.09.23-.18.14a5.29,5.29,0,0,1-.47-.59C115.21,19.08,115.39,18.94,115.48,19Zm-5.6-17.17.35,0a.13.13,0,0,1,0,.24l-.35,0A.16.16,0,0,1,109.88,1.87Zm-5.76.32a.74.74,0,0,1,.68,0c.12.06,0,.23-.08.2a1,1,0,0,0-.51,0C104.09,2.43,104,2.24,104.12,2.19Zm-6,8.16a.18.18,0,0,1-.08-.13,4.83,4.83,0,0,1-.63-2.64c.18-3.89,4.24-5.18,7.16-3.14h0c2.56-1,4.14-2.15,7-1.12a5.73,5.73,0,0,1,3.34,3.91c.32,1.5.3,3.47-1.36,4.19-2.29,1-4.63,0-7,.14-2,.09-5,1.33-6.92.23A4.14,4.14,0,0,1,98.16,10.35Z"/><path class="cls-3" d="M107.89,11.14c1.67.14,3.94.88,5.45-.1l.11-.08a41.29,41.29,0,0,0-3.68-2.39c-.47-.33-1.07-1.17-.81-1.79.7-1.72,3.94-.56,5.41.12a5.06,5.06,0,0,0-1.18-1.85A5.56,5.56,0,0,0,108,3.48c-1,.31-1.94.9-2.94,1.3a.14.14,0,0,1-.21.15l-.08,0a.2.2,0,0,1-.24-.14c-1.76-1-4.23-1.45-5.7.36A4.07,4.07,0,0,0,98,6.81c1-.6,4.25-2.14,4.7-.45a1.74,1.74,0,0,1-.88,2,30,30,0,0,1-3.33,2,2.78,2.78,0,0,0,.51.57C101.34,12.8,105.12,10.9,107.89,11.14ZM105,6.76a1,1,0,0,1,.59,0c.54,0,1.13.21.89.78a1,1,0,0,1-.88.39,1.52,1.52,0,0,1-.51-.12.45.45,0,0,1-.38-.21.59.59,0,0,1,0-.22A.47.47,0,0,1,105,6.76Zm-.33,2.34c.08.19.4.34.56.15A.51.51,0,0,0,105.4,9v-.1a.66.66,0,0,0-.06-.27c0-.13.16-.21.23-.09v0a.15.15,0,0,1,.14.15c0,.42.39,1,.84.59.14-.12.4,0,.27.21a.75.75,0,0,1-1.07.19,1,1,0,0,1-.18-.17.67.67,0,0,1-.28.21.61.61,0,0,1-.87-.53C104.43,9,104.65,9,104.71,9.1Z"/><path class="cls-2" d="M102.38,7.05c.37-2.09-3.67-.29-4.41,0a4.78,4.78,0,0,0,.37,2.86c.61-.42,1.27-.77,1.9-1.14S102.23,7.88,102.38,7.05Zm-2.82.89c-.08,0-.22,0-.18-.14.25-.63,1.36-1.1,1.83-.46a.15.15,0,0,1-.17.21,1,1,0,0,0-.92,0A4.24,4.24,0,0,1,99.56,7.94Z"/><path class="cls-2" d="M92.66,50.12A4.77,4.77,0,0,1,92.8,49c.23-1.29.47-2.6.81-3.87A27.64,27.64,0,0,1,96,38.79c1.41-2.57,3.2-5.34,5.76-6.89a57.16,57.16,0,0,0-.92-10A27.61,27.61,0,0,1,96.16,32.7l.19-.08a.14.14,0,0,1,.19.09.17.17,0,0,1,0,.07.13.13,0,0,1,0,.08C94,38.48,91.23,43.66,91.69,50,92,50.06,92.34,50.08,92.66,50.12ZM100.42,32a4.07,4.07,0,0,1-.4.43c-.1.09-.28,0-.2-.16a3.57,3.57,0,0,1,.38-.49C100.33,31.6,100.55,31.82,100.42,32Zm-.89-3.42a5.33,5.33,0,0,0,.54-.62c.1-.14.33,0,.24.14a1.79,1.79,0,0,1-.64.67A.12.12,0,0,1,99.53,28.55Zm-3.81,7.63a5.76,5.76,0,0,0,.26-.62.15.15,0,0,1,.29.08,2,2,0,0,1-.35.69C95.82,36.45,95.67,36.3,95.72,36.18ZM92.81,43a2.38,2.38,0,0,0,.24-.51.17.17,0,0,1,.32.09,1,1,0,0,1-.39.59C92.88,43.27,92.74,43.13,92.81,43Z"/><path class="cls-4" d="M106.53,11.55c2.4-.12,4.74.87,7-.14,1.66-.72,1.68-2.69,1.36-4.19a5.73,5.73,0,0,0-3.34-3.91c-2.81-1-4.39.15-7,1.12h0c-2.92-2-7-.75-7.16,3.14a4.83,4.83,0,0,0,.63,2.64.18.18,0,0,0,.08.13,4.14,4.14,0,0,0,1.45,1.43C101.51,12.88,104.56,11.64,106.53,11.55Zm7.21-.82a11.65,11.65,0,0,0-3.22-2.2c-.3-.16-2.21-1.61-.48-2a5.67,5.67,0,0,1,1.54,0,12.72,12.72,0,0,1,2.9.73A3.32,3.32,0,0,1,113.74,10.73ZM98,7.06c.74-.3,4.78-2.1,4.41,0-.15.83-1.49,1.35-2.14,1.73S99,9.5,98.34,9.92A4.78,4.78,0,0,1,98,7.06ZM99,10.84a2.78,2.78,0,0,1-.51-.57,30,30,0,0,0,3.33-2,1.74,1.74,0,0,0,.88-1.95c-.45-1.69-3.67-.15-4.7.45a4.07,4.07,0,0,1,.75-1.7c1.47-1.81,3.94-1.31,5.7-.36a.2.2,0,0,0,.24.14l.08,0a.14.14,0,0,0,.21-.15c1-.4,1.9-1,2.94-1.3a5.56,5.56,0,0,1,5.24,1.57,5.06,5.06,0,0,1,1.18,1.85c-1.47-.68-4.71-1.84-5.41-.12-.26.62.34,1.46.81,1.79A41.29,41.29,0,0,1,113.45,11l-.11.08c-1.51,1-3.78.24-5.45.1C105.12,10.9,101.34,12.8,99,10.84Z"/><path class="cls-4" d="M101,7.55a.15.15,0,0,0,.17-.21c-.47-.64-1.58-.17-1.83.46,0,.11.1.17.18.14a4.24,4.24,0,0,0,.56-.38A1,1,0,0,1,101,7.55Z"/><path class="cls-4" d="M110.48,7.57c-.09.11,0,.28.15.2.53-.32.9-.12,1.22.35a.15.15,0,0,0,.27-.07A.94.94,0,0,0,110.48,7.57Z"/><path class="cls-4" d="M104.75,7.59a.45.45,0,0,0,.38.21,1.52,1.52,0,0,0,.51.12,1,1,0,0,0,.88-.39c.24-.57-.35-.78-.89-.78a1,1,0,0,0-.59,0,.47.47,0,0,0-.34.61A.59.59,0,0,0,104.75,7.59Z"/><path class="cls-4" d="M105.3,9.71a.67.67,0,0,0,.28-.21,1,1,0,0,0,.18.17.75.75,0,0,0,1.07-.19c.13-.17-.13-.33-.27-.21-.45.36-.84-.17-.84-.59a.15.15,0,0,0-.14-.15v0c-.07-.12-.28,0-.23.09a.66.66,0,0,1,.06.27V9a.51.51,0,0,1-.13.29c-.16.19-.48,0-.56-.15s-.28-.06-.28.08A.61.61,0,0,0,105.3,9.71Z"/><path class="cls-4" d="M126.67,48.75c.32,0,.18-5.64.13-6-.23-2.19-.58-4.38-1-6.56-.43-2.39-.93-4.77-1.47-7.14-.19-.82-2.1-6.87-1.62-7.64.07,0,.13-.05.13-.12a.1.1,0,0,0,0-.17A99.69,99.69,0,0,1,118,9.81c-.94-2.43-1.88-5.94-4.33-7.3l.44-.2a.22.22,0,0,0,0-.37,9.73,9.73,0,0,0-7.28-1.2A3.38,3.38,0,0,0,107,.29a.2.2,0,0,0-.22-.29C102,.76,95.27,4,96.51,10.09a13.25,13.25,0,0,0,1.8,4.05,21.28,21.28,0,0,1,2.26,6.12c.06.28.1.58.16.86a32.28,32.28,0,0,1-5.41,12c-.14.19.12.4.3.3a4.76,4.76,0,0,0,.49-.28,49,49,0,0,0-3.53,7.56,26.18,26.18,0,0,0-1.16,4.53,20.62,20.62,0,0,0-.2,2.08c0,.45,0,.91,0,1.37a.8.8,0,0,0,.26.92.13.13,0,0,0-.17.13l0,.28C90.68,50,90,50,89.4,50c-2.69.08-7.49,0-9.13,2.7-.85,1.38-1.47,4.34.61,5.07a9.22,9.22,0,0,0,4.58.14,58.45,58.45,0,0,1,7.7-.7,1.67,1.67,0,0,0-.29,1,.14.14,0,0,0,.09.12,1.73,1.73,0,0,0-.35,1.63s0,0,0,0,0,0,0,0a.14.14,0,0,0,.23-.07c1.3-1.1,3.17-1,4.54-1.88a.26.26,0,0,0,.23.09c6-1,11.9.28,17.87.88a23.91,23.91,0,0,0,7.78-.35c1.64-.37,4.06-1.18,5.09-2.61C130.38,53.25,129.16,50.23,126.67,48.75ZM99.31,15.08c-.72-1.56-1.77-2.88-2.28-4.54a7,7,0,0,1,1-5.3,9.07,9.07,0,0,1,3.82-3.33,15,15,0,0,1,2.76-1c.28-.08,2.3-.8,1.59,0h0L106,1a.11.11,0,0,0,0,.21.8.8,0,0,1,.15,0,.15.15,0,0,0,.2,0l0,0a10.53,10.53,0,0,1,4.64,0A9.45,9.45,0,0,1,113.4,2a.22.22,0,0,0,.1,0l-.18.08a.2.2,0,0,0-.09.24l0,.13a.11.11,0,0,0,0,.12c2.94,1.89,3.94,6.68,5.11,9.77a45.33,45.33,0,0,0,4.06,8.7h-.33a.2.2,0,0,0-.19.25A130.28,130.28,0,0,1,125,34.13c.86,4.72,1.83,9.59,1.21,14.38a6.14,6.14,0,0,0-1-.41c-4.12-1.23-9.16-.47-13.18,1.18,4.73-4.83,10.82-11.32,10.08-18.49a.18.18,0,0,0-.36,0A20.55,20.55,0,0,1,118.37,41a88.68,88.68,0,0,1-6.72,8.28h-.08a1.48,1.48,0,0,0-.71.52l-.1,0a.12.12,0,0,0-.06.16l-.08.11a11.93,11.93,0,0,1-1.07-1.79l0,0c.13-.09,0-.32-.11-.26a4.3,4.3,0,0,0-1.7,1.2c-.11-.25-.21-.5-.31-.76l0,0c.1-.09,0-.26-.13-.23a2.15,2.15,0,0,0-.83.49c.65-2.47,2.52-4.18,3.84-6.35a26.26,26.26,0,0,0,3-7.77l0,0c.18-.09,0-.36-.14-.32l0,0h0c-.35.15-.43.13-.22-.08.18-.42.31-.86.45-1.3a14.63,14.63,0,0,0,.55-2.63,42,42,0,0,0,.18-7.35.13.13,0,0,0-.25,0c0,4,.08,8-1.56,11.68-.06.15.05.38.25.31a4.06,4.06,0,0,0,.4-.16,34.43,34.43,0,0,1-3.77,8.45C108,45,106,46.72,106.05,49.12a.11.11,0,0,0,0,.06l-.13.16a.11.11,0,0,0,.16.16c.05-.06.12-.1.18-.16a3.27,3.27,0,0,0,.29,1.45,24.31,24.31,0,0,0-4.75,1.27.09.09,0,0,0-.08-.1,78.45,78.45,0,0,0-8.7-1.8.26.26,0,0,0-.21,0h0a3.91,3.91,0,0,0,.57-1.68l.27-1.29c.19-.87.38-1.73.61-2.59A27.81,27.81,0,0,1,96.47,39c1.64-3.21,4-6.61,7.59-7.8A.15.15,0,0,0,104,31a7.93,7.93,0,0,0-2,.81,61.83,61.83,0,0,0-.65-9.11A24.93,24.93,0,0,0,99.31,15.08Zm11.18,38a2.74,2.74,0,0,1-.53-.23,2.21,2.21,0,0,1-.85-1.12c0-.12-.24-.07-.2.06a2.58,2.58,0,0,0,.7,1.15l0,0A1.82,1.82,0,0,1,108,51a.14.14,0,0,0-.28,0,1.87,1.87,0,0,0,0,.78,3.57,3.57,0,0,1-1.06-2.68c.08-.06.14-.13.23-.19s.26-.17.39-.25a5.07,5.07,0,0,0,.35,1,.17.17,0,0,0,.26,0,8.68,8.68,0,0,1,1.47-1.17,6.29,6.29,0,0,0,1.17,2.12l.07,0A3,3,0,0,0,110.49,53.09Zm-14-20.23a.13.13,0,0,0,0-.08.17.17,0,0,0,0-.07.14.14,0,0,0-.19-.09l-.19.08a27.61,27.61,0,0,0,4.72-10.77,57.16,57.16,0,0,1,.92,10c-2.56,1.55-4.35,4.32-5.76,6.89a27.64,27.64,0,0,0-2.43,6.31c-.34,1.27-.58,2.58-.81,3.87a4.77,4.77,0,0,0-.14,1.15c-.32,0-.65-.06-1-.08C91.23,43.66,94,38.48,96.52,32.86ZM85.35,57.48c-2.08.37-5.29.66-5.49-2.28-.14-2.11,1.62-3.43,3.4-4,5.95-1.91,12.34.08,18.28,1a27.92,27.92,0,0,0-4.06,1.93.2.2,0,0,0-.09.22,5.8,5.8,0,0,0-3.65,2.28,1.93,1.93,0,0,0-.28.22.19.19,0,0,0-.11,0A35.2,35.2,0,0,0,85.35,57.48Zm12.19.05c-.89.37-1.78.69-2.71,1a5.16,5.16,0,0,0-1.9,1,2.48,2.48,0,0,1,.36-1,2,2,0,0,1,1.24-.86c.21,0,.12-.34-.08-.31a2.61,2.61,0,0,0-1.29.74,2.75,2.75,0,0,1,2.32-1.83c.17,0,.1-.3-.07-.27a5.83,5.83,0,0,0-.77.2,7.4,7.4,0,0,1,3.56-1.61l.21,0c-.26.31-.51.62-.76.94a.18.18,0,0,0,.14.31c.22,0,.45.08.67.1A12.85,12.85,0,0,0,97.54,57.53Zm25,.91c-4.61,1-9.65-.23-14.24-.78a51.79,51.79,0,0,0-6.47-.4,21.91,21.91,0,0,0-2.91.21c-1.55.22-.65-.63-.14-1.51a.14.14,0,0,0,0-.15.13.13,0,0,0-.06-.18,1.88,1.88,0,0,0-.63-.15c.2-.3.41-.59.6-.9a.15.15,0,0,0,.08-.17.11.11,0,0,0-.12-.13c-.74-.16-.54-.1.15-.46,1-.49,2-.91,3-1.31a35.09,35.09,0,0,1,5-1.44,3.28,3.28,0,0,0,1.13,1.18,2.15,2.15,0,0,0,2.25,1.08h0a1.34,1.34,0,0,0,.76.2c.13,0,.22-.2.08-.27l-.11,0a4.22,4.22,0,0,1,0-2.63.12.12,0,0,0,0-.13,5.22,5.22,0,0,1,.39-.43h0l.09-.09a24.16,24.16,0,0,1,12.48-1.53c2.68.41,5.06,1.88,5,4.85C128.7,56.58,125.37,57.83,122.57,58.44Z"/><path class="cls-4" d="M101.2,53.91a4.46,4.46,0,0,0-.73.13c-.17.05-.09.28.07.26a5.78,5.78,0,0,0,.69-.17C101.34,54.09,101.33,53.9,101.2,53.91Z"/><path class="cls-4" d="M105.7,56.13a1.73,1.73,0,0,0-.67.12c-.2,0-.11.33.08.29a1.88,1.88,0,0,0,.66-.16A.14.14,0,0,0,105.7,56.13Z"/><path class="cls-4" d="M108.28,54.45a.8.8,0,0,0-.3,0,.2.2,0,0,0,0,.4,1.08,1.08,0,0,0,.3,0A.17.17,0,0,0,108.28,54.45Z"/><path class="cls-4" d="M114.12,51.57a1.73,1.73,0,0,0-.6.07.13.13,0,0,0,0,.26,1.78,1.78,0,0,0,.61,0A.15.15,0,0,0,114.12,51.57Z"/><path class="cls-4" d="M116.37,54.12a3.67,3.67,0,0,0-.66,0,.16.16,0,0,0,0,.31,2.94,2.94,0,0,0,.66-.05A.11.11,0,0,0,116.37,54.12Z"/><path class="cls-4" d="M119.61,56.88a3.13,3.13,0,0,0-.61,0,.18.18,0,0,0,0,.35,3.14,3.14,0,0,0,.61,0C119.73,57.12,119.73,56.91,119.61,56.88Z"/><path class="cls-4" d="M120.84,52.66a1,1,0,0,1-.51.1c-.15,0-.19.24,0,.26a.8.8,0,0,0,.67-.15A.12.12,0,0,0,120.84,52.66Z"/><path class="cls-4" d="M123.21,50.76a1.21,1.21,0,0,0-.7-.08c-.15,0-.12.28,0,.27a3,3,0,0,1,.6,0A.1.1,0,1,0,123.21,50.76Z"/><path class="cls-4" d="M125.4,53.71l-.11.1a.17.17,0,1,0,.13.32.34.34,0,0,0,.23-.31C125.67,53.67,125.48,53.57,125.4,53.71Z"/><path class="cls-4" d="M118.18,49.55c-.16,0-.16.25,0,.24a.82.82,0,0,1,.35,0,.1.1,0,0,0,.08-.18A.6.6,0,0,0,118.18,49.55Z"/><path class="cls-4" d="M84.47,52.26a4.29,4.29,0,0,0-.6.13c-.16,0-.09.28.07.25s.38-.08.57-.15S84.61,52.25,84.47,52.26Z"/><path class="cls-4" d="M82.77,54.94c-.21,0-.42,0-.64,0a.14.14,0,0,0,0,.28c.22,0,.43,0,.64,0A.11.11,0,0,0,82.77,54.94Z"/><path class="cls-4" d="M86.85,55.42a2,2,0,0,1-.54,0c-.25,0-.25.37,0,.39a1.23,1.23,0,0,0,.65-.13C87.12,55.61,87,55.39,86.85,55.42Z"/><path class="cls-4" d="M90,53.09a3,3,0,0,0-.6,0,.14.14,0,0,0,0,.27,3,3,0,0,0,.6,0A.12.12,0,0,0,90,53.09Z"/><path class="cls-4" d="M92.43,51.76a2.07,2.07,0,0,0-.35,0,.15.15,0,1,0,0,.3,1.38,1.38,0,0,0,.35,0A.12.12,0,0,0,92.43,51.76Z"/><path class="cls-4" d="M93.6,54.05a.08.08,0,0,0,0-.16h-.19c-.12,0-.12.2,0,.19Z"/><path class="cls-4" d="M99.67,28.74a1.79,1.79,0,0,0,.64-.67c.09-.15-.14-.28-.24-.14a5.33,5.33,0,0,1-.54.62A.12.12,0,0,0,99.67,28.74Z"/><path class="cls-4" d="M100.2,31.75a3.57,3.57,0,0,0-.38.49c-.08.13.1.25.2.16a4.07,4.07,0,0,0,.4-.43C100.55,31.82,100.33,31.6,100.2,31.75Z"/><path class="cls-4" d="M95.92,36.33a2,2,0,0,0,.35-.69.15.15,0,0,0-.29-.08,5.76,5.76,0,0,1-.26.62C95.67,36.3,95.82,36.45,95.92,36.33Z"/><path class="cls-4" d="M93,43.2a1,1,0,0,0,.39-.59.17.17,0,0,0-.32-.09,2.38,2.38,0,0,1-.24.51C92.74,43.13,92.88,43.27,93,43.2Z"/><path class="cls-4" d="M115.93,27.77a.17.17,0,0,0,.3.13.76.76,0,0,0,.12-.53c0-.25-.43-.26-.4,0A1.79,1.79,0,0,1,115.93,27.77Z"/><path class="cls-4" d="M118.29,34.53l.21-.31c.11-.16-.17-.32-.26-.15l-.17.33A.13.13,0,0,0,118.29,34.53Z"/><path class="cls-4" d="M114.74,37.27a5.08,5.08,0,0,0-.15.65c0,.14.15.18.21.06s.16-.41.22-.63A.15.15,0,0,0,114.74,37.27Z"/><path class="cls-4" d="M115.65,40.89c0,.11-.07.22-.1.33a.09.09,0,0,0,.17.07,2.1,2.1,0,0,0,.15-.3A.12.12,0,1,0,115.65,40.89Z"/><path class="cls-4" d="M111.68,43.65a4.37,4.37,0,0,0-.25.48c0,.09.1.17.16.09a3.46,3.46,0,0,0,.29-.45C112,43.64,111.75,43.52,111.68,43.65Z"/><path class="cls-4" d="M112.24,45.82a2.82,2.82,0,0,0-.33.36c-.07.11.08.26.19.18a2.17,2.17,0,0,0,.36-.32C112.59,45.89,112.38,45.68,112.24,45.82Z"/><path class="cls-4" d="M120.62,26.07a2,2,0,0,0,0-.6.08.08,0,1,0-.16,0,2,2,0,0,0,0,.6C120.43,26.17,120.61,26.17,120.62,26.07Z"/><path class="cls-4" d="M123.82,35.45c0-.14,0-.28.05-.42s-.38-.23-.36,0,0,.28,0,.42A.14.14,0,0,0,123.82,35.45Z"/><path class="cls-4" d="M120.94,39.91a3.85,3.85,0,0,0,0,.48c0,.12.24.12.26,0a3.85,3.85,0,0,0,0-.48A.15.15,0,0,0,120.94,39.91Z"/><path class="cls-4" d="M124.22,42.68a3.33,3.33,0,0,0,.1-.55c0-.2-.33-.25-.36-.05a3.51,3.51,0,0,0,0,.55A.16.16,0,0,0,124.22,42.68Z"/><path class="cls-4" d="M120.73,45.06a4.1,4.1,0,0,0-.11.61c0,.19.24.2.3,0a3.29,3.29,0,0,0,.15-.56C121.13,44.93,120.78,44.83,120.73,45.06Z"/><path class="cls-4" d="M104.22,33.75l-.42.4c-.08.07,0,.22.12.15l.47-.38C104.51,33.82,104.34,33.65,104.22,33.75Z"/><path class="cls-4" d="M100.23,37.84a3.07,3.07,0,0,0-.23.64c0,.14.16.23.23.1a3.19,3.19,0,0,0,.28-.66C100.58,37.74,100.3,37.67,100.23,37.84Z"/><path class="cls-4" d="M107,38.7c-.07.09-.13.15-.19.24s.09.31.21.22a2.31,2.31,0,0,0,.24-.2C107.46,38.8,107.18,38.53,107,38.7Z"/><path class="cls-4" d="M102.57,43.45l.15-.24c.1-.17-.19-.3-.26-.11l-.11.26C102.3,43.49,102.5,43.57,102.57,43.45Z"/><path class="cls-4" d="M98,45.51l-.15.45a.11.11,0,0,0,.2.09l.23-.42A.15.15,0,1,0,98,45.51Z"/><path class="cls-4" d="M103.09,47.63a5.6,5.6,0,0,0-.62.83c-.08.13.11.26.22.16a5.74,5.74,0,0,0,.65-.74C103.48,47.7,103.24,47.45,103.09,47.63Z"/><path class="cls-4" d="M103.12,15.6c-.08-.11-.26,0-.18.11a1.76,1.76,0,0,0,.27.4c.08.09.2,0,.16-.12A2.59,2.59,0,0,0,103.12,15.6Z"/><path class="cls-4" d="M107.84,17.61a1.11,1.11,0,0,0,.16.64.12.12,0,0,0,.21-.09,2.63,2.63,0,0,1-.09-.55C108.11,17.43,107.83,17.43,107.84,17.61Z"/><path class="cls-4" d="M111.26,15c-.09-.16-.33,0-.2.15l.22.23c.07.08.19,0,.14-.11Z"/><path class="cls-4" d="M107.56,22.65a3.53,3.53,0,0,0,.14.56c0,.11.22.1.2,0a4,4,0,0,0-.13-.6C107.74,22.44,107.53,22.51,107.56,22.65Z"/><path class="cls-4" d="M104.69,24.77c0,.22,0,.43.07.65,0,.06.12,0,.11,0a4.66,4.66,0,0,0-.08-.64C104.78,24.7,104.68,24.71,104.69,24.77Z"/><path class="cls-4" d="M110.73,27.75c0,.19,0,.38,0,.57a.12.12,0,1,0,.24,0c0-.19,0-.38,0-.57S110.73,27.55,110.73,27.75Z"/><path class="cls-4" d="M108.42,31.46a2,2,0,0,0,.08.31c0,.1.2.09.19,0a2.09,2.09,0,0,0,0-.35C108.62,31.24,108.39,31.3,108.42,31.46Z"/><path class="cls-4" d="M115.76,19.78c.09.09.25,0,.18-.14a4.35,4.35,0,0,0-.46-.6c-.09-.1-.27,0-.19.15A5.29,5.29,0,0,0,115.76,19.78Z"/><path class="cls-4" d="M116.89,14.16c0-.19-.09-.39-.16-.58a.14.14,0,0,0-.26.08c.06.19.14.37.21.56S116.93,14.3,116.89,14.16Z"/><path class="cls-4" d="M119.5,21.81c.09.12.33.05.27-.11a5.81,5.81,0,0,0-.37-.75.17.17,0,0,0-.3.17A4.76,4.76,0,0,0,119.5,21.81Z"/><path class="cls-4" d="M104.21,2.39a1,1,0,0,1,.51,0c.11,0,.2-.14.08-.2a.74.74,0,0,0-.68,0C104,2.24,104.09,2.43,104.21,2.39Z"/><path class="cls-4" d="M109.88,2.19l.35,0a.13.13,0,0,0,0-.24l-.35,0A.16.16,0,0,0,109.88,2.19Z"/><path class="cls-4" d="M115.72,7.73a.11.11,0,0,0,.21,0,.55.55,0,0,0-.2-.62c-.12-.1-.29.06-.18.17A.52.52,0,0,1,115.72,7.73Z"/><path class="cls-5" d="M107,1l-.11,0a3.26,3.26,0,0,0-.48.2Z"/><path class="cls-6" d="M125.19,48.1a6.14,6.14,0,0,1,1,.41c.62-4.79-.35-9.66-1.21-14.38A130.28,130.28,0,0,0,122,21.36a.2.2,0,0,1,.19-.25h.33a45.33,45.33,0,0,1-4.06-8.7c-1.17-3.09-2.17-7.88-5.11-9.77a.11.11,0,0,1,0-.12l0-.13a.2.2,0,0,1,.09-.24l.18-.08a.22.22,0,0,1-.1,0,9.45,9.45,0,0,0-2.34-.93,10.43,10.43,0,0,0-3.18-.24c1.73.07,3.48,1.55,4.68,2.95a5.93,5.93,0,0,1,2.36,3.4,5.07,5.07,0,0,1-.11,2.94c.13.34.26.69.41,1a21,21,0,0,0,1.25,2.46c0-.16.2-.23.26-.07s.11.39.16.58a.09.09,0,0,1-.06.12c.54.93,1.08,1.85,1.53,2.82-.43,0-.92-.21-1.38-.21,2.07,4.54.7,9.8.79,14.56-.86-1.36-1.16-.63-1.41.44-.58,2.46-.78,4.82-1.58,7.25A37.74,37.74,0,0,1,110.64,48c-.2.31-.47.66-.73,1a7.81,7.81,0,0,0,.71,1.12l.08-.11a.12.12,0,0,1,.06-.16l.1,0a1.48,1.48,0,0,1,.71-.52h.08A88.68,88.68,0,0,0,118.37,41a20.55,20.55,0,0,0,3.36-10.19.18.18,0,0,1,.36,0c.74,7.17-5.35,13.66-10.08,18.49C116,47.63,121.07,46.87,125.19,48.1ZM115.93,7.76a.11.11,0,0,1-.21,0,.52.52,0,0,0-.17-.42c-.11-.11.06-.27.18-.17A.55.55,0,0,1,115.93,7.76ZM112.46,46a2.17,2.17,0,0,1-.36.32c-.11.08-.26-.07-.19-.18a2.82,2.82,0,0,1,.33-.36C112.38,45.68,112.59,45.89,112.46,46Zm3.41-5a2.1,2.1,0,0,1-.15.3.09.09,0,0,1-.17-.07c0-.11.06-.22.1-.33A.12.12,0,1,1,115.87,41Zm2.63-6.77-.21.31a.13.13,0,0,1-.22-.13l.17-.33C118.33,33.9,118.61,34.06,118.5,34.22Zm1-12.41a4.76,4.76,0,0,1-.4-.69.17.17,0,0,1,.3-.17,5.81,5.81,0,0,1,.37.75C119.83,21.86,119.59,21.93,119.5,21.81Zm1.12,4.26c0,.1-.19.1-.2,0a2,2,0,0,1,0-.6.08.08,0,1,1,.16,0A2,2,0,0,1,120.62,26.07Zm3.34,16c0-.2.38-.15.36.05a3.33,3.33,0,0,1-.1.55.16.16,0,0,1-.31,0A3.51,3.51,0,0,1,124,42.08Zm-.09-7c0,.14,0,.28-.05.42a.14.14,0,0,1-.27,0c0-.14,0-.28,0-.42S123.88,34.8,123.87,35Zm-2.93,4.88a.15.15,0,0,1,.3,0,3.85,3.85,0,0,1,0,.48c0,.12-.24.12-.26,0A3.85,3.85,0,0,1,120.94,39.91Zm.13,5.24a3.29,3.29,0,0,1-.15.56c-.06.16-.31.15-.3,0a4.1,4.1,0,0,1,.11-.61C120.78,44.83,121.13,44.93,121.07,45.15Z"/><path class="cls-6" d="M123.85,48.4a23.06,23.06,0,0,0-5.74-.13c1,1.43.83,3-1.31,4.3a17.19,17.19,0,0,1-6.62,1.93c0-.14-.05-.39,0-.56-2.33,0-5.17,1.18-7.34,2,.2-.22.2-.45.32-.65-1.47-.76-3.45,1.26-5,1.89-.07.28.1.42.85.32a21.91,21.91,0,0,1,2.91-.21,51.79,51.79,0,0,1,6.47.4c4.59.55,9.63,1.78,14.24.78,2.8-.61,6.13-1.86,6.24-5.19C128.91,50.28,126.53,48.81,123.85,48.4Zm-18.08,8a1.88,1.88,0,0,1-.66.16c-.19,0-.28-.24-.08-.29a1.73,1.73,0,0,1,.67-.12A.14.14,0,0,1,105.77,56.38Zm2.51-1.61a1.08,1.08,0,0,1-.3,0,.2.2,0,0,1,0-.4.8.8,0,0,1,.3,0A.17.17,0,0,1,108.28,54.77Zm8.09-.44a2.94,2.94,0,0,1-.66.05.16.16,0,0,1,0-.31,3.67,3.67,0,0,1,.66,0A.11.11,0,0,1,116.37,54.33Zm3.24,2.81a3.14,3.14,0,0,1-.61,0,.18.18,0,0,1,0-.35,3.13,3.13,0,0,1,.61,0C119.73,56.91,119.73,57.12,119.61,57.14ZM121,52.87a.8.8,0,0,1-.67.15c-.15,0-.11-.27,0-.26a1,1,0,0,0,.51-.1A.12.12,0,0,1,121,52.87ZM123.15,51a3,3,0,0,0-.6,0c-.16,0-.19-.25,0-.27a1.21,1.21,0,0,1,.7.08A.1.1,0,1,1,123.15,51Zm2.27,3.17a.17.17,0,1,1-.13-.32l.11-.1c.08-.14.27,0,.25.11A.34.34,0,0,1,125.42,54.13Z"/><path class="cls-6" d="M92.32,53.69c.18-.14.37-.57.5-.69-2.24,0-4.09.78-6.16,1.26a7.51,7.51,0,0,1,.31-.79c-1.2.08-2.85,1.07-4.34,1.46h.14a.11.11,0,0,1,0,.22c-.21,0-.42,0-.64,0a.13.13,0,0,1-.13-.14,2.16,2.16,0,0,1-2.08-.71,3,3,0,0,0-.06.86c.2,2.94,3.41,2.65,5.49,2.28a35.2,35.2,0,0,1,8-.71.19.19,0,0,1,.11,0,1.93,1.93,0,0,1,.28-.22,5.8,5.8,0,0,1,3.65-2.28.2.2,0,0,1,.09-.22l.35-.2A30.41,30.41,0,0,0,92.32,53.69Zm-5.36,2a1.23,1.23,0,0,1-.65.13c-.25,0-.25-.41,0-.39a2,2,0,0,0,.54,0C87,55.39,87.12,55.61,87,55.68Zm6.64-1.63-.19,0c-.12,0-.12-.2,0-.19h.19A.08.08,0,0,1,93.6,54.05Z"/><path class="cls-6" d="M101.8,31.9c0-1.56-.08-3.18-.22-4.79a26,26,0,0,1-2.41,3.32c.26-.14.67-.12.93-.23-.15,1.23-1.68,2.38-2.2,3.58a21,21,0,0,0-1.35,4.1A16.25,16.25,0,0,1,101.8,31.9Zm-2,.34a3.57,3.57,0,0,1,.38-.49c.13-.15.35.07.22.22a4.07,4.07,0,0,1-.4.43C99.92,32.49,99.74,32.37,99.82,32.24Z"/></g></svg>