<svg id="Layer_1" data-name="Layer 1" xmlns="http://www.w3.org/2000/svg" viewBox="0 0 49.91 60"><defs><style>.cls-1{fill:#dd8549;}.cls-2{fill:#fffad1;}.cls-3{fill:#332833;}.cls-4{fill:#f79b42;}.cls-5{fill:#c76c36;}</style></defs><path class="cls-1" d="M30.56,6.53c-1.72.39.18,1.84.49,2a11.45,11.45,0,0,1,3.21,2.2A3.32,3.32,0,0,0,35,7.22a12.85,12.85,0,0,0-2.9-.73A5.75,5.75,0,0,0,30.56,6.53Zm2.08,1.52c0,.15-.19.18-.26.07-.32-.47-.69-.67-1.22-.35-.13.08-.24-.09-.15-.2A.93.93,0,0,1,32.64,8.05Z"/><path class="cls-1" d="M14,56.82a2.61,2.61,0,0,1,.27-.22,5.85,5.85,0,0,1,3.66-2.28A.2.2,0,0,1,18,54.1a28.54,28.54,0,0,1,4.07-1.93c-5.94-.89-12.33-2.88-18.29-1C2,51.77.25,53.09.39,55.2c.2,2.94,3.4,2.65,5.48,2.28a35.25,35.25,0,0,1,8-.71A.22.22,0,0,1,14,56.82ZM3.29,55.16c-.21,0-.42,0-.63,0a.14.14,0,0,1,0-.28l.63,0A.11.11,0,1,1,3.29,55.16ZM5,52.49a5.12,5.12,0,0,1-.56.15c-.16,0-.23-.21-.07-.25a4,4,0,0,1,.6-.13C5.14,52.25,5.15,52.45,5,52.49Zm2.46,3.19a1.23,1.23,0,0,1-.65.13c-.25,0-.25-.41,0-.39a1.88,1.88,0,0,0,.53,0C7.52,55.39,7.65,55.61,7.49,55.68Zm3.06-2.35a3.11,3.11,0,0,1-.61,0,.14.14,0,0,1,0-.27,3.11,3.11,0,0,1,.61,0A.12.12,0,0,1,10.55,53.33ZM13,52a1.27,1.27,0,0,1-.34,0,.15.15,0,1,1,0-.3,1.87,1.87,0,0,1,.34,0A.12.12,0,0,1,13,52Zm1,1.88h.19a.08.08,0,0,1,0,.16l-.19,0A.1.1,0,1,1,13.94,53.88Z"/><path class="cls-1" d="M44.37,48.4A24.14,24.14,0,0,0,31.9,49.93l-.09.09h0a3.89,3.89,0,0,0-.39.43.14.14,0,0,1,0,.13,4.22,4.22,0,0,0,0,2.63l.1,0c.15.07.05.26-.07.27a1.39,1.39,0,0,1-.77-.2h0a2.14,2.14,0,0,1-2.25-1.08,3.39,3.39,0,0,1-1.14-1.18,35.35,35.35,0,0,0-4.94,1.44c-1,.4-2,.82-2.95,1.31-.69.36-.9.3-.16.46a.12.12,0,0,1,.13.13.15.15,0,0,1-.09.17c-.19.31-.39.6-.59.9a1.88,1.88,0,0,1,.63.15.14.14,0,0,1,.06.18.16.16,0,0,1,0,.15c-.51.88-1.41,1.73.14,1.51a21.79,21.79,0,0,1,2.91-.21,51.79,51.79,0,0,1,6.47.4c4.58.55,9.63,1.78,14.23.78,2.81-.61,6.14-1.86,6.25-5.19C49.43,50.28,47.05,48.81,44.37,48.4ZM21.75,54.13a5.2,5.2,0,0,1-.68.17A.13.13,0,0,1,21,54a4.34,4.34,0,0,1,.72-.13C21.85,53.9,21.87,54.09,21.75,54.13Zm4.54,2.25a1.83,1.83,0,0,1-.65.16c-.2,0-.28-.24-.09-.29a1.78,1.78,0,0,1,.68-.12A.13.13,0,0,1,26.29,56.38Zm2.51-1.61a1,1,0,0,1-.3,0,.2.2,0,0,1,0-.4.75.75,0,0,1,.3,0A.17.17,0,0,1,28.8,54.77Zm5.89-2.91a1.78,1.78,0,0,1-.61,0,.13.13,0,0,1,0-.26,1.82,1.82,0,0,1,.61-.07A.15.15,0,0,1,34.69,51.86Zm2.2,2.47a2.89,2.89,0,0,1-.66.05c-.19,0-.19-.3,0-.31a3.6,3.6,0,0,1,.66,0A.11.11,0,0,1,36.89,54.33Zm2.17-4.51a.88.88,0,0,0-.36,0c-.15,0-.15-.23,0-.24a.59.59,0,0,1,.43.09A.1.1,0,0,1,39.06,49.82Zm1.07,7.32a3,3,0,0,1-.6,0,.18.18,0,0,1,0-.35,3,3,0,0,1,.6,0A.14.14,0,0,1,40.13,57.14Zm1.36-4.27a.81.81,0,0,1-.67.15c-.15,0-.11-.27,0-.26a1,1,0,0,0,.51-.1A.12.12,0,0,1,41.49,52.87ZM43.68,51a3.11,3.11,0,0,0-.61,0c-.15,0-.18-.25,0-.27a1.21,1.21,0,0,1,.7.08A.1.1,0,1,1,43.68,51ZM46,54.13a.17.17,0,1,1-.13-.32l.11-.1c.08-.14.27,0,.25.11A.38.38,0,0,1,46,54.13Z"/><path class="cls-2" d="M18.31,55.82a.18.18,0,0,1-.13-.31l.75-.94-.2,0a7.4,7.4,0,0,0-3.56,1.61,6.13,6.13,0,0,1,.76-.2c.17,0,.25.23.08.27a2.75,2.75,0,0,0-2.32,1.83A2.59,2.59,0,0,1,15,57.32c.2,0,.29.27.09.31a2.08,2.08,0,0,0-1.25.86,2.47,2.47,0,0,0-.35,1,5.16,5.16,0,0,1,1.9-1c.93-.29,1.81-.61,2.71-1A12.85,12.85,0,0,1,19,55.92C18.76,55.9,18.53,55.85,18.31,55.82Z"/><path class="cls-2" d="M31,50.58a6.12,6.12,0,0,1-1.17-2.12,9.17,9.17,0,0,0-1.48,1.17.17.17,0,0,1-.26,0,4.46,4.46,0,0,1-.34-1l-.4.25-.22.19a3.5,3.5,0,0,0,1.06,2.68,1.72,1.72,0,0,1,0-.78.14.14,0,0,1,.27,0,1.84,1.84,0,0,0,1.69,2l0,0a2.51,2.51,0,0,1-.71-1.15.1.1,0,0,1,.2-.06,2.23,2.23,0,0,0,.86,1.12,2.74,2.74,0,0,0,.53.23,3,3,0,0,1,.06-2.47Z"/><path class="cls-1" d="M22.54,31.77a7.93,7.93,0,0,1,2-.81.15.15,0,0,1,.08.28C21,32.43,18.64,35.83,17,39a28.39,28.39,0,0,0-2.19,5.54c-.23.86-.42,1.72-.61,2.59l-.27,1.29a4,4,0,0,1-.57,1.68h0a.24.24,0,0,1,.2,0A78.62,78.62,0,0,1,22.27,52a.09.09,0,0,1,.08.1,24.12,24.12,0,0,1,4.75-1.27,3.28,3.28,0,0,1-.3-1.45c-.05.06-.12.1-.18.16s-.25,0-.16-.16l.14-.16s0,0,0-.06c-.07-2.4,2-4.11,3.22-5.94a34.43,34.43,0,0,0,3.77-8.45l-.41.16c-.19.07-.31-.16-.24-.31,1.63-3.73,1.56-7.69,1.56-11.68a.13.13,0,0,1,.25,0,42.94,42.94,0,0,1-.18,7.35A14.63,14.63,0,0,1,34,32.88c-.14.44-.27.88-.45,1.3-.22.21-.14.23.22.08h0l0,0c.19,0,.31.23.13.32l0,0a26.54,26.54,0,0,1-3,7.77c-1.32,2.17-3.19,3.88-3.85,6.35a2.3,2.3,0,0,1,.83-.49c.12,0,.24.14.13.23l0,0a7.12,7.12,0,0,0,.31.76A4.23,4.23,0,0,1,30,48c.16-.06.23.17.11.26l0,0a10.46,10.46,0,0,0,1.07,1.79l.07-.11a.14.14,0,0,1,.07-.16l.09,0a1.5,1.5,0,0,1,.72-.52h.07A87.21,87.21,0,0,0,38.9,41a20.54,20.54,0,0,0,3.35-10.19.19.19,0,0,1,.37,0c.74,7.17-5.36,13.66-10.09,18.49,4-1.65,9.06-2.41,13.19-1.18a6.14,6.14,0,0,1,1,.41c.62-4.79-.35-9.66-1.22-14.38a127.48,127.48,0,0,0-3.06-12.77.21.21,0,0,1,.19-.25H43a44.78,44.78,0,0,1-4.07-8.7c-1.17-3.09-2.16-7.88-5.1-9.77a.11.11,0,0,1,0-.12l0-.13a.22.22,0,0,1,.1-.24L34,2.06a.2.2,0,0,1-.1,0,9.37,9.37,0,0,0-2.35-.93,10.49,10.49,0,0,0-4.63,0l-.05,0a.15.15,0,0,1-.2,0l-.14,0A.11.11,0,0,1,26.5,1l.18,0h0c.71-.81-1.32-.09-1.59,0a15,15,0,0,0-2.76,1,9.07,9.07,0,0,0-3.82,3.33,6.94,6.94,0,0,0-1,5.3c.51,1.66,1.56,3,2.27,4.54a24.64,24.64,0,0,1,2.05,7.58A60.51,60.51,0,0,1,22.54,31.77ZM18.82,45.63l-.23.42a.11.11,0,0,1-.2-.09l.15-.45A.15.15,0,1,1,18.82,45.63Zm1.94-7.05a.13.13,0,0,1-.23-.1,3.07,3.07,0,0,1,.23-.64c.06-.17.34-.1.28.08A3.85,3.85,0,0,1,20.76,38.58Zm11.65,5.19a3.46,3.46,0,0,1-.29.45c-.06.08-.19,0-.16-.09s.16-.32.24-.48S32.49,43.64,32.41,43.77ZM33,46a1.78,1.78,0,0,1-.35.32c-.11.08-.27-.07-.19-.18a2.24,2.24,0,0,1,.33-.36C32.91,45.68,33.12,45.89,33,46Zm8.47-.33c-.06.16-.32.15-.3,0a6,6,0,0,1,.1-.61c0-.23.4-.13.35.09A4.58,4.58,0,0,1,41.45,45.71Zm.29-5.32a.13.13,0,0,1-.25,0,2.57,2.57,0,0,1,0-.48.15.15,0,0,1,.29,0A1.93,1.93,0,0,1,41.74,40.39Zm2.75,1.69c0-.2.38-.15.36.05a2.55,2.55,0,0,1-.11.55.15.15,0,0,1-.3,0A2.62,2.62,0,0,1,44.49,42.08Zm-.1-7c0,.14,0,.28,0,.42a.14.14,0,0,1-.27,0A3,3,0,0,1,44,35C44,34.8,44.41,34.8,44.39,35ZM23.73,16.11a2.8,2.8,0,0,1-.27-.4c-.07-.12.11-.22.19-.11a2,2,0,0,1,.24.39C23.93,16.08,23.82,16.2,23.73,16.11Zm-.85,27.25.1-.26c.08-.19.37-.06.26.11l-.14.24C23,43.57,22.83,43.49,22.88,43.36Zm1,4.52a6.62,6.62,0,0,1-.65.74c-.12.1-.3,0-.22-.16a5.6,5.6,0,0,1,.62-.83C23.76,47.45,24,47.7,23.87,47.88Zm1.05-14c-.16.13-.31.26-.48.38s-.19-.08-.12-.15l.43-.4C24.87,33.65,25,33.82,24.92,33.92Zm.37-8.5c0-.22-.06-.43-.08-.65a.06.06,0,0,1,.11,0c0,.21.07.43.08.64S25.3,25.48,25.29,25.42ZM27.81,39a2.31,2.31,0,0,1-.24.2c-.12.09-.31-.09-.21-.22a2,2,0,0,1,.19-.24C27.71,38.53,28,38.8,27.81,39Zm.41-15.75a5.09,5.09,0,0,1-.14-.56c0-.14.18-.21.22-.06a4,4,0,0,1,.13.6C28.44,23.31,28.26,23.32,28.22,23.21Zm.3-5a1.29,1.29,0,0,1-.16-.64.14.14,0,0,1,.28,0,5.25,5.25,0,0,0,.09.55A.12.12,0,0,1,28.52,18.25ZM29,31.77c0-.11-.06-.21-.09-.31s.21-.22.24-.07a2.09,2.09,0,0,1,0,.35A.1.1,0,0,1,29,31.77Zm2.51-3.45a.12.12,0,1,1-.24,0c0-.19,0-.38,0-.57s.32-.2.32,0S31.56,28.13,31.54,28.32Zm.26-13-.21-.23c-.13-.13.1-.31.2-.15l.16.27A.09.09,0,0,1,31.8,15.33ZM35.32,38a.1.1,0,0,1-.2-.06,5.08,5.08,0,0,1,.15-.65.15.15,0,0,1,.28.08A4.75,4.75,0,0,1,35.32,38Zm1.08,3-.15.3a.09.09,0,0,1-.17-.07c0-.11.06-.22.1-.33A.12.12,0,1,1,36.4,41ZM41,25.47a.09.09,0,0,1,.17,0,2.4,2.4,0,0,1,0,.6c0,.1-.19.1-.21,0A2.4,2.4,0,0,1,41,25.47Zm-1-4.52a4.71,4.71,0,0,1,.36.75c.07.16-.17.23-.26.11a6,6,0,0,1-.41-.69C39.52,20.93,39.82,20.75,39.93,21ZM38.59,34.4l.17-.33c.09-.17.37,0,.26.15l-.21.31A.13.13,0,0,1,38.59,34.4ZM37.26,13.58c.06.19.11.39.16.58a.11.11,0,0,1-.21.06c-.08-.19-.16-.37-.22-.56S37.2,13.42,37.26,13.58Zm-.39,13.79a.76.76,0,0,1-.11.53.17.17,0,0,1-.31-.13,1.08,1.08,0,0,0,0-.4C36.45,27.11,36.85,27.12,36.87,27.37ZM36.26,7.14a.55.55,0,0,1,.19.62.1.1,0,0,1-.2,0,.55.55,0,0,0-.17-.42C36,7.2,36.14,7,36.26,7.14ZM36,19a5.3,5.3,0,0,1,.46.6c.07.11-.09.23-.18.14a5.29,5.29,0,0,1-.47-.59C35.74,19.08,35.92,18.94,36,19ZM30.4,1.87l.35,0a.12.12,0,0,1,0,.24l-.35,0C30.2,2.2,30.2,1.86,30.4,1.87Zm-5.75.32a.74.74,0,0,1,.68,0c.12.06,0,.23-.09.2a1,1,0,0,0-.51,0C24.62,2.43,24.53,2.24,24.65,2.19Zm-6,8.16a.17.17,0,0,1-.07-.13A4.93,4.93,0,0,1,18,7.58c.19-3.89,4.25-5.18,7.17-3.14h0c2.57-1,4.14-2.15,7-1.12a5.73,5.73,0,0,1,3.34,3.91c.32,1.5.29,3.47-1.36,4.19-2.3,1-4.63,0-7,.14-2,.09-5,1.33-6.92.23A4.17,4.17,0,0,1,18.68,10.35Z"/><path class="cls-2" d="M28.42,11.14c1.66.14,3.94.88,5.45-.1L34,11A41.29,41.29,0,0,0,30.3,8.57c-.47-.33-1.07-1.17-.81-1.79.7-1.72,3.93-.56,5.41.12a5.09,5.09,0,0,0-1.19-1.85,5.54,5.54,0,0,0-5.23-1.57c-1.05.31-1.94.9-2.94,1.3a.14.14,0,0,1-.21.15l-.08,0A.19.19,0,0,1,25,4.75c-1.77-1-4.24-1.45-5.7.36a4.21,4.21,0,0,0-.76,1.7c1-.6,4.25-2.14,4.71-.45a1.76,1.76,0,0,1-.88,2,30,30,0,0,1-3.33,2,2.51,2.51,0,0,0,.51.57C21.86,12.8,25.65,10.9,28.42,11.14ZM25.57,6.76a1,1,0,0,1,.58,0c.55,0,1.14.21.89.78a1,1,0,0,1-.87.39,1.52,1.52,0,0,1-.52-.12.43.43,0,0,1-.37-.21.9.9,0,0,1-.06-.22A.48.48,0,0,1,25.57,6.76ZM25.24,9.1c.08.19.4.34.56.15A.51.51,0,0,0,25.93,9v-.1a1.31,1.31,0,0,0-.06-.27c-.05-.13.15-.21.22-.09l0,0a.15.15,0,0,1,.14.15c0,.42.39,1,.84.59.14-.12.39,0,.27.21a.75.75,0,0,1-1.07.19.79.79,0,0,1-.19-.17.58.58,0,0,1-.27.21A.61.61,0,0,1,25,9.18C25,9,25.18,9,25.24,9.1Z"/><path class="cls-1" d="M22.91,7.05c.37-2.09-3.67-.29-4.41,0a4.64,4.64,0,0,0,.37,2.86c.61-.42,1.26-.77,1.9-1.14S22.76,7.88,22.91,7.05Zm-2.82.89c-.08,0-.22,0-.18-.14.25-.63,1.36-1.1,1.82-.46a.14.14,0,0,1-.16.21,1,1,0,0,0-.93,0A4.91,4.91,0,0,1,20.09,7.94Z"/><path class="cls-1" d="M13.19,50.12A5.33,5.33,0,0,1,13.32,49c.24-1.29.48-2.6.81-3.87a28.59,28.59,0,0,1,2.43-6.31c1.42-2.57,3.2-5.34,5.76-6.89a57.15,57.15,0,0,0-.91-10A27.76,27.76,0,0,1,16.69,32.7l.19-.08a.15.15,0,0,1,.19.09.09.09,0,0,1,0,.07.24.24,0,0,1,0,.08C14.5,38.48,11.76,43.66,12.22,50,12.54,50.06,12.86,50.08,13.19,50.12ZM21,32a4.07,4.07,0,0,1-.4.43c-.11.09-.29,0-.2-.16a3.57,3.57,0,0,1,.38-.49C20.86,31.6,21.08,31.82,21,32Zm-.9-3.42a4.6,4.6,0,0,0,.55-.62c.1-.14.33,0,.23.14a1.76,1.76,0,0,1-.63.67A.12.12,0,0,1,20.05,28.55Zm-3.8,7.63a4.23,4.23,0,0,0,.25-.62c.06-.19.36-.11.3.08a2.16,2.16,0,0,1-.36.69C16.35,36.45,16.19,36.3,16.25,36.18ZM13.33,43a1.7,1.7,0,0,0,.24-.51.17.17,0,0,1,.33.09,1,1,0,0,1-.4.59C13.4,43.27,13.27,43.13,13.33,43Z"/><path class="cls-3" d="M27.06,11.55c2.4-.12,4.73.87,7-.14,1.65-.72,1.68-2.69,1.36-4.19a5.73,5.73,0,0,0-3.34-3.91c-2.82-1-4.39.15-7,1.12h0c-2.92-2-7-.75-7.17,3.14a4.93,4.93,0,0,0,.64,2.64.17.17,0,0,0,.07.13,4.17,4.17,0,0,0,1.46,1.43C22,12.88,25.09,11.64,27.06,11.55Zm7.2-.82a11.45,11.45,0,0,0-3.21-2.2c-.31-.16-2.21-1.61-.49-2a5.75,5.75,0,0,1,1.55,0,12.85,12.85,0,0,1,2.9.73A3.32,3.32,0,0,1,34.26,10.73ZM18.5,7.06c.74-.3,4.78-2.1,4.41,0-.15.83-1.5,1.35-2.14,1.73s-1.29.72-1.9,1.14A4.64,4.64,0,0,1,18.5,7.06Zm1.06,3.78a2.51,2.51,0,0,1-.51-.57,30,30,0,0,0,3.33-2,1.76,1.76,0,0,0,.88-1.95c-.46-1.69-3.67-.15-4.71.45a4.21,4.21,0,0,1,.76-1.7C20.77,3.3,23.24,3.8,25,4.75a.19.19,0,0,0,.24.14l.08,0a.14.14,0,0,0,.21-.15c1-.4,1.89-1,2.94-1.3a5.54,5.54,0,0,1,5.23,1.57A5.09,5.09,0,0,1,34.9,6.9c-1.48-.68-4.71-1.84-5.41-.12-.26.62.34,1.46.81,1.79A41.29,41.29,0,0,1,34,11l-.11.08c-1.51,1-3.79.24-5.45.1C25.65,10.9,21.86,12.8,19.56,10.84Z"/><path class="cls-3" d="M21.57,7.55a.14.14,0,0,0,.16-.21c-.46-.64-1.57-.17-1.82.46,0,.11.1.17.18.14a4.91,4.91,0,0,0,.55-.38A1,1,0,0,1,21.57,7.55Z"/><path class="cls-3" d="M31,7.57c-.09.11,0,.28.15.2.53-.32.9-.12,1.22.35.07.11.27.08.26-.07A.93.93,0,0,0,31,7.57Z"/><path class="cls-3" d="M25.28,7.59a.43.43,0,0,0,.37.21,1.52,1.52,0,0,0,.52.12A1,1,0,0,0,27,7.53c.25-.57-.34-.78-.89-.78a1,1,0,0,0-.58,0,.48.48,0,0,0-.35.61A.9.9,0,0,0,25.28,7.59Z"/><path class="cls-3" d="M25.83,9.71a.58.58,0,0,0,.27-.21.79.79,0,0,0,.19.17.75.75,0,0,0,1.07-.19c.12-.17-.13-.33-.27-.21-.45.36-.84-.17-.84-.59a.15.15,0,0,0-.14-.15l0,0c-.07-.12-.27,0-.22.09a1.31,1.31,0,0,1,.06.27V9a.51.51,0,0,1-.13.29c-.16.19-.48,0-.56-.15S25,9,25,9.18A.61.61,0,0,0,25.83,9.71Z"/><path class="cls-3" d="M47.19,48.75c.32,0,.18-5.64.14-6-.23-2.19-.58-4.38-1-6.56-.42-2.39-.93-4.77-1.46-7.14-.19-.82-2.1-6.87-1.62-7.64a.14.14,0,0,0,.13-.12.1.1,0,0,0,0-.17A97.91,97.91,0,0,1,38.48,9.81c-.94-2.43-1.88-5.94-4.33-7.3.14-.06.39-.17.43-.2a.21.21,0,0,0,0-.37A9.7,9.7,0,0,0,27.31.74c.05-.07.1-.17.25-.45A.2.2,0,0,0,27.34,0C22.52.76,15.8,4,17,10.09a13.28,13.28,0,0,0,1.81,4.05,21.26,21.26,0,0,1,2.25,6.12c.06.28.11.58.16.86a32.1,32.1,0,0,1-5.4,12c-.15.19.12.4.3.3a4.62,4.62,0,0,0,.48-.28,49,49,0,0,0-3.52,7.56A24.49,24.49,0,0,0,12,45.23a20.63,20.63,0,0,0-.21,2.08c0,.45,0,.91,0,1.37a.8.8,0,0,0,.26.92.13.13,0,0,0-.17.13V50c-.64,0-1.27-.06-1.91,0-2.69.08-7.49,0-9.13,2.7-.86,1.38-1.48,4.34.6,5.07A9.26,9.26,0,0,0,6,57.88a58.45,58.45,0,0,1,7.7-.7,1.6,1.6,0,0,0-.29,1,.13.13,0,0,0,.09.12,1.73,1.73,0,0,0-.35,1.63s0,0,0,0v0a.14.14,0,0,0,.24-.07c1.3-1.1,3.16-1,4.54-1.88a.23.23,0,0,0,.22.09c6-1,11.91.28,17.88.88a23.92,23.92,0,0,0,7.78-.35c1.64-.37,4.06-1.18,5.08-2.61C50.9,53.25,49.69,50.23,47.19,48.75ZM19.83,15.08c-.71-1.56-1.76-2.88-2.27-4.54a6.94,6.94,0,0,1,1-5.3,9.07,9.07,0,0,1,3.82-3.33,15,15,0,0,1,2.76-1c.27-.08,2.3-.8,1.59,0h0L26.5,1a.11.11,0,0,0,.06.21l.14,0a.15.15,0,0,0,.2,0l.05,0a10.49,10.49,0,0,1,4.63,0A9.37,9.37,0,0,1,33.93,2a.2.2,0,0,0,.1,0l-.18.08a.22.22,0,0,0-.1.24l0,.13a.11.11,0,0,0,0,.12c2.94,1.89,3.93,6.68,5.1,9.77A44.78,44.78,0,0,0,43,21.1h-.34a.21.21,0,0,0-.19.25,127.48,127.48,0,0,1,3.06,12.77c.87,4.72,1.84,9.59,1.22,14.38a6.14,6.14,0,0,0-1-.41c-4.13-1.23-9.16-.47-13.19,1.18C37.26,44.45,43.36,38,42.62,30.79a.19.19,0,0,0-.37,0A20.54,20.54,0,0,1,38.9,41a87.21,87.21,0,0,1-6.73,8.28H32.1a1.5,1.5,0,0,0-.72.52l-.09,0a.14.14,0,0,0-.07.16l-.07.11a10.46,10.46,0,0,1-1.07-1.79l0,0c.12-.09.05-.32-.11-.26a4.23,4.23,0,0,0-1.7,1.2,7.12,7.12,0,0,1-.31-.76l0,0c.11-.09,0-.26-.13-.23a2.3,2.3,0,0,0-.83.49c.66-2.47,2.53-4.18,3.85-6.35a26.54,26.54,0,0,0,3-7.77l0,0c.18-.09.06-.36-.13-.32l0,0h0c-.36.15-.44.13-.22-.08.18-.42.31-.86.45-1.3a14.63,14.63,0,0,0,.55-2.63,42.94,42.94,0,0,0,.18-7.35.13.13,0,0,0-.25,0c0,4,.07,8-1.56,11.68-.07.15.05.38.24.31l.41-.16a34.43,34.43,0,0,1-3.77,8.45c-1.24,1.83-3.29,3.54-3.22,5.94,0,0,0,0,0,.06l-.14.16c-.09.11.06.26.16.16s.13-.1.18-.16a3.28,3.28,0,0,0,.3,1.45,24.12,24.12,0,0,0-4.75,1.27.09.09,0,0,0-.08-.1,78.62,78.62,0,0,0-8.71-1.8.24.24,0,0,0-.2,0h0a4,4,0,0,0,.57-1.68l.27-1.29c.19-.87.38-1.73.61-2.59A28.39,28.39,0,0,1,17,39c1.65-3.21,4-6.61,7.6-7.8a.15.15,0,0,0-.08-.28,7.93,7.93,0,0,0-2,.81,60.51,60.51,0,0,0-.66-9.11A24.64,24.64,0,0,0,19.83,15.08ZM31,53.09a2.74,2.74,0,0,1-.53-.23,2.23,2.23,0,0,1-.86-1.12.1.1,0,0,0-.2.06A2.51,2.51,0,0,0,30.14,53l0,0a1.84,1.84,0,0,1-1.69-2,.14.14,0,0,0-.27,0,1.72,1.72,0,0,0,0,.78,3.5,3.5,0,0,1-1.06-2.68l.22-.19.4-.25a4.46,4.46,0,0,0,.34,1,.17.17,0,0,0,.26,0,9.17,9.17,0,0,1,1.48-1.17A6.12,6.12,0,0,0,31,50.58l.06,0A3,3,0,0,0,31,53.09Zm-14-20.23a.24.24,0,0,0,0-.08.09.09,0,0,0,0-.07.15.15,0,0,0-.19-.09l-.19.08a27.76,27.76,0,0,0,4.72-10.77,57.15,57.15,0,0,1,.91,10c-2.56,1.55-4.34,4.32-5.76,6.89a28.59,28.59,0,0,0-2.43,6.31c-.33,1.27-.57,2.58-.81,3.87a5.33,5.33,0,0,0-.13,1.15c-.33,0-.65-.06-1-.08C11.76,43.66,14.5,38.48,17.05,32.86ZM5.87,57.48c-2.08.37-5.28.66-5.48-2.28-.14-2.11,1.61-3.43,3.39-4,6-1.91,12.35.08,18.29,1A28.54,28.54,0,0,0,18,54.1a.2.2,0,0,0-.08.22,5.85,5.85,0,0,0-3.66,2.28,2.61,2.61,0,0,0-.27.22.22.22,0,0,0-.12,0A35.25,35.25,0,0,0,5.87,57.48Zm12.2.05c-.9.37-1.78.69-2.71,1a5.16,5.16,0,0,0-1.9,1,2.47,2.47,0,0,1,.35-1,2.08,2.08,0,0,1,1.25-.86c.2,0,.11-.34-.09-.31a2.59,2.59,0,0,0-1.28.74A2.75,2.75,0,0,1,16,56.23c.17,0,.09-.3-.08-.27a6.13,6.13,0,0,0-.76.2,7.4,7.4,0,0,1,3.56-1.61l.2,0-.75.94a.18.18,0,0,0,.13.31c.22,0,.45.08.68.1A12.85,12.85,0,0,0,18.07,57.53Zm25,.91c-4.6,1-9.65-.23-14.23-.78a51.79,51.79,0,0,0-6.47-.4,21.79,21.79,0,0,0-2.91.21c-1.55.22-.65-.63-.14-1.51a.16.16,0,0,0,0-.15.14.14,0,0,0-.06-.18,1.88,1.88,0,0,0-.63-.15c.2-.3.4-.59.59-.9a.15.15,0,0,0,.09-.17.12.12,0,0,0-.13-.13c-.74-.16-.53-.1.16-.46.95-.49,1.95-.91,2.95-1.31a35.35,35.35,0,0,1,4.94-1.44,3.39,3.39,0,0,0,1.14,1.18,2.14,2.14,0,0,0,2.25,1.08h0a1.39,1.39,0,0,0,.77.2c.12,0,.22-.2.07-.27l-.1,0a4.22,4.22,0,0,1,0-2.63.14.14,0,0,0,0-.13,3.89,3.89,0,0,1,.39-.43h0l.09-.09A24.14,24.14,0,0,1,44.37,48.4c2.68.41,5.06,1.88,5,4.85C49.23,56.58,45.9,57.83,43.09,58.44Z"/><path class="cls-3" d="M21.72,53.91A4.34,4.34,0,0,0,21,54a.13.13,0,0,0,.07.26,5.2,5.2,0,0,0,.68-.17C21.87,54.09,21.85,53.9,21.72,53.91Z"/><path class="cls-3" d="M26.23,56.13a1.78,1.78,0,0,0-.68.12c-.19,0-.11.33.09.29a1.83,1.83,0,0,0,.65-.16A.13.13,0,0,0,26.23,56.13Z"/><path class="cls-3" d="M28.8,54.45a.75.75,0,0,0-.3,0,.2.2,0,0,0,0,.4,1,1,0,0,0,.3,0A.17.17,0,0,0,28.8,54.45Z"/><path class="cls-3" d="M34.65,51.57a1.82,1.82,0,0,0-.61.07.13.13,0,0,0,0,.26,1.78,1.78,0,0,0,.61,0A.15.15,0,0,0,34.65,51.57Z"/><path class="cls-3" d="M36.89,54.12a3.6,3.6,0,0,0-.66,0c-.19,0-.19.31,0,.31a2.89,2.89,0,0,0,.66-.05A.11.11,0,0,0,36.89,54.12Z"/><path class="cls-3" d="M40.13,56.88a3,3,0,0,0-.6,0,.18.18,0,0,0,0,.35,3,3,0,0,0,.6,0A.14.14,0,0,0,40.13,56.88Z"/><path class="cls-3" d="M41.37,52.66a1,1,0,0,1-.51.1c-.15,0-.19.24,0,.26a.81.81,0,0,0,.67-.15A.12.12,0,0,0,41.37,52.66Z"/><path class="cls-3" d="M43.74,50.76a1.21,1.21,0,0,0-.7-.08c-.15,0-.12.28,0,.27a3.11,3.11,0,0,1,.61,0A.1.1,0,1,0,43.74,50.76Z"/><path class="cls-3" d="M45.93,53.71l-.11.1a.17.17,0,1,0,.13.32.38.38,0,0,0,.23-.31C46.2,53.67,46,53.57,45.93,53.71Z"/><path class="cls-3" d="M38.7,49.55c-.15,0-.15.25,0,.24a.88.88,0,0,1,.36,0,.1.1,0,0,0,.07-.18A.59.59,0,0,0,38.7,49.55Z"/><path class="cls-3" d="M5,52.26a4,4,0,0,0-.6.13c-.16,0-.09.28.07.25A5.12,5.12,0,0,0,5,52.49C5.15,52.45,5.14,52.25,5,52.26Z"/><path class="cls-3" d="M3.29,54.94l-.63,0a.14.14,0,0,0,0,.28c.21,0,.42,0,.63,0A.11.11,0,1,0,3.29,54.94Z"/><path class="cls-3" d="M7.37,55.42a1.88,1.88,0,0,1-.53,0c-.25,0-.25.37,0,.39a1.23,1.23,0,0,0,.65-.13C7.65,55.61,7.52,55.39,7.37,55.42Z"/><path class="cls-3" d="M10.55,53.09a3.11,3.11,0,0,0-.61,0,.14.14,0,0,0,0,.27,3.11,3.11,0,0,0,.61,0A.12.12,0,0,0,10.55,53.09Z"/><path class="cls-3" d="M13,51.76a1.87,1.87,0,0,0-.34,0,.15.15,0,1,0,0,.3A1.27,1.27,0,0,0,13,52,.12.12,0,0,0,13,51.76Z"/><path class="cls-3" d="M14.13,54.05a.08.08,0,0,0,0-.16h-.19a.1.1,0,1,0,0,.19Z"/><path class="cls-3" d="M20.2,28.74a1.76,1.76,0,0,0,.63-.67c.1-.15-.13-.28-.23-.14a4.6,4.6,0,0,1-.55.62A.12.12,0,0,0,20.2,28.74Z"/><path class="cls-3" d="M20.73,31.75a3.57,3.57,0,0,0-.38.49c-.09.13.09.25.2.16A4.07,4.07,0,0,0,21,32C21.08,31.82,20.86,31.6,20.73,31.75Z"/><path class="cls-3" d="M16.44,36.33a2.16,2.16,0,0,0,.36-.69c.06-.19-.24-.27-.3-.08a4.23,4.23,0,0,1-.25.62C16.19,36.3,16.35,36.45,16.44,36.33Z"/><path class="cls-3" d="M13.5,43.2a1,1,0,0,0,.4-.59.17.17,0,0,0-.33-.09,1.7,1.7,0,0,1-.24.51C13.27,43.13,13.4,43.27,13.5,43.2Z"/><path class="cls-3" d="M36.45,27.77a.17.17,0,0,0,.31.13.76.76,0,0,0,.11-.53c0-.25-.42-.26-.4,0A1.08,1.08,0,0,1,36.45,27.77Z"/><path class="cls-3" d="M38.81,34.53l.21-.31c.11-.16-.17-.32-.26-.15l-.17.33A.13.13,0,0,0,38.81,34.53Z"/><path class="cls-3" d="M35.27,37.27a5.08,5.08,0,0,0-.15.65.1.1,0,0,0,.2.06,4.75,4.75,0,0,0,.23-.63A.15.15,0,0,0,35.27,37.27Z"/><path class="cls-3" d="M36.18,40.89c0,.11-.07.22-.1.33a.09.09,0,0,0,.17.07l.15-.3A.12.12,0,1,0,36.18,40.89Z"/><path class="cls-3" d="M32.2,43.65c-.08.16-.17.31-.24.48s.1.17.16.09a3.46,3.46,0,0,0,.29-.45C32.49,43.64,32.28,43.52,32.2,43.65Z"/><path class="cls-3" d="M32.77,45.82a2.24,2.24,0,0,0-.33.36c-.08.11.08.26.19.18A1.78,1.78,0,0,0,33,46C33.12,45.89,32.91,45.68,32.77,45.82Z"/><path class="cls-3" d="M41.15,26.07a2.4,2.4,0,0,0,0-.6.09.09,0,0,0-.17,0,2.4,2.4,0,0,0,0,.6C41,26.17,41.14,26.17,41.15,26.07Z"/><path class="cls-3" d="M44.35,35.45c0-.14,0-.28,0-.42S44,34.8,44,35a3,3,0,0,0,0,.42A.14.14,0,0,0,44.35,35.45Z"/><path class="cls-3" d="M41.47,39.91a2.57,2.57,0,0,0,0,.48.13.13,0,0,0,.25,0,1.93,1.93,0,0,0,0-.48A.15.15,0,0,0,41.47,39.91Z"/><path class="cls-3" d="M44.74,42.68a2.55,2.55,0,0,0,.11-.55c0-.2-.33-.25-.36-.05a2.62,2.62,0,0,0-.05.55A.15.15,0,0,0,44.74,42.68Z"/><path class="cls-3" d="M41.25,45.06a6,6,0,0,0-.1.61c0,.19.24.2.3,0a4.58,4.58,0,0,0,.15-.56C41.65,44.93,41.3,44.83,41.25,45.06Z"/><path class="cls-3" d="M24.75,33.75l-.43.4c-.07.07,0,.22.12.15s.32-.25.48-.38S24.87,33.65,24.75,33.75Z"/><path class="cls-3" d="M20.76,37.84a3.07,3.07,0,0,0-.23.64.13.13,0,0,0,.23.1,3.85,3.85,0,0,0,.28-.66C21.1,37.74,20.82,37.67,20.76,37.84Z"/><path class="cls-3" d="M27.55,38.7a2,2,0,0,0-.19.24c-.1.13.09.31.21.22a2.31,2.31,0,0,0,.24-.2C28,38.8,27.71,38.53,27.55,38.7Z"/><path class="cls-3" d="M23.1,43.45l.14-.24c.11-.17-.18-.3-.26-.11l-.1.26C22.83,43.49,23,43.57,23.1,43.45Z"/><path class="cls-3" d="M18.54,45.51l-.15.45a.11.11,0,0,0,.2.09l.23-.42A.15.15,0,1,0,18.54,45.51Z"/><path class="cls-3" d="M23.62,47.63a5.6,5.6,0,0,0-.62.83c-.08.13.1.26.22.16a6.62,6.62,0,0,0,.65-.74C24,47.7,23.76,47.45,23.62,47.63Z"/><path class="cls-3" d="M23.65,15.6c-.08-.11-.26,0-.19.11a2.8,2.8,0,0,0,.27.4c.09.09.2,0,.16-.12A2,2,0,0,0,23.65,15.6Z"/><path class="cls-3" d="M28.36,17.61a1.29,1.29,0,0,0,.16.64.12.12,0,0,0,.21-.09,5.25,5.25,0,0,1-.09-.55A.14.14,0,0,0,28.36,17.61Z"/><path class="cls-3" d="M31.79,15c-.1-.16-.33,0-.2.15l.21.23a.09.09,0,0,0,.15-.11Z"/><path class="cls-3" d="M28.08,22.65a5.09,5.09,0,0,0,.14.56c0,.11.22.1.21,0a4,4,0,0,0-.13-.6C28.26,22.44,28.05,22.51,28.08,22.65Z"/><path class="cls-3" d="M25.21,24.77c0,.22,0,.43.08.65,0,.06.11,0,.11,0s0-.43-.08-.64A.06.06,0,0,0,25.21,24.77Z"/><path class="cls-3" d="M31.26,27.75c0,.19,0,.38,0,.57a.12.12,0,1,0,.24,0c0-.19,0-.38,0-.57S31.25,27.55,31.26,27.75Z"/><path class="cls-3" d="M28.94,31.46c0,.1,0,.2.09.31a.1.1,0,0,0,.19,0,2.09,2.09,0,0,0,0-.35C29.15,31.24,28.91,31.3,28.94,31.46Z"/><path class="cls-3" d="M36.29,19.78c.09.09.25,0,.18-.14A5.3,5.3,0,0,0,36,19c-.09-.1-.27,0-.19.15A5.29,5.29,0,0,0,36.29,19.78Z"/><path class="cls-3" d="M37.42,14.16c-.05-.19-.1-.39-.16-.58s-.32-.09-.27.08.14.37.22.56A.11.11,0,0,0,37.42,14.16Z"/><path class="cls-3" d="M40,21.81c.09.12.33.05.26-.11a4.71,4.71,0,0,0-.36-.75c-.11-.2-.41,0-.31.17A6,6,0,0,0,40,21.81Z"/><path class="cls-3" d="M24.73,2.39a1,1,0,0,1,.51,0c.12,0,.21-.14.09-.2a.74.74,0,0,0-.68,0C24.53,2.24,24.62,2.43,24.73,2.39Z"/><path class="cls-3" d="M30.4,2.19l.35,0a.13.13,0,0,0,0-.24l-.35,0C30.2,1.86,30.2,2.2,30.4,2.19Z"/><path class="cls-3" d="M36.25,7.73a.1.1,0,0,0,.2,0,.55.55,0,0,0-.19-.62c-.12-.1-.3.06-.18.17A.55.55,0,0,1,36.25,7.73Z"/><path class="cls-4" d="M27.53,1l-.11,0a3.26,3.26,0,0,0-.48.2Z"/><path class="cls-5" d="M45.72,48.1a6.14,6.14,0,0,1,1,.41c.62-4.79-.35-9.66-1.22-14.38a127.48,127.48,0,0,0-3.06-12.77.21.21,0,0,1,.19-.25H43a44.78,44.78,0,0,1-4.07-8.7c-1.17-3.09-2.16-7.88-5.1-9.77a.11.11,0,0,1,0-.12l0-.13a.22.22,0,0,1,.1-.24L34,2.06a.2.2,0,0,1-.1,0,9.37,9.37,0,0,0-2.35-.93A10.39,10.39,0,0,0,28.4.87c1.74.07,3.49,1.55,4.69,2.95a5.93,5.93,0,0,1,2.36,3.4,5.07,5.07,0,0,1-.12,2.94c.13.34.27.69.41,1A24.69,24.69,0,0,0,37,13.65c0-.16.21-.23.27-.07s.11.39.16.58,0,.11-.06.12c.53.93,1.07,1.85,1.52,2.82-.42,0-.91-.21-1.37-.21,2.06,4.54.7,9.8.78,14.56-.85-1.36-1.16-.63-1.41.44-.57,2.46-.78,4.82-1.57,7.25A37.77,37.77,0,0,1,31.16,48c-.19.31-.46.66-.73,1a8.87,8.87,0,0,0,.72,1.12l.07-.11a.14.14,0,0,1,.07-.16l.09,0a1.5,1.5,0,0,1,.72-.52h.07A87.21,87.21,0,0,0,38.9,41a20.54,20.54,0,0,0,3.35-10.19.19.19,0,0,1,.37,0c.74,7.17-5.36,13.66-10.09,18.49C36.56,47.63,41.59,46.87,45.72,48.1ZM36.45,7.76a.1.1,0,0,1-.2,0,.55.55,0,0,0-.17-.42c-.12-.11.06-.27.18-.17A.55.55,0,0,1,36.45,7.76ZM33,46a1.78,1.78,0,0,1-.35.32c-.11.08-.27-.07-.19-.18a2.24,2.24,0,0,1,.33-.36C32.91,45.68,33.12,45.89,33,46Zm3.42-5-.15.3a.09.09,0,0,1-.17-.07c0-.11.06-.22.1-.33A.12.12,0,1,1,36.4,41ZM39,34.22l-.21.31a.13.13,0,0,1-.22-.13l.17-.33C38.85,33.9,39.13,34.06,39,34.22Zm1-12.41a6,6,0,0,1-.41-.69c-.1-.19.2-.37.31-.17a4.71,4.71,0,0,1,.36.75C40.36,21.86,40.12,21.93,40,21.81Zm1.12,4.26c0,.1-.19.1-.21,0a2.4,2.4,0,0,1,0-.6.09.09,0,0,1,.17,0A2.4,2.4,0,0,1,41.15,26.07Zm3.34,16c0-.2.38-.15.36.05a2.55,2.55,0,0,1-.11.55.15.15,0,0,1-.3,0A2.62,2.62,0,0,1,44.49,42.08Zm-.1-7c0,.14,0,.28,0,.42a.14.14,0,0,1-.27,0A3,3,0,0,1,44,35C44,34.8,44.41,34.8,44.39,35Zm-2.92,4.88a.15.15,0,0,1,.29,0,1.93,1.93,0,0,1,0,.48.13.13,0,0,1-.25,0A2.57,2.57,0,0,1,41.47,39.91Zm.13,5.24a4.58,4.58,0,0,1-.15.56c-.06.16-.32.15-.3,0a6,6,0,0,1,.1-.61C41.3,44.83,41.65,44.93,41.6,45.15Z"/><path class="cls-5" d="M44.37,48.4a23,23,0,0,0-5.74-.13c1,1.43.83,3-1.3,4.3a17.19,17.19,0,0,1-6.62,1.93c0-.14-.05-.39,0-.56-2.34,0-5.17,1.18-7.34,2,.19-.22.19-.45.32-.65-1.47-.76-3.45,1.26-5,1.89-.08.28.1.42.85.32a21.79,21.79,0,0,1,2.91-.21,51.79,51.79,0,0,1,6.47.4c4.58.55,9.63,1.78,14.23.78,2.81-.61,6.14-1.86,6.25-5.19C49.43,50.28,47.05,48.81,44.37,48.4Zm-18.08,8a1.83,1.83,0,0,1-.65.16c-.2,0-.28-.24-.09-.29a1.78,1.78,0,0,1,.68-.12A.13.13,0,0,1,26.29,56.38Zm2.51-1.61a1,1,0,0,1-.3,0,.2.2,0,0,1,0-.4.75.75,0,0,1,.3,0A.17.17,0,0,1,28.8,54.77Zm8.09-.44a2.89,2.89,0,0,1-.66.05c-.19,0-.19-.3,0-.31a3.6,3.6,0,0,1,.66,0A.11.11,0,0,1,36.89,54.33Zm3.24,2.81a3,3,0,0,1-.6,0,.18.18,0,0,1,0-.35,3,3,0,0,1,.6,0A.14.14,0,0,1,40.13,57.14Zm1.36-4.27a.81.81,0,0,1-.67.15c-.15,0-.11-.27,0-.26a1,1,0,0,0,.51-.1A.12.12,0,0,1,41.49,52.87ZM43.68,51a3.11,3.11,0,0,0-.61,0c-.15,0-.18-.25,0-.27a1.21,1.21,0,0,1,.7.08A.1.1,0,1,1,43.68,51ZM46,54.13a.17.17,0,1,1-.13-.32l.11-.1c.08-.14.27,0,.25.11A.38.38,0,0,1,46,54.13Z"/><path class="cls-5" d="M12.85,53.69c.18-.14.37-.57.5-.69-2.25,0-4.09.78-6.16,1.26.11-.18.14-.57.3-.79-1.2.08-2.84,1.07-4.33,1.46h.13a.11.11,0,1,1,0,.22c-.21,0-.42,0-.63,0a.13.13,0,0,1-.13-.14,2.19,2.19,0,0,1-2.09-.71,3.47,3.47,0,0,0,0,.86c.2,2.94,3.4,2.65,5.48,2.28a35.25,35.25,0,0,1,8-.71.22.22,0,0,1,.12,0,2.61,2.61,0,0,1,.27-.22,5.85,5.85,0,0,1,3.66-2.28A.2.2,0,0,1,18,54.1l.36-.2A30.44,30.44,0,0,0,12.85,53.69Zm-5.36,2a1.23,1.23,0,0,1-.65.13c-.25,0-.25-.41,0-.39a1.88,1.88,0,0,0,.53,0C7.52,55.39,7.65,55.61,7.49,55.68Zm6.64-1.63-.19,0a.1.1,0,1,1,0-.19h.19A.08.08,0,0,1,14.13,54.05Z"/><path class="cls-5" d="M22.32,31.9c0-1.56-.07-3.18-.22-4.79a25,25,0,0,1-2.4,3.32c.26-.14.66-.12.93-.23-.16,1.23-1.68,2.38-2.2,3.58a21,21,0,0,0-1.35,4.1A16.22,16.22,0,0,1,22.32,31.9Zm-2,.34a3.57,3.57,0,0,1,.38-.49c.13-.15.35.07.22.22a4.07,4.07,0,0,1-.4.43C20.44,32.49,20.26,32.37,20.35,32.24Z"/></svg>