<svg xmlns="http://www.w3.org/2000/svg" viewBox="0 0 150 150"><defs><style>.cls-1{fill:#ffdec7;}.cls-2{fill:#ffe0a2;}.cls-3{fill:#dc8449;}.cls-4{fill:#8bc764;}.cls-5{fill:#be9151;}.cls-6{fill:#603612;}.cls-7{fill:#c76d36;}.cls-8{fill:none;}.cls-9{fill:#eea36b;}</style></defs><g id="Layer_5" data-name="Layer 5"><circle class="cls-1" cx="85.34" cy="79.61" r="62.67"/><path class="cls-2" d="M102.66,40a.28.28,0,0,1,.33-.13,2.61,2.61,0,0,1,1.55,1l1.29-1.87a.28.28,0,0,1,.38-.1h0a11,11,0,0,0-.45-2.2,6.55,6.55,0,0,0-.58-1.19c-.2-.3-.78.69-.85.78a.17.17,0,0,1-.16.07s.06.1.08.15c.08.22-.2.31-.35.2-.46-.36-.83-.83-1.27-1.23-.26.62-.5,1.27-.81,1.87a2,2,0,0,1,.19.28.26.26,0,0,1-.35.35,2.12,2.12,0,0,1-.53-.35,17.54,17.54,0,0,0-.51,3.15c.29.45.58.89.84,1.35a.18.18,0,0,1,0,.14h0A10,10,0,0,1,102.66,40Z"/><path class="cls-3" d="M148.72,68.3c-1.23-3.71-3.27-6.81-5.34-10.08l0-.06-.14,0c-.27,0-.39-.46-.07-.52l.53-.09a24.27,24.27,0,0,0-13.47-4,.2.2,0,0,1-.18-.13s0,0-.05,0c-.26.26-.73-.08-.52-.4l.16-.22a16.68,16.68,0,0,0-12.26,7.57c-2.72,4.35-3.22,8.82-3.49,13.82h0c.1.32-.42.55-.56.23a18.88,18.88,0,0,1-2-8.61c.18-3.18.59-6.33.49-9.53A37.94,37.94,0,0,0,110.33,46a13.25,13.25,0,0,0-2.43-4.79c-.33-.38-1.53-2-2.24-1.1-.34.42-.69.83-1,1.23v0l-.16.18c-.1.12-.31,0-.22-.17a.35.35,0,0,0,0-.08,3.71,3.71,0,0,0-1.24-.76,7.66,7.66,0,0,1-1.39,1.95.09.09,0,0,1-.15-.08s0,0,0-.07h0c0,.19-.26.33-.4.16-.3-.35-.51-.61-.74-.91-.74,5.57-1.74,11.09-2.77,16.61a.33.33,0,0,1-.59.08v0a75.13,75.13,0,0,0-1.14,14.83l.19.23c.21.27-.12.63-.38.38-.45-.43-.88-.87-1.31-1.33A39.81,39.81,0,0,0,96.7,83.5h.06a.26.26,0,0,1,.12.41,16.22,16.22,0,0,0,2.71,4.33c.15.16,0,.44-.24.31a9.49,9.49,0,0,1-3.26-4.62c-6.69-.81-13.27-.94-19.85.91-5.94,1.68-14,4.94-17.13,10.66a.23.23,0,0,1-.11.11c.16.3.32.61.46.94a.15.15,0,0,1-.26.15,14.91,14.91,0,0,0-4.69-4.63,23.08,23.08,0,0,1-3.38-2.29.35.35,0,0,1-.51-.37.44.44,0,0,1,0-.1l-.08-.07a18.24,18.24,0,0,1-3.33-5.86,6.7,6.7,0,0,1-.13.71.24.24,0,0,1-.34.14l-.08,0h0l0,0c-2-3-2.42-6.75-2.7-10.22A54.9,54.9,0,0,0,42.14,61.9c-.6.65-1.2,1.3-1.85,1.89-.21.19-.59-.07-.41-.31l.36-.43A9,9,0,0,1,39,61.29a7,7,0,0,1-1.23,1.41.22.22,0,0,1-.35-.27l.07-.12,0,0c-.67-1-1.64-2.65-2.57-.68a19.48,19.48,0,0,0-1,2.67,46.69,46.69,0,0,0-1.3,5.08,49.12,49.12,0,0,0-.86,12.1c.49,7.61,2.94,15,5.6,22.1C42.25,116.72,51,130.15,65,134.8a44.26,44.26,0,0,0,22.59,1c7-1.38,14.08-3.55,20.21-7.18,12.79-7.56,18.77-22.07,29.43-31.88,5.42-5,9.73-10.33,11.28-17.71C149.24,75.64,149.83,71.66,148.72,68.3ZM35.59,69a1.93,1.93,0,0,1,.2-1.56.18.18,0,0,1,.33.09c0,.48-.16,1-.18,1.43C35.93,69.17,35.63,69.23,35.59,69ZM36,81.45a6.92,6.92,0,0,1-.25-2,.18.18,0,0,1,.35,0,6.57,6.57,0,0,1,.29,2A.2.2,0,0,1,36,81.45Zm4.84,16.19a5.83,5.83,0,0,1-.67-1.16c-.15-.29.27-.54.43-.26a6.17,6.17,0,0,1,.63,1.19C41.28,97.63,41,97.82,40.82,97.64Zm1.1-23.36a12,12,0,0,1-.22-1.8c0-.31.44-.3.48,0a12.78,12.78,0,0,1,.15,1.75A.21.21,0,0,1,41.92,74.28Zm3.44,14.8A1.51,1.51,0,0,0,44.69,88a.25.25,0,0,1,.25-.44A1.42,1.42,0,0,1,45.73,89C45.71,89.22,45.4,89.31,45.36,89.08Zm5.36,9a10,10,0,0,1-1-.82c-.3-.25.14-.68.44-.43a10.29,10.29,0,0,1,.91.84C51.22,97.84,51,98.19,50.72,98Zm2.68,16-.29.35a.23.23,0,0,1-.37,0,11.85,11.85,0,0,0-1.07-1.55c-.2-.23.13-.57.34-.34a5.85,5.85,0,0,1,1,1.4l.1-.09A.19.19,0,0,1,53.4,114Zm5-12.46c.55.06,1.09.14,1.63.24.2,0,.16.36,0,.35-.54,0-1.06-.09-1.59-.15C58.09,101.92,58.08,101.49,58.36,101.52Zm2.54,8.07a4.26,4.26,0,0,1-2.35-.47c-.27-.14,0-.53.24-.41a5.71,5.71,0,0,0,2.11.49A.2.2,0,0,1,60.9,109.59Zm9.71-11.26a6,6,0,0,1,1.33.22.23.23,0,0,1-.06.44,6.56,6.56,0,0,1-1.33-.19C70.28,98.75,70.34,98.3,70.61,98.33Zm1.18,27.24a2.13,2.13,0,0,1-1.55-.06c-.3-.11-.18-.59.13-.49a4.21,4.21,0,0,0,1.37.14C72,125.16,72,125.48,71.79,125.57Zm.8-11a5.25,5.25,0,0,1-1.19,0,.32.32,0,0,1,0-.63,5.25,5.25,0,0,1,1.19.06A.27.27,0,0,1,72.59,114.59ZM80.88,91c.66-.11,1.32-.19,2-.24.25,0,.31.4.06.45a19,19,0,0,1-2,.33C80.65,91.54,80.58,91,80.88,91Zm2.57,13.2a4,4,0,0,1-2.18.42c-.37,0-.38-.6,0-.58a6.23,6.23,0,0,0,2-.24C83.52,103.7,83.68,104.06,83.45,104.17Zm2.18,14.21a8.26,8.26,0,0,1-1.65.05.29.29,0,0,1,0-.57,8.26,8.26,0,0,1,1.65,0A.25.25,0,0,1,85.63,118.38ZM95,108.21a3.72,3.72,0,0,1,1.41-.46c.23,0,.28.36,0,.41a4,4,0,0,0-1.19.51A.27.27,0,0,1,95,108.21Zm2.42,19.05a8.64,8.64,0,0,1-1.57.41c-.35.06-.49-.45-.15-.54a8.54,8.54,0,0,1,1.66-.32C97.62,126.79,97.62,127.17,97.4,127.26Zm1.22-30.94a7.65,7.65,0,0,0-2.33.25c-.26.08-.37-.33-.11-.41a5.68,5.68,0,0,1,2.49-.2C98.88,96,98.82,96.32,98.62,96.32Zm2-21.91a1.09,1.09,0,0,1-.18-1.24.33.33,0,0,1,.63.17,2.83,2.83,0,0,0,0,.87C101.19,74.48,100.84,74.58,100.67,74.41ZM102.27,60a3.84,3.84,0,0,1-.24-1c-.06-.34.46-.49.52-.14a3.93,3.93,0,0,1,.15,1C102.68,60.11,102.37,60.24,102.27,60Zm2-13c-.08-.38-.13-.76-.18-1.15,0-.22.34-.27.37,0a11.43,11.43,0,0,1,.13,1.16C104.65,47.21,104.35,47.24,104.31,47.06ZM105.63,83a3.86,3.86,0,0,1-.66.55c-.24.18-.55-.23-.32-.41a3.9,3.9,0,0,1,.71-.49A.22.22,0,0,1,105.63,83Zm1-18a.23.23,0,0,1-.35-.28,2.07,2.07,0,0,0,.19-1.32.27.27,0,0,1,.5-.14A1.43,1.43,0,0,1,106.59,65Zm.11-13.59a2.17,2.17,0,0,1-.22-1.62c0-.31.58-.24.54.07a7.58,7.58,0,0,0,.09,1.43A.22.22,0,0,1,106.7,51.43ZM110.49,108a2.29,2.29,0,0,1-2,1.15c-.33,0-.33-.5,0-.52a2.47,2.47,0,0,0,1.66-.9C110.31,107.49,110.61,107.74,110.49,108Zm3-10.38a5,5,0,0,1-1,1,.29.29,0,0,1-.42-.41,4.73,4.73,0,0,1,1-1A.25.25,0,0,1,113.47,97.58Zm1.06-9.5a14.41,14.41,0,0,1-1.43,1.27c-.23.19-.56-.13-.33-.33a15.14,15.14,0,0,1,1.5-1.28C114.48,87.59,114.69,87.9,114.53,88.08ZM118,79.74c-.3.41-.6.81-.93,1.2s-.58-.11-.37-.36.65-.73,1-1.08C117.89,79.35,118.17,79.56,118,79.74Zm8.4,7.2c-.24.29-.5.55-.77.82a.23.23,0,0,1-.33-.33c.27-.27.54-.53.82-.77A.2.2,0,0,1,126.44,86.94Zm1.42,9.3c-.31.17-.59-.31-.28-.48a1.75,1.75,0,0,0,.77-.8c.12-.24.49-.07.42.18A1.7,1.7,0,0,1,127.86,96.24ZM142,87.42a3.33,3.33,0,0,1-.49.73c-.29.33-.87-.11-.61-.46a3.76,3.76,0,0,1,.61-.65A.31.31,0,0,1,142,87.42Zm4.32-12.91c-2.74,7.57-13.33,10.23-20.14,7.17-7-3.15-11.83-12-7.41-19.24,1.77-2.9,5-5.63,8.64-5.23a8,8,0,0,1,6.52,4.37c3.36-1.12,8.66,1,10.91,3.6A9.18,9.18,0,0,1,146.31,74.51Z"/><path class="cls-4" d="M115.31,24.47a24.7,24.7,0,0,0-1-4c-.07-.21.26-.35.35-.15a12.22,12.22,0,0,1,1.17,4.92l.12.18a.21.21,0,0,1-.14.3v.09c.16-.05.42.19.42.37,0-.9.91-1.7,1-2.62a6.62,6.62,0,0,0-.3-3.3,13.92,13.92,0,0,0-2.71-4.51c-.61-.66-1.38,2.46-1.32,2.12a6,6,0,0,0,1,4.28C114.36,23,114.83,23.72,115.31,24.47Z"/><path class="cls-5" d="M42.8,61.55a19.4,19.4,0,0,1,.93,3.16c9-2.93,18.11-5.32,27.11-8.15,9.19-2.9,18.86-5.44,27.61-9.51a.36.36,0,0,1,.41.08q.48-3.21.9-6.42a.38.38,0,0,1,.31-.34,9.57,9.57,0,0,1,.28-2.72c-3.51,1.48-7.35,2.41-11,3.6S82,43.72,78.32,44.86a4.7,4.7,0,0,1,.39,3.06.27.27,0,0,1-.32.18l-.68-.19a2.74,2.74,0,0,1-.46,1.4.25.25,0,0,1-.38,0c-.33-.32-.64-.65-1-1-.27.56-.85,1.38-1.43.78a5.1,5.1,0,0,1-.77-1.39c0-.12-.1-.25-.16-.38a.12.12,0,0,1,0,.07,33.65,33.65,0,0,1-11.09,3.18h0A5.72,5.72,0,0,1,62.78,55a.26.26,0,0,1-.39.16,5.12,5.12,0,0,1-1.12-.63,3.68,3.68,0,0,1-.47,1.26.25.25,0,0,1-.42,0c-.23-.42-.44-.83-.66-1.25-.28.49-.94,1.42-1.3.67a22.77,22.77,0,0,1-1-2.52.23.23,0,0,1-.14.11,83,83,0,0,1-14.88,3.1C43.23,57.52,43,59.84,42.8,61.55Z"/><path class="cls-4" d="M18.71,56.77a32.59,32.59,0,0,0-3.35-5.5c-.13-.18.17-.4.31-.24a20.41,20.41,0,0,1,3.68,6.2c1-1.48-.5-4.46-1.18-5.86s-1.62-3.25-3.18-4c-2.17-1.08-1.11,3.19-1,3.54a10.18,10.18,0,0,0,1.28,2.5A18.86,18.86,0,0,0,18.71,56.77Z"/><path class="cls-4" d="M123.83,15.05c.12-.24.54-.07.45.19a24.08,24.08,0,0,0-1.57,8.38c2.22-1.54,4-4.89,4.69-7.31a12.38,12.38,0,0,0,.09-7.59c-2.27,1.67-4.69,3.25-5.66,6a10.62,10.62,0,0,0,.2,7.86A20.57,20.57,0,0,1,123.83,15.05Z"/><path class="cls-2" d="M58.25,53.3l.46,1.19c.15.4.65-.34.74-.43h0c-.06-.13-.13-.25-.2-.38a.18.18,0,0,1,.3-.18c.33.53.65,1.07,1,1.6.11-.33.19-.68.33-1s.32-.1.39.06a.16.16,0,0,1,.15,0,5.29,5.29,0,0,0,.89.38,6.16,6.16,0,0,0-.7-3.81c-.34-.61-.84-1.34-1.6-1.44-.93-.13-2.85.44-2.58,1.82a.25.25,0,0,1,0,.12C57.72,51.89,58,52.6,58.25,53.3Zm1.69-2a7.81,7.81,0,0,1,.29.81c0,.14-.19.25-.26.1a7.55,7.55,0,0,1-.33-.83C59.57,51.16,59.87,51.09,59.94,51.27Zm-1.29-.2a3.26,3.26,0,0,1,.34,1c0,.16-.21.2-.29.08a3.14,3.14,0,0,1-.34-1C58.32,51,58.58,50.9,58.65,51.07Z"/><path class="cls-4" d="M24.26,51.57a.22.22,0,0,1,.42.12c-.41,1.49-.73,3-1.13,4.49,2.74-1.85,4.87-5.06,2.94-8.43-.78-1.35-3.21,3.16-3.38,3.69a6,6,0,0,0,.09,4.36A15,15,0,0,1,24.26,51.57Z"/><path class="cls-2" d="M73.92,47.34a7.09,7.09,0,0,0,.39.78c.11.17.48,1,.8.6a3.56,3.56,0,0,1,.52-.63l-.22-.23c-.16-.18.1-.44.27-.27.41.42.83.8,1.27,1.18.12-.36.16-.73.29-1.1a.28.28,0,0,1,.12-.12.22.22,0,0,1,.27-.16l.6.14c.13-1.43-.45-3.16-2-3.49a2,2,0,0,0-2.3,1A3.27,3.27,0,0,0,74,47.17.23.23,0,0,1,73.92,47.34Zm2.69-2.26c0,.21.1.42.14.64a.13.13,0,0,1-.25.06c-.07-.2-.12-.41-.18-.63A.15.15,0,0,1,76.61,45.08Zm-1.76.56a4,4,0,0,1,.47.53c.06.09-.06.2-.15.14a2.57,2.57,0,0,1-.52-.47C74.52,45.71,74.71,45.52,74.85,45.64Z"/><path class="cls-5" d="M106.8,39.22a.2.2,0,0,1-.08.13,11.19,11.19,0,0,1,2.5,2.83c5.82-4.26,11.83-8.41,17.89-12.32,2.81-1.81,5.7-3.51,8.5-5.35,1.39-.92,2.78-1.85,4.11-2.86.87-.65,1.71-1.32,2.54-2s.31-1.41.12-2.11c0,0,0,0,0,.05A98.89,98.89,0,0,1,133,22.16l-9.42,4.48c-6,2.86-12,5.78-18.08,8.42a2.88,2.88,0,0,1,.19.24A6,6,0,0,1,106.8,39.22Z"/><path class="cls-3" d="M94.14,71.12l1.26,1.44A31.35,31.35,0,0,1,95,67.07a.29.29,0,0,1-.2-.15c-1.21-2.56-2.19-5.21-3.58-7.69s-3-4.65-4.47-7l-.74.24q-4.18,1.39-8.39,2.74a.18.18,0,0,1,.13.08c6.08,8,2.38,19.71,9.63,27l0,0a35.48,35.48,0,0,1,8.43.91c-.18-.52-.35-1-.51-1.55a38.84,38.84,0,0,1-1.81-10.36A.37.37,0,0,1,94.14,71.12ZM83.55,58.59a16.14,16.14,0,0,1-1.16-1.46c-.13-.18.17-.42.31-.24a16.56,16.56,0,0,1,1.15,1.47A.19.19,0,0,1,83.55,58.59Zm2.78,11.29a11.66,11.66,0,0,1-.82-1.42.25.25,0,0,1,.44-.25,11.91,11.91,0,0,1,.79,1.5C86.84,70,86.47,70.07,86.33,69.88Zm2.27-7.07a12.9,12.9,0,0,0-.82-2.17c-.11-.23.23-.43.35-.2a7.74,7.74,0,0,1,.77,2.29C88.93,62.92,88.65,63,88.6,62.81Zm.79,15.72a1.82,1.82,0,0,1-.31-.56c-.13-.36.44-.5.58-.16a1.52,1.52,0,0,1,.13.55A.23.23,0,0,1,89.39,78.53ZM91,71.74c-.07.26-.44.15-.4-.11a3.27,3.27,0,0,0-.1-1.46c-.1-.33.42-.47.52-.14A2.93,2.93,0,0,1,91,71.74Z"/><path class="cls-2" d="M134.23,62.31a.15.15,0,0,1-.28.07h0a.38.38,0,0,1-.37-.59c-1.92-2.78-5.31-4.75-8.76-3.6A10.39,10.39,0,0,0,120,61.6c2.32-.17,5.13.23,6.91,1.79,1.2,1.06,2.44,2.82,1.87,4.53-1.72,5.16-7.57.82-11,.44a13.74,13.74,0,0,0,9.25,13,17,17,0,0,0,12.51-.72s0,0,0-.06c-1-2.36-2.72-3.3-4.46-5a5.64,5.64,0,0,1-1.71-2.25C133,72,133,70,134.58,69.43c3.34-1.27,9.21,1.39,11,4.75,1-2.79,1-6.23-1.31-8.4S137.52,61.5,134.23,62.31ZM129,77.22c-1,.53-2.73,0-2.85-1.23a.16.16,0,0,1,.27-.12,2.36,2.36,0,0,0,1,.89,2,2,0,0,0,1.35,0A.25.25,0,0,1,129,77.22Zm2.36-3.58a1.77,1.77,0,0,1-1.11,1.11,2,2,0,0,1-1.24,0,.53.53,0,0,1-.39,0c-.9-.4-2.41-1.68-1.28-2.74.95-.87,2.35-.48,3.28.2C131.21,72.6,131.57,72.94,131.39,73.64Z"/><path class="cls-3" d="M58.7,95.13c1.29-2.86,4.14-4.85,6.74-6.45a43.13,43.13,0,0,1,4-2.15A71.56,71.56,0,0,1,69,71.68a45.31,45.31,0,0,0,.14-7A28.66,28.66,0,0,0,67.5,58.4c-2.85.89-5.7,1.78-8.56,2.65,2,9.8-5.52,18.52-7.52,27.76a10.82,10.82,0,0,0,2.12,1.72A15.31,15.31,0,0,1,58.7,95.13Zm7.39-23c0,.64,0,1.27,0,1.91a.2.2,0,0,1-.39,0c0-.64-.07-1.27-.08-1.91A.23.23,0,0,1,66.09,72.16ZM64.5,83.46c0-.3.51-.31.47,0a12.92,12.92,0,0,1-.22,1.64c0,.23-.41.18-.41,0C64.36,84.51,64.43,84,64.5,83.46ZM63.05,66.91a.24.24,0,0,1,.48,0,7.7,7.7,0,0,1,0,1.27.22.22,0,0,1-.44,0A7.7,7.7,0,0,1,63.05,66.91Zm-2.39,15a2,2,0,0,1,.31.71c0,.21-.22.41-.39.22a2.16,2.16,0,0,1-.4-.73C60.07,81.81,60.51,81.65,60.66,81.89Z"/><path class="cls-3" d="M139.33,70.53a11.79,11.79,0,0,0-2.18-.62c-2.13-.3-4.68,1.25-2.93,3.8S139,77.3,140,80.4a11.67,11.67,0,0,0,5-4.87,7.43,7.43,0,0,0,.37-.81C144.24,72.64,141.42,71.23,139.33,70.53Zm-.33,5a.35.35,0,0,1-.66,0,4.82,4.82,0,0,0-.66-1.44,5.8,5.8,0,0,0-1.26-.9c-.15-.11-.17-.4.06-.44A2.54,2.54,0,0,1,139,75.51Z"/><path class="cls-2" d="M36.2,59.76a.25.25,0,0,1,.28.11L37.67,62c.31-.49.73-.94,1.06-1.38a.33.33,0,0,1,.55,0,9.72,9.72,0,0,1,1.2,2.19c.51-.61,1-1.2,1.57-1.79l.09-.06c0-1.09.09-2.18,0-3.26a3.54,3.54,0,0,0-.47-1.83.49.49,0,0,0-.8-.09l-.06.06a4.86,4.86,0,0,0-.92,1.41c-.06.11-.21,0-.19-.08a4.6,4.6,0,0,1,.5-1.3c-1.22.08-1.66,1.3-2.27,2.25a.15.15,0,0,1-.28-.12,4.22,4.22,0,0,1,.4-1.18,2.78,2.78,0,0,0-1.25,1.11,8,8,0,0,0-.67,1.91Z"/><path class="cls-5" d="M33.31,64.12c.51-1.5.93-3.16,2.25-4a6.27,6.27,0,0,1,.71-2.58s0,.05-.07.06C29,59.12,21.59,60.09,14.34,61.66A108.14,108.14,0,0,0,3.12,64.59C2,65,.56,65.05.68,66.87a10.21,10.21,0,0,0,.56,3,38.09,38.09,0,0,0,2.34,4.86c5-1.37,10.08-2.16,15.06-3.48,4.64-1.23,9.18-2.71,13.78-4C32.68,66.17,33,65.14,33.31,64.12Z"/><path class="cls-3" d="M127.4,69.15c1.85-2.22.28-5-2-6.09a13.45,13.45,0,0,0-5.66-1.13,9.79,9.79,0,0,0-1.59,3.52,12.52,12.52,0,0,0-.31,2.33,12.91,12.91,0,0,1,4,1C123.27,69.35,126.07,70.73,127.4,69.15Zm-6.06-2.35a2.59,2.59,0,0,1,2.6-.57c.7.27,1.63.84,1.64,1.67,0,.26-.28.32-.46.19-.55-.44-.78-1.11-1.57-1.28a2.75,2.75,0,0,0-1.94.34C121.39,67.26,121.15,67,121.34,66.8Z"/><path class="cls-4" d="M121.57,39.48a22.76,22.76,0,0,1,5,.47.21.21,0,0,1,0,.41c-1.85-.13-3.68-.34-5.53-.46,3,4.43,8,4.21,12.61,2.78A11.5,11.5,0,0,0,121.57,39.48Z"/><path class="cls-6" d="M133.92,61.58a8,8,0,0,0-6.52-4.37c-3.64-.4-6.87,2.33-8.64,5.23-4.42,7.21.42,16.09,7.41,19.24,6.81,3.06,17.4.4,20.14-7.17a9.18,9.18,0,0,0-1.48-9.33C142.58,62.54,137.28,60.46,133.92,61.58Zm-15.79,3.87a9.79,9.79,0,0,1,1.59-3.52,13.45,13.45,0,0,1,5.66,1.13c2.3,1.06,3.87,3.87,2,6.09-1.33,1.58-4.13.2-5.59-.38a12.91,12.91,0,0,0-4-1A12.52,12.52,0,0,1,118.13,65.45ZM145,75.53a11.67,11.67,0,0,1-5,4.87c-1-3.1-4-4.13-5.77-6.69s.8-4.1,2.93-3.8a11.79,11.79,0,0,1,2.18.62c2.09.7,4.91,2.11,6,4.19A7.43,7.43,0,0,1,145,75.53Zm.58-1.35c-1.75-3.36-7.62-6-11-4.75C133,70,133,72,133.35,73.36a5.64,5.64,0,0,0,1.71,2.25c1.74,1.65,3.51,2.59,4.46,5,0,0,0,0,0,.06a17,17,0,0,1-12.51.72,13.74,13.74,0,0,1-9.25-13c3.39.38,9.24,4.72,11-.44.57-1.71-.67-3.47-1.87-4.53-1.78-1.56-4.59-2-6.91-1.79a10.39,10.39,0,0,1,4.82-3.41c3.45-1.15,6.84.82,8.76,3.6a.38.38,0,0,0,.37.59h0a.15.15,0,0,0,.28-.07c3.29-.81,7.67,1.24,10,3.47S146.54,71.39,145.54,74.18Z"/><path class="cls-6" d="M130.65,72.2c-.93-.68-2.33-1.07-3.28-.2-1.13,1.06.38,2.34,1.28,2.74a.53.53,0,0,0,.39,0,2,2,0,0,0,1.24,0,1.77,1.77,0,0,0,1.11-1.11C131.57,72.94,131.21,72.6,130.65,72.2Z"/><path class="cls-6" d="M128.84,76.77a2,2,0,0,1-1.35,0,2.36,2.36,0,0,1-1-.89.16.16,0,0,0-.27.12c.12,1.28,1.87,1.76,2.85,1.23A.25.25,0,0,0,128.84,76.77Z"/><path class="cls-6" d="M144,58.23a6.6,6.6,0,0,0,.77,0,.39.39,0,0,0,.19-.72,21.83,21.83,0,0,0-14.66-4.4,5.36,5.36,0,0,0,.4-.43.39.39,0,0,0-.28-.67C120,52.46,112.23,63,113.5,73.1a24.39,24.39,0,0,1-1.23-9.79,54.67,54.67,0,0,0-.07-10.47c-.36-3.41-1-7.13-2.66-10.14,6.06-3.94,11.86-8.29,17.92-12.23,5.37-3.5,11.18-6.51,15.9-10.92a.35.35,0,0,0,0-.39c-.27-.59-.53-1.18-.78-1.78a.15.15,0,0,0-.19-.09.22.22,0,0,0-.29-.19c-6.21,2.18-12.17,5.68-18.1,8.51-6.33,3-12.72,6-18.94,9.25a.52.52,0,0,0-.38.2l-.26.13c-.11.06-.08.17,0,.23-.16.25-.29.54-.43.76a5.17,5.17,0,0,0-1.37-1.35c-.16-.13-.36,0-.42.17a13.31,13.31,0,0,0-.68,2.08c-.11-.13-.23-.25-.35-.37a.4.4,0,0,0-.66.17.57.57,0,0,1,0,.14,89.05,89.05,0,0,0-11.33,3.56c-3.7,1.25-7.4,2.56-11,4A2.73,2.73,0,0,0,76,43.3a2.58,2.58,0,0,0-2.58,3.75.13.13,0,0,0-.09,0c-3.63.93-7.49,2.28-11.14,3.24a3.91,3.91,0,0,0-1.58-1.57c-1.36-.67-4.77.74-3.6,2.57l0,0c.09.34.19.69.3,1a.38.38,0,0,0-.35-.07c-4.89,1.27-9.77,2.35-14.72,3.33a3.32,3.32,0,0,0-.23-.37c-.5-.67-1-.47-1.44,0a1.83,1.83,0,0,0-2,.7,2.66,2.66,0,0,0-2.22,1.38.3.3,0,0,0-.34-.31C27,58.34,17.83,60.05,9,62.27c-2.31.58-4.59,1.27-6.86,2-.64.2-1.83.42-2,1.28C-.5,69,1.41,72.21,3.33,74.93c-.06.17,0,.4.24.37A93.34,93.34,0,0,0,18,72.22a127.81,127.81,0,0,0,14.33-4.47,52.63,52.63,0,0,0-1.12,6.72,51.09,51.09,0,0,0,2.67,20.88c4.18,12.94,9.35,25.54,20.3,34.24,10.43,8.29,23.59,9.19,36.2,6.36a64.29,64.29,0,0,0,18.56-7.12c6-3.53,10.13-9,14.52-14.19,3.93-4.7,7-10.12,11.33-14.49,4.12-4.21,8.61-7.66,11.54-12.89a31.37,31.37,0,0,0,3.7-14C150.2,67.45,147.07,62.86,144,58.23ZM123.56,26.64,133,22.16a98.89,98.89,0,0,0,9.36-4.59s0,0,0-.05c.19.7.6,1.51-.12,2.11s-1.67,1.37-2.54,2c-1.33,1-2.72,1.94-4.11,2.86-2.8,1.84-5.69,3.54-8.5,5.35-6.06,3.91-12.07,8.06-17.89,12.32a11.19,11.19,0,0,0-2.5-2.83.2.2,0,0,0,.08-.13,6,6,0,0,0-1.13-3.92,2.88,2.88,0,0,0-.19-.24C111.57,32.42,117.56,29.5,123.56,26.64ZM73.9,45a2,2,0,0,1,2.3-1c1.58.33,2.16,2.06,2,3.49l-.6-.14a.22.22,0,0,0-.27.16.28.28,0,0,0-.12.12c-.13.37-.17.74-.29,1.1-.44-.38-.86-.76-1.27-1.18-.17-.17-.43.09-.27.27l.22.23a3.56,3.56,0,0,0-.52.63c-.32.44-.69-.43-.8-.6a7.09,7.09,0,0,1-.39-.78.23.23,0,0,0,0-.17A3.27,3.27,0,0,1,73.9,45ZM60,49.28c.76.1,1.26.83,1.6,1.44a6.16,6.16,0,0,1,.7,3.81,5.29,5.29,0,0,1-.89-.38.16.16,0,0,0-.15,0c-.07-.16-.31-.26-.39-.06s-.22.68-.33,1c-.32-.53-.64-1.07-1-1.6a.18.18,0,0,0-.3.18c.07.13.14.25.2.38h0c-.09.09-.59.83-.74.43l-.46-1.19c-.27-.7-.53-1.41-.84-2.08a.25.25,0,0,0,0-.12C57.16,49.72,59.08,49.15,60,49.28Zm-2.72,3.48a.23.23,0,0,0,.14-.11,22.77,22.77,0,0,0,1,2.52c.36.75,1-.18,1.3-.67.22.42.43.83.66,1.25a.25.25,0,0,0,.42,0,3.68,3.68,0,0,0,.47-1.26,5.12,5.12,0,0,0,1.12.63.26.26,0,0,0,.39-.16,5.72,5.72,0,0,0-.38-4.32h0a33.65,33.65,0,0,0,11.09-3.18.12.12,0,0,0,0-.07c.06.13.11.26.16.38a5.1,5.1,0,0,0,.77,1.39c.58.6,1.16-.22,1.43-.78.31.33.62.66,1,1a.25.25,0,0,0,.38,0,2.74,2.74,0,0,0,.46-1.4l.68.19a.27.27,0,0,0,.32-.18,4.7,4.7,0,0,0-.39-3.06c3.7-1.14,7.37-2.4,11.05-3.61s7.47-2.12,11-3.6a9.57,9.57,0,0,0-.28,2.72.38.38,0,0,0-.31.34q-.42,3.21-.9,6.42a.36.36,0,0,0-.41-.08C89.7,51.12,80,53.66,70.84,56.56c-9,2.83-18.14,5.22-27.11,8.15a19.4,19.4,0,0,0-.93-3.16c.18-1.71.43-4-.39-5.69A83,83,0,0,0,57.29,52.76Zm38.05,29c.16.51.33,1,.51,1.55a35.48,35.48,0,0,0-8.43-.91l0,0c-7.25-7.33-3.55-19.09-9.63-27a.18.18,0,0,0-.13-.08q4.2-1.35,8.39-2.74l.74-.24c1.46,2.35,3.11,4.57,4.47,7s2.37,5.13,3.58,7.69a.29.29,0,0,0,.2.15,31.35,31.35,0,0,0,.39,5.49l-1.26-1.44a.37.37,0,0,0-.61.26A38.84,38.84,0,0,0,95.34,81.74ZM68.06,58.22,71.92,57l5.49-1.74a.18.18,0,0,0,0,.24c5.81,7.92,1.92,19.84,9.21,26.89a45.15,45.15,0,0,0-11.32,1.82,37.41,37.41,0,0,0-5.58,2.16,160.14,160.14,0,0,1,.2-16.25C70.12,66.41,70.43,61.4,68.06,58.22Zm-9.12,2.83c2.86-.87,5.71-1.76,8.56-2.65a28.66,28.66,0,0,1,1.63,6.29,45.31,45.31,0,0,1-.14,7,71.56,71.56,0,0,0,.4,14.85,43.13,43.13,0,0,0-4,2.15c-2.6,1.6-5.45,3.59-6.74,6.45a15.31,15.31,0,0,0-5.16-4.6,10.82,10.82,0,0,1-2.12-1.72C53.42,79.57,61,70.85,58.94,61.05ZM50.87,88.19a26.31,26.31,0,0,1-3.53-6.38c-.13-.3-.57-.13-.57.15,0,.45,0,.9-.08,1.34a40.5,40.5,0,0,1-2.17-11.65,52.29,52.29,0,0,0-.7-6.5c4.94-1.14,9.84-2.51,14.72-4C59.62,71,52.85,78.91,50.87,88.19ZM95.06,65.71a39,39,0,0,0-8-13.59,76.72,76.72,0,0,0,11.69-4.46c-.47,3.15-1,6.29-1.63,9.41l0-.06a.4.4,0,0,0-.73.1A44.67,44.67,0,0,0,95.06,65.71ZM36.81,57.88a2.78,2.78,0,0,1,1.25-1.11,4.22,4.22,0,0,0-.4,1.18.15.15,0,0,0,.28.12c.61-1,1.05-2.17,2.27-2.25a4.6,4.6,0,0,0-.5,1.3c0,.1.13.19.19.08a4.86,4.86,0,0,1,.92-1.41l.06-.06a.49.49,0,0,1,.8.09,3.54,3.54,0,0,1,.47,1.83c.08,1.08,0,2.17,0,3.26l-.09.06c-.53.59-1.06,1.18-1.57,1.79a9.72,9.72,0,0,0-1.2-2.19.33.33,0,0,0-.55,0c-.33.44-.75.89-1.06,1.38l-1.19-2.08a.25.25,0,0,0-.28-.11l-.06,0A8,8,0,0,1,36.81,57.88ZM18.64,71.25c-5,1.32-10.1,2.11-15.06,3.48a38.09,38.09,0,0,1-2.34-4.86,10.21,10.21,0,0,1-.56-3C.56,65.05,2,65,3.12,64.59a108.14,108.14,0,0,1,11.22-2.93C21.59,60.09,29,59.12,36.2,57.57c0,0,0,0,.07-.06a6.27,6.27,0,0,0-.71,2.58c-1.32.87-1.74,2.53-2.25,4-.34,1-.63,2-.89,3.08C27.82,68.54,23.28,70,18.64,71.25ZM148.53,79c-1.55,7.38-5.86,12.73-11.28,17.71-10.66,9.81-16.64,24.32-29.43,31.88-6.13,3.63-13.26,5.8-20.21,7.18a44.26,44.26,0,0,1-22.59-1c-14-4.65-22.77-18.08-27.69-31.24-2.66-7.11-5.11-14.49-5.6-22.1a49.12,49.12,0,0,1,.86-12.1,46.69,46.69,0,0,1,1.3-5.08,19.48,19.48,0,0,1,1-2.67c.93-2,1.9-.35,2.57.68l0,0-.07.12a.22.22,0,0,0,.35.27A7,7,0,0,0,39,61.29a9,9,0,0,0,1.25,1.76l-.36.43c-.18.24.2.5.41.31.65-.59,1.25-1.24,1.85-1.89A54.9,54.9,0,0,1,43.93,74c.28,3.47.71,7.26,2.7,10.22l0,0h0l.08,0a.24.24,0,0,0,.34-.14,6.7,6.7,0,0,0,.13-.71,18.24,18.24,0,0,0,3.33,5.86l.08.07a.44.44,0,0,0,0,.1.35.35,0,0,0,.51.37,23.08,23.08,0,0,0,3.38,2.29,14.91,14.91,0,0,1,4.69,4.63.15.15,0,0,0,.26-.15c-.14-.33-.3-.64-.46-.94a.23.23,0,0,0,.11-.11c3.13-5.72,11.19-9,17.13-10.66,6.58-1.85,13.16-1.72,19.85-.91a9.49,9.49,0,0,0,3.26,4.62c.2.13.39-.15.24-.31a16.22,16.22,0,0,1-2.71-4.33.26.26,0,0,0-.12-.41H96.7a39.81,39.81,0,0,1-2.36-11.14c.43.46.86.9,1.31,1.33.26.25.59-.11.38-.38l-.19-.23A75.13,75.13,0,0,1,97,58.25v0a.33.33,0,0,0,.59-.08c1-5.52,2-11,2.77-16.61.23.3.44.56.74.91s.52-.06.38-.3c-.26-.46-.55-.9-.84-1.35a17.54,17.54,0,0,1,.51-3.15,2.12,2.12,0,0,0,.53.35.26.26,0,0,0,.35-.35,2,2,0,0,0-.19-.28c.31-.6.55-1.25.81-1.87.44.4.81.87,1.27,1.23.15.11.43,0,.35-.2,0,0-.06-.1-.08-.15a.17.17,0,0,0,.16-.07c.07-.09.65-1.08.85-.78a6.55,6.55,0,0,1,.58,1.19,11,11,0,0,1,.45,2.2h0a.28.28,0,0,0-.38.1l-1.29,1.87a2.61,2.61,0,0,0-1.55-1,.28.28,0,0,0-.33.13,8.93,8.93,0,0,0-1.16,2.36.09.09,0,0,0,.15.08A7.66,7.66,0,0,0,103,40.53a3.71,3.71,0,0,1,1.24.76.35.35,0,0,1,0,.08c-.09.13.12.29.22.17l.16-.18v0c.35-.4.7-.81,1-1.23.71-.87,1.91.72,2.24,1.1A13.25,13.25,0,0,1,110.33,46a37.94,37.94,0,0,1,1.44,10.33c.1,3.2-.31,6.35-.49,9.53a18.88,18.88,0,0,0,2,8.61c.14.32.66.09.56-.23h0c.27-5,.77-9.47,3.49-13.82a16.68,16.68,0,0,1,12.26-7.57l-.16.22c-.21.32.26.66.52.4,0,0,0,0,.05,0a.2.2,0,0,0,.18.13,24.27,24.27,0,0,1,13.47,4l-.53.09c-.32.06-.2.49.07.52l.14,0,0,.06c2.07,3.27,4.11,6.37,5.34,10.08C149.83,71.66,149.24,75.64,148.53,79Z"/><path class="cls-6" d="M59,52.11a3.26,3.26,0,0,0-.34-1c-.07-.17-.33,0-.29.13a3.14,3.14,0,0,0,.34,1C58.78,52.31,59,52.27,59,52.11Z"/><path class="cls-6" d="M60.23,52.08a7.81,7.81,0,0,0-.29-.81c-.07-.18-.37-.11-.3.08a7.55,7.55,0,0,0,.33.83C60,52.33,60.26,52.22,60.23,52.08Z"/><path class="cls-6" d="M75.17,46.31c.09.06.21-.05.15-.14a4,4,0,0,0-.47-.53c-.14-.12-.33.07-.2.2A2.57,2.57,0,0,0,75.17,46.31Z"/><path class="cls-6" d="M76.75,45.72c0-.22-.09-.43-.14-.64a.15.15,0,0,0-.29.07c.06.22.11.43.18.63A.13.13,0,0,0,76.75,45.72Z"/><path class="cls-6" d="M35.94,69c0-.48.18-1,.18-1.43a.18.18,0,0,0-.33-.09,1.93,1.93,0,0,0-.2,1.56C35.63,69.23,35.93,69.17,35.94,69Z"/><path class="cls-6" d="M41.7,72.48a12,12,0,0,0,.22,1.8.21.21,0,0,0,.41,0,12.78,12.78,0,0,0-.15-1.75C42.14,72.18,41.67,72.17,41.7,72.48Z"/><path class="cls-6" d="M35.73,79.48a6.92,6.92,0,0,0,.25,2,.2.2,0,0,0,.39,0,6.57,6.57,0,0,0-.29-2A.18.18,0,0,0,35.73,79.48Z"/><path class="cls-6" d="M44.94,87.56a.25.25,0,0,0-.25.44,1.51,1.51,0,0,1,.67,1.08c0,.23.35.14.37,0A1.42,1.42,0,0,0,44.94,87.56Z"/><path class="cls-6" d="M40.15,96.48a5.83,5.83,0,0,0,.67,1.16c.15.18.46,0,.39-.23a6.17,6.17,0,0,0-.63-1.19C40.42,95.94,40,96.19,40.15,96.48Z"/><path class="cls-6" d="M50.13,96.78c-.3-.25-.74.18-.44.43a10,10,0,0,0,1,.82c.26.16.5-.19.32-.41A10.29,10.29,0,0,0,50.13,96.78Z"/><path class="cls-6" d="M53.13,113.71l-.1.09a5.85,5.85,0,0,0-1-1.4c-.21-.23-.54.11-.34.34a11.85,11.85,0,0,1,1.07,1.55.23.23,0,0,0,.37,0l.29-.35A.19.19,0,0,0,53.13,113.71Z"/><path class="cls-6" d="M60.9,109.2a5.71,5.71,0,0,1-2.11-.49c-.27-.12-.51.27-.24.41a4.26,4.26,0,0,0,2.35.47A.2.2,0,0,0,60.9,109.2Z"/><path class="cls-6" d="M70.55,98.8a6.56,6.56,0,0,0,1.33.19.23.23,0,0,0,.06-.44,6,6,0,0,0-1.33-.22C70.34,98.3,70.28,98.75,70.55,98.8Z"/><path class="cls-6" d="M82.87,90.73c-.67,0-1.33.13-2,.24-.3,0-.23.57.07.54a19,19,0,0,0,2-.33C83.18,91.13,83.12,90.72,82.87,90.73Z"/><path class="cls-6" d="M83.28,103.77a6.23,6.23,0,0,1-2,.24c-.38,0-.37.56,0,.58a4,4,0,0,0,2.18-.42C83.68,104.06,83.52,103.7,83.28,103.77Z"/><path class="cls-6" d="M85.63,117.91a8.26,8.26,0,0,0-1.65,0,.29.29,0,0,0,0,.57,8.26,8.26,0,0,0,1.65-.05A.25.25,0,0,0,85.63,117.91Z"/><path class="cls-6" d="M71.74,125.16a4.21,4.21,0,0,1-1.37-.14c-.31-.1-.43.38-.13.49a2.13,2.13,0,0,0,1.55.06C72,125.48,72,125.16,71.74,125.16Z"/><path class="cls-6" d="M72.59,114.07A5.25,5.25,0,0,0,71.4,114a.32.32,0,0,0,0,.63,5.25,5.25,0,0,0,1.19,0A.27.27,0,0,0,72.59,114.07Z"/><path class="cls-6" d="M60,101.76c-.54-.1-1.08-.18-1.63-.24-.28,0-.27.4,0,.44.53.06,1,.12,1.59.15C60.15,102.12,60.19,101.79,60,101.76Z"/><path class="cls-6" d="M98.67,96a5.68,5.68,0,0,0-2.49.2c-.26.08-.15.49.11.41a7.65,7.65,0,0,1,2.33-.25C98.82,96.32,98.88,96,98.67,96Z"/><path class="cls-6" d="M110.14,107.69a2.47,2.47,0,0,1-1.66.9c-.33,0-.33.53,0,.52a2.29,2.29,0,0,0,2-1.15C110.61,107.74,110.31,107.49,110.14,107.69Z"/><path class="cls-6" d="M96.39,107.75a3.72,3.72,0,0,0-1.41.46.27.27,0,0,0,.27.46,4,4,0,0,1,1.19-.51C96.67,108.11,96.62,107.73,96.39,107.75Z"/><path class="cls-6" d="M97.34,126.81a8.54,8.54,0,0,0-1.66.32c-.34.09-.2.6.15.54a8.64,8.64,0,0,0,1.57-.41C97.62,127.17,97.62,126.79,97.34,126.81Z"/><path class="cls-6" d="M113.13,97.25a4.73,4.73,0,0,0-1,1,.29.29,0,0,0,.42.41,5,5,0,0,0,1-1A.25.25,0,0,0,113.13,97.25Z"/><path class="cls-6" d="M128.35,95a1.75,1.75,0,0,1-.77.8c-.31.17,0,.65.28.48a1.7,1.7,0,0,0,.91-1.1C128.84,94.89,128.47,94.72,128.35,95Z"/><path class="cls-6" d="M114.27,87.74a15.14,15.14,0,0,0-1.5,1.28c-.23.2.1.52.33.33a14.41,14.41,0,0,0,1.43-1.27C114.69,87.9,114.48,87.59,114.27,87.74Z"/><path class="cls-6" d="M105.36,82.64a3.9,3.9,0,0,0-.71.49c-.23.18.08.59.32.41a3.86,3.86,0,0,0,.66-.55A.22.22,0,0,0,105.36,82.64Z"/><path class="cls-6" d="M101.12,73.34a.33.33,0,0,0-.63-.17,1.09,1.09,0,0,0,.18,1.24c.17.17.52.07.49-.2A2.83,2.83,0,0,1,101.12,73.34Z"/><path class="cls-6" d="M106.43,63.42a2.07,2.07,0,0,1-.19,1.32.23.23,0,0,0,.35.28,1.43,1.43,0,0,0,.34-1.74A.27.27,0,0,0,106.43,63.42Z"/><path class="cls-6" d="M102,59a3.84,3.84,0,0,0,.24,1c.1.22.41.09.43-.12a3.93,3.93,0,0,0-.15-1C102.49,58.53,102,58.68,102,59Z"/><path class="cls-6" d="M107,49.88c0-.31-.5-.38-.54-.07a2.17,2.17,0,0,0,.22,1.62.22.22,0,0,0,.41-.12A7.58,7.58,0,0,1,107,49.88Z"/><path class="cls-6" d="M104.63,47a11.43,11.43,0,0,0-.13-1.16c0-.22-.4-.17-.37,0,.05.39.1.77.18,1.15C104.35,47.24,104.65,47.21,104.63,47Z"/><path class="cls-6" d="M141.5,87a3.76,3.76,0,0,0-.61.65c-.26.35.32.79.61.46a3.33,3.33,0,0,0,.49-.73A.31.31,0,0,0,141.5,87Z"/><path class="cls-6" d="M126.16,86.66c-.28.24-.55.5-.82.77a.23.23,0,0,0,.33.33c.27-.27.53-.53.77-.82A.2.2,0,0,0,126.16,86.66Z"/><path class="cls-6" d="M117.74,79.5c-.35.35-.68.7-1,1.08s.15.61.37.36.63-.79.93-1.2C118.17,79.56,117.89,79.35,117.74,79.5Z"/><path class="cls-6" d="M63.51,68.18a7.7,7.7,0,0,0,0-1.27.24.24,0,0,0-.48,0,7.7,7.7,0,0,0,0,1.27A.22.22,0,0,0,63.51,68.18Z"/><path class="cls-6" d="M66.1,74.07c0-.64,0-1.27,0-1.91a.23.23,0,0,0-.46,0c0,.64,0,1.27.08,1.91A.2.2,0,0,0,66.1,74.07Z"/><path class="cls-6" d="M61,82.6a2,2,0,0,0-.31-.71c-.15-.24-.59-.08-.48.2a2.16,2.16,0,0,0,.4.73C60.75,83,61,82.81,61,82.6Z"/><path class="cls-6" d="M64.75,85.1A12.92,12.92,0,0,0,65,83.46c0-.31-.43-.3-.47,0-.07.53-.14,1.05-.16,1.59C64.34,85.28,64.71,85.33,64.75,85.1Z"/><path class="cls-6" d="M82.7,56.89c-.14-.18-.44.06-.31.24a16.14,16.14,0,0,0,1.16,1.46.19.19,0,0,0,.3-.23A16.56,16.56,0,0,0,82.7,56.89Z"/><path class="cls-6" d="M87.78,60.64a12.9,12.9,0,0,1,.82,2.17c.05.2.33.11.3-.08a7.74,7.74,0,0,0-.77-2.29C88,60.21,87.67,60.41,87.78,60.64Z"/><path class="cls-6" d="M85.51,68.46a11.66,11.66,0,0,0,.82,1.42c.14.19.51.08.41-.17a11.91,11.91,0,0,0-.79-1.5A.25.25,0,0,0,85.51,68.46Z"/><path class="cls-6" d="M90.53,70.17a3.27,3.27,0,0,1,.1,1.46c0,.26.33.37.4.11a2.93,2.93,0,0,0,0-1.71C91,69.7,90.43,69.84,90.53,70.17Z"/><path class="cls-6" d="M89.08,78a1.82,1.82,0,0,0,.31.56.23.23,0,0,0,.4-.17,1.52,1.52,0,0,0-.13-.55C89.52,77.47,89,77.61,89.08,78Z"/><path class="cls-6" d="M122,23.33c0,.31,0,.63,0,.94a.38.38,0,0,0,.56.32c2.41-1,4.15-4.32,5.1-6.62a13.07,13.07,0,0,0,.42-10,.39.39,0,0,0-.64-.17c-2.6,2-5,3.61-6.29,6.75a10.43,10.43,0,0,0,.59,8.65A.21.21,0,0,0,122,23.33Zm-.17-8.56c1-2.8,3.39-4.38,5.66-6a12.38,12.38,0,0,1-.09,7.59c-.74,2.42-2.47,5.77-4.69,7.31a24.08,24.08,0,0,1,1.57-8.38c.09-.26-.33-.43-.45-.19a20.57,20.57,0,0,0-1.8,7.58A10.62,10.62,0,0,1,121.83,14.77Z"/><path class="cls-6" d="M120.6,39.47a.14.14,0,0,0-.07.16c-.14,0-.24.13-.18.28,2.37,5.63,9.33,5,14.07,3.36a.42.42,0,0,0,.19-.69C130.66,39,125.7,37,120.6,39.47Zm.34.43c1.85.12,3.68.33,5.53.46a.21.21,0,0,0,0-.41,22.76,22.76,0,0,0-5-.47,11.5,11.5,0,0,1,12,3.2C129,44.11,123.89,44.33,120.94,39.9Z"/><path class="cls-6" d="M115.49,25.55c0,.16.05.32.08.49s.11.1.17.06,0,0,0,0a.29.29,0,0,0,0,.35l.07.11a.34.34,0,0,0,.52.06c3.83-3.49.7-8.92-2.1-11.93a.33.33,0,0,0-.52.07c-1,1.79-1.74,3.37-1.29,5.44C112.79,22.13,114.29,24,115.49,25.55Zm-2.55-7.64c-.06.34.71-2.78,1.32-2.12A13.92,13.92,0,0,1,117,20.3a6.62,6.62,0,0,1,.3,3.3c-.13.92-1,1.72-1,2.62,0-.18-.26-.42-.42-.37v-.09a.21.21,0,0,0,.14-.3l-.12-.18a12.22,12.22,0,0,0-1.17-4.92c-.09-.2-.42-.06-.35.15a24.7,24.7,0,0,1,1,4c-.48-.75-1-1.5-1.39-2.28A6,6,0,0,1,112.94,17.91Z"/><path class="cls-6" d="M23.13,56.62a.2.2,0,0,0,.25.18,6.46,6.46,0,0,0,4.15-4.15c.56-1.48.55-5.19-1.08-6.15-1.21-.71-2.94,2.71-3.38,3.48a6.17,6.17,0,0,0,0,6.62S23.12,56.61,23.13,56.62Zm0-5.18c.17-.53,2.6-5,3.38-3.69,1.93,3.37-.2,6.58-2.94,8.43.4-1.49.72-3,1.13-4.49a.22.22,0,0,0-.42-.12A15,15,0,0,0,23.2,55.8,6,6,0,0,1,23.11,51.44Z"/><path class="cls-6" d="M19.1,57.71h0l.1.19c.08.19.38.06.32-.13l0-.08h.06c2.68-.6-2-12.16-6.29-11.37a.36.36,0,0,0-.26.26C12.18,51.33,15.22,55.35,19.1,57.71ZM14,50.88c-.14-.35-1.2-4.62,1-3.54,1.56.78,2.46,2.53,3.18,4s2.18,4.38,1.18,5.86A20.41,20.41,0,0,0,15.67,51c-.14-.16-.44.06-.31.24a32.59,32.59,0,0,1,3.35,5.5,18.86,18.86,0,0,1-3.41-3.39A10.18,10.18,0,0,1,14,50.88Z"/><path class="cls-6" d="M123.55,66.81c.79.17,1,.84,1.57,1.28.18.13.47.07.46-.19,0-.83-.94-1.4-1.64-1.67a2.59,2.59,0,0,0-2.6.57c-.19.18,0,.46.27.35A2.75,2.75,0,0,1,123.55,66.81Z"/><path class="cls-6" d="M136.48,72.73c-.23,0-.21.33-.06.44a5.8,5.8,0,0,1,1.26.9,4.82,4.82,0,0,1,.66,1.44.35.35,0,0,0,.66,0A2.54,2.54,0,0,0,136.48,72.73Z"/><path class="cls-7" d="M148.53,79a26.13,26.13,0,0,0,.66-8.57,37.46,37.46,0,0,1-6.78,12.12,38.22,38.22,0,0,1-8.16,7.55,20.4,20.4,0,0,0-3.67,2.32,7.75,7.75,0,0,0,2.78.51,72.41,72.41,0,0,1-11,7c-5.25,2.71-10.67,6.28-16.32,8.07a17.79,17.79,0,0,0,2.52,1.13c-4.15,3.9-12.52,5.85-17.94,6.75-8.76,1.46-18.35,2-26.69-1.26a8.06,8.06,0,0,0,.43,3.26,52.09,52.09,0,0,1-21-24c-.36.63-1,1.16-1.32,1.83-2.25-5.65-3.6-11.84-5.37-17.66A46.46,46.46,0,0,1,35,61.5l-.06.11a19.48,19.48,0,0,0-1,2.67,46.69,46.69,0,0,0-1.3,5.08,49.12,49.12,0,0,0-.86,12.1c.49,7.61,2.94,15,5.6,22.1C42.25,116.72,51,130.15,65,134.8a44.26,44.26,0,0,0,22.59,1c7-1.38,14.08-3.55,20.21-7.18,12.79-7.56,18.77-22.07,29.43-31.88C142.67,91.74,147,86.39,148.53,79Zm-7.64,8.68a3.76,3.76,0,0,1,.61-.65.31.31,0,0,1,.49.38,3.33,3.33,0,0,1-.49.73C141.21,88.48,140.63,88,140.89,87.69ZM36,81.45a6.92,6.92,0,0,1-.25-2,.18.18,0,0,1,.35,0,6.57,6.57,0,0,1,.29,2A.2.2,0,0,1,36,81.45Zm4.84,16.19a5.83,5.83,0,0,1-.67-1.16c-.15-.29.27-.54.43-.26a6.17,6.17,0,0,1,.63,1.19C41.28,97.63,41,97.82,40.82,97.64ZM53.4,114l-.29.35a.23.23,0,0,1-.37,0,11.85,11.85,0,0,0-1.07-1.55c-.2-.23.13-.57.34-.34a5.85,5.85,0,0,1,1,1.4l.1-.09A.19.19,0,0,1,53.4,114Zm18.39,11.59a2.13,2.13,0,0,1-1.55-.06c-.3-.11-.18-.59.13-.49a4.21,4.21,0,0,0,1.37.14C72,125.16,72,125.48,71.79,125.57Zm13.84-7.19a8.26,8.26,0,0,1-1.65.05.29.29,0,0,1,0-.57,8.26,8.26,0,0,1,1.65,0A.25.25,0,0,1,85.63,118.38Zm11.77,8.88a8.64,8.64,0,0,1-1.57.41c-.35.06-.49-.45-.15-.54a8.54,8.54,0,0,1,1.66-.32C97.62,126.79,97.62,127.17,97.4,127.26ZM110.49,108a2.29,2.29,0,0,1-2,1.15c-.33,0-.33-.5,0-.52a2.47,2.47,0,0,0,1.66-.9C110.31,107.49,110.61,107.74,110.49,108Z"/><path class="cls-7" d="M96.76,83.51a.26.26,0,0,1,.12.41,16.76,16.76,0,0,0,2.36,3.9C97,83.13,99,76.8,98.84,72a4.44,4.44,0,0,1,1.82,1,.33.33,0,0,1,.17,0,10.7,10.7,0,0,0,.1-2.9,28.85,28.85,0,0,1,.54-9.08c.69-3.29.87-6.67,1.46-10,.2.18.42.41.62.59.25-3.55,0-7.16.16-10.73a2.61,2.61,0,0,0-.67-.33,7.66,7.66,0,0,1-1.39,1.95.09.09,0,0,1-.15-.08A8.93,8.93,0,0,1,102.66,40a.28.28,0,0,1,.33-.13,2.71,2.71,0,0,1,.75.31l0-.49a10.73,10.73,0,0,0-.21-3.27c-.31-.3-.6-.62-.92-.91-.26.62-.5,1.27-.81,1.87a2,2,0,0,1,.19.28.26.26,0,0,1-.35.35,2.12,2.12,0,0,1-.53-.35,17.54,17.54,0,0,0-.51,3.15c.29.45.58.89.84,1.35.14.24-.2.52-.38.3s-.51-.61-.74-.91c-.74,5.57-1.74,11.09-2.77,16.61a.33.33,0,0,1-.59.08v0a75.13,75.13,0,0,0-1.14,14.83l.19.23c.21.27-.12.63-.38.38-.45-.43-.88-.87-1.31-1.33A39.81,39.81,0,0,0,96.7,83.5Z"/><path class="cls-2" d="M101.49,42.34h0A10.42,10.42,0,0,1,102.66,40a.28.28,0,0,1,.33-.13,2,2,0,0,1,.39.13,3,3,0,0,1,.36.18h0l0-.49a10.73,10.73,0,0,0-.21-3.27h0c-.31-.3-.6-.62-.92-.91-.26.62-.5,1.27-.81,1.87a2,2,0,0,1,.19.28.26.26,0,0,1-.35.35,2.12,2.12,0,0,1-.53-.35,17.54,17.54,0,0,0-.51,3.15c.29.45.58.89.84,1.35A.18.18,0,0,1,101.49,42.34Z"/><path class="cls-7" d="M91,74.52c-2.92-3.41-2.18-7.34-3.67-11.3-.41.65-.87,1.35-1.32,2-.81-1.56-1.5-4.26-2.46-6.68a15.05,15.05,0,0,1-1.12-1.41c-.13-.18.17-.42.31-.24l.15.18a7.63,7.63,0,0,0-2.16-2.86l-3.06,1a.18.18,0,0,1,.13.08c6.08,8,2.38,19.71,9.63,27l0,0a35.48,35.48,0,0,1,8.43.91c-.18-.52-.35-1-.51-1.55-.37-1.22-.7-2.46-1-3.71C93.22,76.88,92,75.77,91,74.52Zm-4.63-4.64a11.66,11.66,0,0,1-.82-1.42.25.25,0,0,1,.44-.25,11.91,11.91,0,0,1,.79,1.5C86.84,70,86.47,70.07,86.33,69.88Zm3.06,8.65a1.82,1.82,0,0,1-.31-.56c-.13-.36.44-.5.58-.16a1.52,1.52,0,0,1,.13.55A.23.23,0,0,1,89.39,78.53Z"/><path class="cls-7" d="M51.42,88.81a10.82,10.82,0,0,0,2.12,1.72,15.31,15.31,0,0,1,5.16,4.6,11.89,11.89,0,0,1,3.59-4.28,23,23,0,0,1-1.21-7.13c.12-4.34,2.61-8.78,2.17-13a2.83,2.83,0,0,0-1.42,1.71A32.72,32.72,0,0,0,63,67.19a2.62,2.62,0,0,0,0-.28.22.22,0,0,1,.06-.14c.45-2.93.59-6-.28-6.93-1.3.41-2.59.82-3.89,1.21C61,70.85,53.42,79.57,51.42,88.81Zm9.24-6.92a2,2,0,0,1,.31.71c0,.21-.22.41-.39.22a2.16,2.16,0,0,1-.4-.73C60.07,81.81,60.51,81.65,60.66,81.89Z"/><path class="cls-8" d="M82.87,90.73c-.67,0-1.33.13-2,.24-.3,0-.23.57.07.54a19,19,0,0,0,2-.33C83.18,91.13,83.12,90.72,82.87,90.73Z"/><path class="cls-8" d="M60.9,109.2a5.71,5.71,0,0,1-2.11-.49c-.27-.12-.51.27-.24.41a4.26,4.26,0,0,0,2.35.47A.2.2,0,0,0,60.9,109.2Z"/><path class="cls-8" d="M71.74,125.16a4.21,4.21,0,0,1-1.37-.14c-.31-.1-.43.38-.13.49a2.13,2.13,0,0,0,1.55.06C72,125.48,72,125.16,71.74,125.16Z"/><path class="cls-8" d="M70.55,98.8a6.56,6.56,0,0,0,1.33.19.23.23,0,0,0,.06-.44,6,6,0,0,0-1.33-.22C70.34,98.3,70.28,98.75,70.55,98.8Z"/><path class="cls-8" d="M72.59,114.07A5.25,5.25,0,0,0,71.4,114a.32.32,0,0,0,0,.63,5.25,5.25,0,0,0,1.19,0A.27.27,0,0,0,72.59,114.07Z"/><path class="cls-8" d="M83.28,103.77a6.23,6.23,0,0,1-2,.24c-.38,0-.37.56,0,.58a4,4,0,0,0,2.18-.42C83.68,104.06,83.52,103.7,83.28,103.77Z"/><path class="cls-8" d="M96.39,107.75a3.72,3.72,0,0,0-1.41.46.27.27,0,0,0,.27.46,4,4,0,0,1,1.19-.51C96.67,108.11,96.62,107.73,96.39,107.75Z"/><path class="cls-8" d="M85.63,117.91a8.26,8.26,0,0,0-1.65,0,.29.29,0,0,0,0,.57,8.26,8.26,0,0,0,1.65-.05A.25.25,0,0,0,85.63,117.91Z"/><path class="cls-8" d="M44.94,87.56a.25.25,0,0,0-.25.44,1.51,1.51,0,0,1,.67,1.08c0,.23.35.14.37,0A1.42,1.42,0,0,0,44.94,87.56Z"/><path class="cls-8" d="M40.15,96.48a5.83,5.83,0,0,0,.67,1.16c.15.18.46,0,.39-.23a6.17,6.17,0,0,0-.63-1.19C40.42,95.94,40,96.19,40.15,96.48Z"/><path class="cls-8" d="M35.73,79.48a6.92,6.92,0,0,0,.25,2,.2.2,0,0,0,.39,0,6.57,6.57,0,0,0-.29-2A.18.18,0,0,0,35.73,79.48Z"/><path class="cls-8" d="M60,101.76c-.54-.1-1.08-.18-1.63-.24-.28,0-.27.4,0,.44.53.06,1,.12,1.59.15C60.15,102.12,60.19,101.79,60,101.76Z"/><path class="cls-8" d="M41.7,72.48a12,12,0,0,0,.22,1.8.21.21,0,0,0,.41,0,12.78,12.78,0,0,0-.15-1.75C42.14,72.18,41.67,72.17,41.7,72.48Z"/><path class="cls-8" d="M35.94,69c0-.48.18-1,.18-1.43a.18.18,0,0,0-.33-.09,1.93,1.93,0,0,0-.2,1.56C35.63,69.23,35.93,69.17,35.94,69Z"/><path class="cls-8" d="M53.13,113.71l-.1.09a5.85,5.85,0,0,0-1-1.4c-.21-.23-.54.11-.34.34a11.85,11.85,0,0,1,1.07,1.55.23.23,0,0,0,.37,0l.29-.35A.19.19,0,0,0,53.13,113.71Z"/><path class="cls-8" d="M50.13,96.78c-.3-.25-.74.18-.44.43a10,10,0,0,0,1,.82c.26.16.5-.19.32-.41A10.29,10.29,0,0,0,50.13,96.78Z"/><path class="cls-8" d="M97.34,126.81a8.54,8.54,0,0,0-1.66.32c-.34.09-.2.6.15.54a8.64,8.64,0,0,0,1.57-.41C97.62,127.17,97.62,126.79,97.34,126.81Z"/><path class="cls-8" d="M126.16,86.66c-.28.24-.55.5-.82.77a.23.23,0,0,0,.33.33c.27-.27.53-.53.77-.82A.2.2,0,0,0,126.16,86.66Z"/><path class="cls-8" d="M117.74,79.5c-.35.35-.68.7-1,1.08s.15.61.37.36.63-.79.93-1.2C118.17,79.56,117.89,79.35,117.74,79.5Z"/><path class="cls-8" d="M113.13,97.25a4.73,4.73,0,0,0-1,1,.29.29,0,0,0,.42.41,5,5,0,0,0,1-1A.25.25,0,0,0,113.13,97.25Z"/><path class="cls-8" d="M114.27,87.74a15.14,15.14,0,0,0-1.5,1.28c-.23.2.1.52.33.33a14.41,14.41,0,0,0,1.43-1.27C114.69,87.9,114.48,87.59,114.27,87.74Z"/><path class="cls-8" d="M128.35,95a1.75,1.75,0,0,1-.77.8c-.31.17,0,.65.28.48a1.7,1.7,0,0,0,.91-1.1C128.84,94.89,128.47,94.72,128.35,95Z"/><path class="cls-8" d="M133.92,61.58a8,8,0,0,0-6.52-4.37c-3.64-.4-6.87,2.33-8.64,5.23-4.42,7.21.42,16.09,7.41,19.24,6.81,3.06,17.4.4,20.14-7.17a9.18,9.18,0,0,0-1.48-9.33C142.58,62.54,137.28,60.46,133.92,61.58Z"/><path class="cls-8" d="M141.5,87a3.76,3.76,0,0,0-.61.65c-.26.35.32.79.61.46a3.33,3.33,0,0,0,.49-.73A.31.31,0,0,0,141.5,87Z"/><path class="cls-8" d="M104.63,47a11.43,11.43,0,0,0-.13-1.16c0-.22-.4-.17-.37,0,.05.39.1.77.18,1.15C104.35,47.24,104.65,47.21,104.63,47Z"/><path class="cls-8" d="M110.14,107.69a2.47,2.47,0,0,1-1.66.9c-.33,0-.33.53,0,.52a2.29,2.29,0,0,0,2-1.15C110.61,107.74,110.31,107.49,110.14,107.69Z"/><path class="cls-8" d="M101.12,73.34a.33.33,0,0,0-.63-.17,1.09,1.09,0,0,0,.18,1.24c.17.17.52.07.49-.2A2.83,2.83,0,0,1,101.12,73.34Z"/><path class="cls-8" d="M98.67,96a5.68,5.68,0,0,0-2.49.2c-.26.08-.15.49.11.41a7.65,7.65,0,0,1,2.33-.25C98.82,96.32,98.88,96,98.67,96Z"/><path class="cls-8" d="M102,59a3.84,3.84,0,0,0,.24,1c.1.22.41.09.43-.12a3.93,3.93,0,0,0-.15-1C102.49,58.53,102,58.68,102,59Z"/><path class="cls-8" d="M107,49.88c0-.31-.5-.38-.54-.07a2.17,2.17,0,0,0,.22,1.62.22.22,0,0,0,.41-.12A7.58,7.58,0,0,1,107,49.88Z"/><path class="cls-8" d="M105.36,82.64a3.9,3.9,0,0,0-.71.49c-.23.18.08.59.32.41a3.86,3.86,0,0,0,.66-.55A.22.22,0,0,0,105.36,82.64Z"/><path class="cls-8" d="M106.43,63.42a2.07,2.07,0,0,1-.19,1.32.23.23,0,0,0,.35.28,1.43,1.43,0,0,0,.34-1.74A.27.27,0,0,0,106.43,63.42Z"/><path class="cls-9" d="M79.84,86.33a4.51,4.51,0,0,0-2,0,.51.51,0,0,0-.22-.29c-1.22-.72-2.33.37-3.26,1.08-.71.54-2,1.42-1.92,2.46a.39.39,0,0,0,.78,0c0-.61,1.23-1.25,1.67-1.54l.89-.56a3,3,0,0,1,.73-.34,1.47,1.47,0,0,0-.22.41.43.43,0,0,0,.11.43l.21.2a.38.38,0,0,0,.63-.39,5.32,5.32,0,0,1,2.63-.66A.43.43,0,0,0,79.84,86.33Z"/><path class="cls-9" d="M88.66,86.16a2.47,2.47,0,0,0-3-.06c-.48.25-.14,1,.36.86a5,5,0,0,1,1-.21,3.29,3.29,0,0,1,1.11.23C88.63,87.11,89.05,86.48,88.66,86.16Z"/><path class="cls-9" d="M64.58,92.34a6.14,6.14,0,0,0-1.78,1c-.45.3,0,1,.43.73a18.47,18.47,0,0,0,1.65-1A.39.39,0,0,0,64.58,92.34Z"/><path class="cls-9" d="M42.24,66c0-.52-.85-.66-.92-.13a4,4,0,0,0,.57,2.48.41.41,0,0,0,.75-.09C42.8,67.42,42.24,66.78,42.24,66Z"/><path class="cls-9" d="M67.11,62.12c-.31-.29-.9.1-.62.48a2.18,2.18,0,0,1,.28,1,2.15,2.15,0,0,1,0,1,.35.35,0,0,0,.55.42A2.25,2.25,0,0,0,67.11,62.12Z"/><path class="cls-9" d="M67.92,65.36c-.52-.42-1.25.27-.75.75a.85.85,0,0,1,0,.86c-.24.35.22.72.55.55A1.33,1.33,0,0,0,67.92,65.36Z"/><path class="cls-9" d="M88.46,56.68a3.49,3.49,0,0,0-1-1.1.53.53,0,0,0-.75.75,3.38,3.38,0,0,0,1.1,1A.45.45,0,0,0,88.46,56.68Z"/><path class="cls-9" d="M109.86,55a.55.55,0,0,0-1.09,0c0,.77.26,1.9-.13,2.6-.25.43.25,1,.7.71C110.44,57.58,109.93,56.08,109.86,55Z"/><path class="cls-9" d="M109.34,59.53a.5.5,0,0,0-1,0,5.37,5.37,0,0,0,.08,1.79.44.44,0,0,0,.85,0A5.12,5.12,0,0,0,109.34,59.53Z"/><path class="cls-9" d="M111.09,72.56a8.08,8.08,0,0,1-1.35-1.93c-.17-.42-.9-.41-.86.12a3.32,3.32,0,0,0,1.63,2.56C111,73.61,111.4,73,111.09,72.56Z"/></g></svg>